<?xml version="1.0" standalone="no"?>
<!DOCTYPE svg PUBLIC "-//W3C//DTD SVG 20010904//EN"
 "http://www.w3.org/TR/2001/REC-SVG-20010904/DTD/svg10.dtd">
<svg version="1.0" xmlns="http://www.w3.org/2000/svg"
 width="2560.000000pt" height="1493.000000pt" viewBox="0 0 2560.000000 1493.000000"
 preserveAspectRatio="xMidYMid meet">

<g transform="translate(0.000000,1493.000000) scale(0.100000,-0.100000)"
fill="#000000" stroke="none">
<path d="M6232 11716 c-279 -54 -512 -195 -675 -409 -247 -324 -292 -757 -117
-1125 22 -46 63 -118 92 -160 40 -57 863 -890 3266 -3306 1767 -1777 3246
-3257 3285 -3289 91 -74 263 -159 392 -194 95 -26 112 -27 325 -27 212 0 231
2 325 27 127 34 299 119 392 194 39 32 1518 1512 3285 3289 2403 2416 3226
3249 3266 3306 256 372 264 848 19 1221 -299 457 -884 615 -1372 373 -60 -30
-144 -82 -185 -115 -41 -33 -1346 -1339 -2899 -2901 -1553 -1562 -2827 -2840
-2831 -2840 -4 0 -1282 1283 -2841 2850 -1727 1736 -2863 2872 -2909 2907 -97
73 -253 147 -377 179 -122 32 -328 41 -441 20z"/>
</g>
</svg>
