<?xml version="1.0" standalone="no"?>
<!DOCTYPE svg PUBLIC "-//W3C//DTD SVG 20010904//EN"
 "http://www.w3.org/TR/2001/REC-SVG-20010904/DTD/svg10.dtd">
<svg version="1.0" xmlns="http://www.w3.org/2000/svg"
 width="665.000000pt" height="375.000000pt" viewBox="0 0 665.000000 375.000000"
 preserveAspectRatio="xMidYMid meet">

<g transform="translate(0.000000,375.000000) scale(0.100000,-0.100000)"
fill="#000000" stroke="none">
<path d="M3175 3159 c-337 -35 -602 -157 -825 -379 -184 -183 -298 -401 -357
-680 -27 -129 -25 -430 5 -563 39 -175 113 -339 222 -492 60 -84 209 -234 276
-279 22 -14 57 -38 79 -53 132 -88 411 -189 463 -168 11 5 -15 15 -75 30 -273
69 -513 222 -687 440 -83 103 -102 134 -155 242 -93 190 -124 335 -124 573 -1
194 14 286 73 460 120 356 428 660 789 780 150 50 246 64 441 63 194 0 278
-12 434 -64 304 -102 598 -364 738 -659 39 -82 84 -227 98 -313 8 -45 17 -74
23 -70 22 14 -23 216 -76 338 -73 168 -145 273 -282 411 -160 161 -315 258
-515 322 -160 51 -392 77 -545 61z"/>
<path d="M2672 2198 c-28 -68 -78 -187 -112 -265 -157 -371 -179 -428 -171
-436 5 -5 26 -7 47 -5 l38 3 41 98 c22 54 47 102 55 106 8 5 80 5 160 2 l145
-6 41 -100 41 -100 48 -3 c26 -2 51 0 56 5 6 6 -90 255 -131 338 -9 19 -72
169 -161 384 -22 52 -41 96 -43 98 -2 2 -26 -52 -54 -119z m93 -215 c21 -54
46 -119 56 -145 l19 -48 -120 0 c-66 0 -120 3 -120 8 0 16 113 282 120 282 4
0 25 -44 45 -97z"/>
<path d="M3108 2284 c-3 -3 3 -29 14 -57 10 -29 32 -86 47 -127 57 -152 223
-586 233 -610 10 -24 12 -23 38 35 15 33 61 138 101 233 40 94 75 172 78 172
3 0 20 -38 38 -83 103 -267 148 -376 154 -369 3 4 20 45 37 92 17 47 45 121
62 165 17 44 35 91 40 105 4 14 42 114 84 224 42 109 76 204 76 212 0 10 -14
14 -49 14 -48 0 -48 0 -64 -42 -15 -41 -75 -216 -139 -403 -50 -146 -43 -147
-105 11 -30 76 -80 204 -112 284 l-58 145 -46 3 c-28 2 -47 -1 -47 -7 0 -6 18
-55 40 -110 l39 -100 -65 -172 c-35 -94 -67 -176 -71 -182 -9 -14 -13 -4 -108
263 -122 343 -105 310 -163 310 -27 0 -51 -3 -54 -6z"/>
<path d="M4563 1976 c-23 -6 -44 -14 -48 -18 -7 -7 13 -108 26 -129 6 -10 19
-10 64 1 56 13 57 14 50 44 -3 17 -9 46 -12 64 -7 42 -27 51 -80 38z m69 -58
c16 -54 11 -75 -15 -65 -15 6 -40 94 -31 109 14 22 33 3 46 -44z m-54 -17 c13
-45 13 -54 1 -62 -24 -15 -27 -11 -39 46 -19 92 14 105 38 16z"/>
<path d="M4550 1681 c0 -21 3 -53 6 -70 6 -30 7 -31 65 -31 l59 0 -2 73 -1 72
-6 -65 c-5 -51 -10 -66 -23 -68 -13 -3 -18 3 -19 20 -2 96 -19 131 -19 40 0
-55 -2 -62 -20 -62 -18 0 -20 7 -20 65 0 37 -4 65 -10 65 -5 0 -10 -17 -10
-39z"/>
<path d="M4082 1534 c-45 -31 -19 -114 36 -114 29 0 62 34 62 65 0 29 -32 65
-58 65 -10 0 -28 -7 -40 -16z"/>
<path d="M4550 1483 c0 -4 19 -24 42 -44 l43 -37 -60 -12 -59 -12 42 -37 c23
-21 42 -40 42 -43 0 -3 -20 -9 -45 -12 -24 -4 -48 -12 -51 -18 -5 -8 1 -9 17
-4 13 3 43 9 67 12 23 4 42 10 42 14 0 5 -16 22 -36 40 -29 25 -34 34 -23 41
8 5 19 9 26 9 6 0 24 5 40 11 l28 11 -30 24 c-53 44 -85 66 -85 57z"/>
<path d="M4365 1003 c4 -10 16 -42 27 -70 20 -51 42 -74 31 -33 -7 28 41 100
67 100 11 0 20 5 20 10 0 6 -32 10 -76 10 -69 0 -75 -2 -69 -17z m68 -33 c-9
-16 -20 -30 -24 -30 -4 0 -12 14 -18 30 -10 30 -10 30 25 30 l35 0 -18 -30z"/>
<path d="M4280 825 c24 -25 49 -45 54 -45 6 0 -10 20 -34 45 -24 25 -49 45
-54 45 -6 0 10 -20 34 -45z"/>
<path d="M4102 750 c-26 -19 -42 -38 -42 -51 0 -29 37 -79 59 -79 29 0 101 59
101 83 l-1 22 -12 -23 c-7 -12 -29 -34 -49 -47 l-37 -25 -26 27 c-14 15 -25
33 -25 39 0 17 66 64 90 64 12 0 18 5 15 10 -10 17 -30 11 -73 -20z"/>
<path d="M3955 640 c3 -14 8 -37 11 -52 l6 -27 -73 24 c-41 13 -75 20 -77 15
-4 -11 39 -112 46 -106 2 3 -3 23 -12 46 -19 47 -17 48 74 20 36 -11 66 -20
68 -20 7 0 -1 23 -23 71 -14 30 -23 43 -20 29z"/>
<path d="M3105 559 c-64 -52 -65 -53 -35 -46 37 9 112 -13 118 -35 4 -18 22
-26 22 -10 0 17 -42 132 -48 132 -4 -1 -29 -19 -57 -41z m69 -21 c6 -27 6 -27
-26 -16 -44 15 -44 15 -17 37 27 22 33 18 43 -21z"/>
<path d="M3642 568 c-51 -8 -62 -13 -58 -26 2 -10 7 -38 10 -63 l7 -45 52 7
c29 4 60 8 70 8 9 1 17 6 17 12 0 6 -11 8 -27 5 -99 -19 -103 -19 -103 2 0 17
8 22 38 27 70 12 81 25 15 18 -59 -5 -63 -4 -63 15 0 17 9 21 60 27 33 4 60
11 60 16 0 5 -3 8 -7 8 -5 -1 -36 -6 -71 -11z"/>
<path d="M3342 548 c-7 -7 -12 -31 -12 -55 0 -32 5 -45 19 -53 27 -14 104 -13
119 2 19 19 15 48 -7 48 -11 0 -26 3 -35 6 -9 3 -16 1 -16 -5 0 -6 11 -11 23
-11 30 0 40 -10 26 -26 -12 -14 -96 -9 -113 7 -5 4 -5 24 -2 43 7 36 7 36 59
36 29 0 58 -5 65 -12 9 -9 12 -9 12 0 0 28 -114 44 -138 20z"/>
</g>
</svg>
