<?xml version="1.0" encoding="UTF-8"?>
<svg xmlns="http://www.w3.org/2000/svg" xmlns:xlink="http://www.w3.org/1999/xlink" width="57px" height="32px" viewBox="0 0 56 32" version="1.1">
<g id="surface1">
<path style=" stroke:none;fill-rule:nonzero;fill:rgb(0%,0%,0%);fill-opacity:1;" d="M 23.585938 11.546875 C 23.492188 11.796875 22.644531 13.824219 22.40625 14.371094 C 22.179688 14.898438 20.890625 17.988281 20.714844 18.4375 L 20.554688 18.847656 L 21.65625 18.847656 L 21.785156 18.523438 C 22.355469 17.089844 22.3125 17.152344 22.691406 17.125 C 23.003906 17.101562 23.039062 17.082031 23.023438 16.878906 C 23.011719 16.671875 23.046875 16.640625 23.382812 16.589844 C 23.789062 16.527344 24.210938 16.683594 24.480469 16.980469 C 24.554688 17.066406 24.691406 17.144531 24.765625 17.144531 C 24.867188 17.144531 25 17.375 25.230469 17.960938 C 25.40625 18.414062 25.589844 18.796875 25.648438 18.816406 C 25.707031 18.839844 26.003906 18.847656 26.308594 18.832031 L 26.863281 18.804688 L 26.542969 18.039062 C 24.898438 14.082031 23.78125 11.429688 23.730469 11.367188 C 23.695312 11.34375 23.636719 11.421875 23.585938 11.546875 Z M 24.117188 15.042969 C 24.335938 15.617188 24.511719 16.121094 24.511719 16.144531 C 24.511719 16.179688 24.109375 16.203125 23.621094 16.203125 C 22.9375 16.203125 22.734375 16.179688 22.769531 16.09375 C 23.132812 15.164062 23.628906 13.988281 23.660156 13.988281 C 23.695312 13.988281 23.890625 14.464844 24.117188 15.042969 Z M 24.117188 15.042969 "/>
<path style=" stroke:none;fill-rule:nonzero;fill:rgb(0%,0%,0%);fill-opacity:1;" d="M 25.792969 12.339844 C 25.929688 12.707031 26.113281 13.195312 26.199219 13.433594 C 26.28125 13.664062 26.777344 14.96875 27.292969 16.332031 C 27.816406 17.6875 28.253906 18.875 28.277344 18.949219 C 28.304688 19.035156 28.34375 19.105469 28.378906 19.105469 C 28.40625 19.105469 28.824219 18.191406 29.304688 17.074219 C 29.785156 15.964844 30.207031 15.027344 30.242188 14.984375 C 30.265625 14.949219 30.585938 15.683594 30.949219 16.605469 C 31.308594 17.535156 31.628906 18.320312 31.65625 18.355469 C 31.691406 18.378906 31.847656 18.363281 32.007812 18.3125 C 32.296875 18.207031 32.3125 18.175781 32.867188 16.671875 C 33.1875 15.828125 33.726562 14.378906 34.074219 13.457031 C 34.417969 12.527344 34.707031 11.753906 34.707031 11.726562 C 34.707031 11.703125 34.4375 11.683594 34.097656 11.703125 L 33.5 11.726562 L 32.742188 14.011719 C 32.328125 15.273438 31.984375 16.289062 31.96875 16.273438 C 31.949219 16.257812 31.539062 15.230469 31.058594 13.988281 L 30.164062 11.726562 L 29.617188 11.703125 C 29.3125 11.683594 29.0625 11.691406 29.0625 11.71875 C 29.0625 11.734375 29.203125 12.136719 29.382812 12.597656 C 29.609375 13.183594 29.683594 13.492188 29.644531 13.601562 C 29.601562 13.695312 29.339844 14.378906 29.054688 15.121094 C 28.765625 15.863281 28.53125 16.460938 28.515625 16.445312 C 28.503906 16.425781 28.167969 15.453125 27.765625 14.285156 C 27.359375 13.109375 26.988281 12.050781 26.9375 11.914062 C 26.855469 11.691406 26.828125 11.683594 26.199219 11.683594 L 25.539062 11.683594 Z M 25.792969 12.339844 "/>
</g>
</svg>
