<?xml version="1.0" standalone="no"?>
<!DOCTYPE svg PUBLIC "-//W3C//DTD SVG 20010904//EN"
 "http://www.w3.org/TR/2001/REC-SVG-20010904/DTD/svg10.dtd">
<svg version="1.0" xmlns="http://www.w3.org/2000/svg"
 width="1000.000000pt" height="1280.000000pt" viewBox="0 0 1000.000000 1280.000000"
 preserveAspectRatio="xMidYMid meet">
<metadata>
Created by potrace 1.15, written by Peter Selinger 2001-2017
</metadata>
<g transform="translate(0.000000,1280.000000) scale(0.100000,-0.100000)"
fill="#000000" stroke="none">
<path d="M5110 12790 c-25 -5 -227 -14 -450 -19 -904 -23 -1483 -139 -1980
-398 -215 -113 -213 -112 -339 -150 -183 -55 -270 -101 -361 -191 -74 -74 -95
-104 -308 -434 -103 -160 -243 -314 -382 -421 -156 -119 -177 -129 -277 -135
-83 -4 -98 -11 -105 -45 -3 -16 8 -18 105 -23 70 -4 120 -1 143 6 20 7 82 46
138 88 55 41 126 93 156 116 78 57 142 126 164 175 12 25 22 37 27 30 10 -17
88 87 144 192 47 90 158 265 222 349 60 80 165 179 217 205 27 14 67 25 89 25
l38 0 -50 -47 c-101 -95 -145 -200 -201 -483 -70 -350 -124 -462 -239 -494
-68 -19 -78 -28 -83 -74 -3 -29 -10 -38 -58 -64 -65 -35 -80 -52 -80 -91 0
-22 -13 -44 -50 -83 -27 -29 -50 -58 -50 -64 0 -6 20 -19 45 -30 25 -11 45
-22 45 -25 0 -3 -9 -24 -19 -48 -27 -60 -29 -70 -19 -89 12 -25 40 -22 118 12
38 17 89 33 113 36 41 6 46 4 63 -21 30 -46 94 -301 94 -376 0 -87 -29 -144
-160 -317 -105 -138 -205 -308 -242 -409 -27 -75 -29 -212 -5 -301 9 -34 22
-104 28 -155 7 -59 21 -115 39 -157 29 -67 44 -136 55 -255 3 -38 36 -241 72
-450 63 -367 65 -384 60 -510 -3 -71 0 -165 6 -208 10 -77 2 -245 -23 -457
-40 -334 -52 -423 -71 -508 -11 -54 -25 -126 -30 -162 -6 -36 -14 -74 -19 -85
-5 -11 -11 -33 -13 -50 -3 -20 -4 -15 -6 17 -1 37 -5 48 -21 53 -25 8 -25 13
0 45 27 34 25 45 -10 70 -17 12 -30 30 -30 42 0 13 -13 -5 -33 -43 -47 -89
-82 -177 -74 -186 9 -9 34 25 42 57 11 46 27 79 42 84 10 4 13 1 8 -13 -3 -10
-9 -49 -14 -86 -7 -61 -6 -68 10 -72 10 -3 25 -16 34 -29 8 -13 24 -24 35 -24
18 0 19 -7 19 -107 -1 -86 3 -120 20 -168 45 -128 139 -225 286 -295 79 -37
83 -41 93 -82 6 -24 14 -83 17 -133 3 -49 18 -138 33 -198 l27 -107 -57 -53
c-151 -140 -276 -353 -347 -594 -29 -97 -67 -297 -86 -443 -28 -223 -54 -344
-105 -496 -28 -82 -62 -194 -76 -249 -14 -55 -39 -129 -56 -165 -16 -36 -36
-94 -44 -130 -9 -36 -21 -72 -28 -80 -7 -8 -19 -37 -25 -65 -22 -91 -105 -221
-210 -330 -53 -55 -60 -66 -44 -71 10 -3 34 -12 53 -19 60 -23 222 -27 620
-14 212 7 407 9 433 5 l48 -7 -93 -101 c-154 -166 -275 -306 -381 -443 -56
-71 -147 -177 -202 -235 -56 -58 -109 -116 -118 -130 -50 -74 10 -145 154
-183 30 -8 77 -30 104 -49 28 -19 103 -63 168 -97 149 -78 304 -173 431 -264
161 -114 396 -306 417 -340 29 -46 21 -141 -26 -304 -35 -124 -36 -133 -21
-149 15 -14 23 -15 54 -6 45 14 222 115 352 202 106 70 178 105 236 115 22 4
102 38 179 75 231 114 761 282 1212 385 274 62 753 135 892 135 36 0 71 4 78
8 25 16 30 55 16 141 -8 47 -13 125 -11 174 2 48 0 87 -4 87 -10 0 -16 46 -28
205 -5 77 -19 238 -30 359 -18 189 -60 702 -60 727 0 14 72 10 131 -7 30 -8
120 -49 200 -89 80 -40 209 -99 285 -130 184 -75 229 -98 390 -204 186 -123
288 -160 351 -128 37 20 120 110 141 155 9 17 19 32 22 32 4 0 29 21 56 46 27
25 52 49 57 52 4 4 21 25 37 47 31 42 377 400 670 694 97 97 196 199 221 226
59 65 335 326 363 344 12 7 33 29 47 49 13 20 66 69 116 109 51 40 98 83 104
94 15 29 5 60 -37 110 -21 24 -52 77 -71 118 -19 41 -54 97 -79 124 -25 28
-57 71 -72 96 -14 25 -48 73 -73 106 -60 77 -156 235 -239 395 -71 136 -131
210 -171 210 -14 0 -62 -18 -108 -40 -46 -22 -155 -70 -244 -106 -236 -96
-458 -206 -667 -331 -102 -60 -243 -140 -315 -178 -71 -37 -211 -116 -310
-175 -99 -59 -233 -133 -297 -163 -76 -36 -133 -71 -165 -100 -26 -25 -120
-88 -207 -141 -177 -107 -340 -217 -461 -311 -168 -131 -298 -202 -490 -268
-168 -58 -490 -117 -640 -117 l-51 0 8 68 c21 166 -15 372 -147 827 -83 289
-116 371 -191 482 -72 107 -109 169 -118 200 -7 21 -5 21 126 22 143 0 246 15
428 61 199 49 772 205 1100 298 173 50 405 113 515 142 110 28 294 78 410 111
139 40 218 58 237 54 32 -7 89 -67 119 -127 39 -76 70 -116 102 -131 17 -9 35
-14 39 -11 14 9 -22 84 -83 174 -75 112 -98 180 -109 330 -8 120 -23 195 -40
205 -6 4 -18 -11 -26 -32 -13 -30 -16 -66 -13 -177 l4 -139 -70 -24 c-91 -31
-283 -69 -415 -83 -58 -6 -287 -15 -510 -20 -442 -10 -614 -26 -727 -64 -39
-13 -136 -57 -215 -97 -233 -119 -243 -123 -493 -207 -368 -124 -495 -151
-647 -138 -182 15 -296 78 -623 341 -55 44 -132 98 -172 119 -107 58 -164 126
-82 97 18 -6 47 -11 65 -11 27 0 34 4 34 19 0 42 -95 78 -298 112 -194 32
-272 68 -363 167 -98 106 -131 200 -130 377 0 129 8 187 56 430 45 229 69 425
94 745 13 171 17 271 11 305 -5 28 -13 122 -19 210 -6 88 -19 214 -30 280 -11
66 -36 239 -56 385 -25 188 -46 303 -72 395 -85 305 -85 306 -90 440 -5 111
-2 143 15 214 27 105 60 161 178 307 52 64 104 135 115 156 l20 39 24 -29 c29
-35 83 -141 125 -247 62 -157 143 -275 189 -275 11 0 21 6 21 13 -1 23 -37 92
-92 173 -78 114 -130 223 -136 286 l-5 51 54 -32 c66 -39 135 -71 172 -78 46
-9 34 31 -29 98 -50 51 -58 65 -61 106 -6 55 20 139 60 198 l26 38 10 -24 c6
-13 25 -62 42 -109 28 -73 41 -94 98 -150 157 -156 365 -180 547 -64 62 39 94
79 131 164 37 86 64 130 80 130 27 0 9 -85 -50 -234 -41 -106 -44 -111 -124
-184 -117 -107 -245 -197 -337 -234 -43 -18 -90 -44 -105 -58 l-26 -25 40 -3
c56 -5 105 11 225 76 138 75 220 110 220 96 0 -2 -20 -51 -44 -108 -95 -222
-173 -454 -305 -909 -73 -249 -87 -280 -228 -517 -164 -275 -251 -459 -342
-722 -79 -230 -131 -549 -131 -798 0 -127 5 -149 61 -287 11 -28 10 -39 -14
-100 -14 -37 -29 -86 -32 -108 -7 -53 9 -147 35 -201 47 -96 156 -184 228
-184 30 0 31 1 21 28 -5 16 -39 57 -76 93 -36 35 -72 78 -79 96 -21 48 -17
132 10 236 28 108 26 124 -28 237 -107 224 -56 603 141 1049 93 210 213 444
243 475 37 37 58 32 136 -36 33 -30 88 -66 121 -81 70 -31 249 -80 360 -98 60
-10 76 -16 83 -33 5 -12 13 -150 19 -307 19 -500 37 -703 70 -768 22 -42 77
-94 95 -88 6 2 14 19 18 38 8 42 46 387 53 491 3 42 12 114 20 160 8 46 15
134 15 196 0 62 5 143 11 180 9 56 9 74 -4 104 -22 52 -61 69 -186 79 -174 15
-232 26 -362 69 -142 46 -313 132 -342 171 -27 37 -24 96 8 158 14 28 48 129
75 223 47 167 114 362 273 798 41 113 94 266 117 340 24 74 62 177 86 230 23
52 54 141 68 196 14 56 44 153 66 215 57 159 85 264 110 413 20 126 41 196 57
196 4 0 8 82 8 182 1 206 10 258 53 285 78 48 64 85 -17 44 -53 -28 -98 -82
-106 -129 -3 -22 -12 -48 -20 -58 -12 -17 -17 -15 -86 26 -134 79 -194 109
-237 118 -40 9 -42 9 -42 -13 0 -39 -18 -75 -37 -75 -10 0 -43 15 -73 33 -75
45 -113 59 -146 55 -27 -3 -29 -7 -32 -50 -2 -27 -6 -48 -10 -48 -4 0 -41 13
-82 29 -111 43 -144 48 -162 22 -15 -20 -16 -21 -54 -5 -21 9 -67 17 -102 18
-67 1 -66 2 -92 -54 -6 -11 -27 -15 -89 -16 -71 -2 -87 -5 -119 -28 -40 -27
-82 -34 -82 -13 0 6 16 27 35 46 41 41 97 145 119 223 9 32 30 137 46 234 35
201 56 272 110 364 105 178 240 274 570 405 385 152 709 228 1195 279 920 97
1674 66 2429 -100 89 -20 192 -40 229 -45 38 -5 108 -22 155 -38 48 -17 126
-35 174 -40 86 -10 119 -22 168 -61 35 -28 121 -38 139 -16 33 39 -29 76 -180
106 -57 11 -196 45 -309 75 -459 122 -695 161 -1255 210 -370 33 -440 36 -495
25z m-2707 -2081 c124 -19 144 -20 324 -9 199 13 252 10 363 -17 140 -34 243
-102 256 -168 5 -27 -24 -136 -40 -153 -3 -2 -27 11 -53 31 -77 56 -209 117
-312 144 -124 33 -308 37 -416 9 -144 -37 -297 -145 -362 -254 -14 -24 -27
-41 -29 -39 -9 9 20 126 43 170 13 27 65 91 114 142 49 50 89 95 89 98 0 4
-14 7 -30 7 -98 0 -219 -120 -268 -265 l-20 -57 -25 34 c-78 101 -94 273 -31
315 55 35 218 40 397 12z m477 -511 c0 -10 -64 -11 -73 -2 -3 4 1 20 10 37
l16 31 23 -29 c13 -17 24 -33 24 -37z m-681 -4813 c16 -8 48 -38 72 -67 80
-99 124 -140 214 -201 50 -33 115 -79 146 -102 31 -23 93 -60 138 -84 45 -23
88 -52 95 -64 8 -12 24 -59 35 -104 12 -45 26 -94 31 -109 6 -15 24 -87 40
-160 16 -73 43 -166 59 -206 16 -40 34 -100 41 -133 7 -33 24 -85 37 -115 38
-84 51 -121 104 -305 46 -155 135 -406 209 -585 16 -38 27 -70 25 -70 -3 0
-24 9 -47 20 -24 11 -79 33 -124 50 -44 17 -112 50 -150 73 -38 24 -104 65
-146 91 -87 53 -160 129 -217 226 -49 83 -69 129 -142 322 -74 199 -96 251
-174 418 -43 90 -74 175 -94 255 -17 66 -49 170 -72 230 -60 159 -88 281 -104
445 -8 80 -17 155 -21 168 -8 26 5 28 45 7z m817 -530 c99 -60 171 -78 314
-80 72 -1 134 -6 146 -13 99 -53 321 -558 398 -902 46 -208 106 -671 93 -722
-4 -15 -19 -35 -33 -44 -22 -15 -31 -15 -72 -5 -90 24 -106 24 -132 2 -21 -18
-23 -22 -10 -31 8 -5 28 -10 43 -10 16 0 27 -4 25 -9 -7 -19 -180 -210 -214
-236 -33 -25 -39 -27 -73 -16 -47 14 -147 85 -153 109 -8 29 9 60 44 82 45 27
60 25 133 -15 68 -38 106 -40 125 -5 13 23 -9 50 -75 93 -34 22 -59 48 -77 83
-33 62 -177 474 -219 629 -17 60 -38 123 -49 140 -10 16 -30 77 -45 135 -14
58 -59 209 -100 335 -80 248 -148 515 -132 515 3 0 31 -16 63 -35z m-417
-1128 c1 -5 -3 -5 -9 -2 -5 3 -10 16 -9 28 0 21 1 21 9 2 5 -11 9 -24 9 -28z
m56 -99 c34 -61 53 -141 46 -182 -5 -24 -8 -26 -17 -15 -23 28 -42 75 -49 119
-4 25 -11 50 -15 55 -4 6 -10 24 -14 40 -4 17 -10 39 -13 50 -5 19 -5 19 14 2
11 -9 33 -41 48 -69z m175 -346 c0 -50 -79 -68 -108 -24 -14 22 -14 22 31 22
25 0 49 5 52 10 10 16 25 11 25 -8z m1970 -102 c0 -17 -72 -90 -160 -163 -47
-39 -105 -90 -130 -115 -50 -49 -83 -69 -120 -72 -63 -6 -64 -4 -18 63 75 109
133 158 244 206 54 24 113 54 129 67 32 24 55 31 55 14z m-1672 -72 c56 -28
102 -54 102 -59 0 -5 -14 -18 -32 -29 -28 -17 -34 -18 -48 -5 -9 8 -44 28 -77
44 -73 35 -93 55 -93 87 0 32 12 29 148 -38z m1108 -100 c-12 -63 -28 -67
-106 -28 -38 19 -69 38 -70 42 0 11 30 16 109 17 l74 1 -7 -32z m-1341 -51
c28 -17 74 -44 103 -60 l53 -29 -27 -46 c-15 -26 -34 -61 -43 -79 -9 -18 -19
-32 -22 -33 -4 0 -31 11 -61 24 l-54 24 -23 99 c-12 54 -25 108 -28 121 -5 21
-3 22 23 16 16 -3 52 -20 79 -37z m1118 -124 c21 -18 42 -31 47 -28 6 4 10 0
10 -8 0 -8 -42 -58 -92 -111 -79 -81 -98 -96 -124 -96 -37 0 -114 53 -114 78
1 9 20 48 43 86 35 56 53 74 97 98 62 33 78 31 133 -19z m-700 -126 c15 -16
42 -37 60 -46 44 -22 46 -54 5 -116 -25 -38 -40 -51 -61 -53 -33 -4 -119 37
-169 79 l-33 27 20 36 c11 19 35 58 54 85 l34 50 31 -16 c17 -9 43 -29 59 -46z
m947 -7 c11 -7 2 -23 -50 -78 -36 -38 -85 -93 -110 -121 -77 -86 -74 -57 4 49
41 55 83 113 92 130 19 31 38 37 64 20z m-625 -207 c22 -15 59 -37 83 -49 l43
-21 -40 -59 c-22 -33 -51 -72 -66 -88 l-25 -27 -41 23 c-62 35 -92 75 -85 112
7 32 71 136 84 136 4 0 25 -12 47 -27z m-558 -139 c118 -56 125 -85 51 -210
-22 -38 -47 -85 -55 -104 l-15 -35 -26 50 c-19 38 -82 301 -82 343 0 9 56 -10
127 -44z m365 -250 c55 -46 62 -58 55 -101 -5 -31 -89 -187 -105 -197 -4 -2
-38 25 -76 60 l-68 64 32 80 c57 140 85 157 162 94z m-268 -348 c113 -84 149
-141 126 -201 -15 -39 -83 -145 -93 -145 -15 0 -45 84 -53 145 -4 33 -20 98
-35 144 -29 84 -34 111 -23 111 3 0 38 -24 78 -54z"/>
<path d="M7592 12288 c2 -17 20 -32 75 -59 39 -20 100 -58 135 -86 35 -27 108
-80 163 -118 55 -37 128 -90 162 -118 87 -70 299 -337 388 -488 41 -70 99
-225 91 -245 -3 -8 1 -29 8 -47 8 -17 22 -53 31 -80 14 -39 27 -55 75 -87 104
-71 133 -129 200 -404 46 -185 143 -466 197 -569 64 -121 171 -207 256 -207
46 0 96 20 121 48 23 26 24 26 -103 47 -149 25 -212 62 -197 118 3 14 -6 32
-31 60 -50 56 -100 167 -122 277 -11 52 -29 122 -41 155 -11 33 -27 87 -36
120 -8 33 -38 124 -67 202 -38 106 -57 144 -73 152 -37 16 -94 72 -120 117
-14 23 -39 98 -55 166 -39 158 -70 215 -227 420 -218 283 -269 334 -417 413
-38 21 -112 67 -163 102 -88 61 -180 112 -230 128 -21 6 -23 4 -20 -17z"/>
<path d="M3210 12053 c-42 -14 -42 -17 0 -24 25 -4 92 -8 150 -8 155 -1 305
-32 540 -111 306 -103 357 -108 668 -59 242 37 503 54 565 35 34 -10 51 -10
84 0 29 9 53 10 74 4 18 -5 39 -6 47 -1 26 15 -29 41 -110 53 -96 15 -347 -2
-660 -43 -341 -45 -384 -41 -652 61 -60 23 -149 50 -198 61 -122 27 -461 48
-508 32z"/>
<path d="M7540 11975 c-10 -12 -10 -16 1 -19 8 -3 32 -10 54 -17 108 -32 226
-111 336 -225 101 -105 127 -147 140 -225 17 -108 61 -129 61 -29 0 147 -205
366 -468 499 -67 34 -105 39 -124 16z"/>
<path d="M3060 11795 c-115 -29 -144 -30 -240 -5 -41 10 -76 17 -78 15 -12
-12 14 -45 50 -61 45 -20 168 -25 393 -15 120 6 168 -5 366 -84 162 -64 218
-79 254 -65 14 5 25 14 25 19 0 5 -48 25 -106 45 -58 20 -134 54 -168 76 -156
98 -314 122 -496 75z"/>
<path d="M5320 11633 c-19 -2 -116 -17 -214 -33 -150 -25 -208 -30 -355 -30
-97 0 -186 -3 -198 -6 -36 -10 -27 -33 20 -54 71 -33 218 -23 443 31 152 36
180 39 499 49 280 10 319 9 398 -7 86 -17 116 -14 120 12 1 6 -16 16 -38 24
-31 11 -110 15 -340 17 -165 1 -316 0 -335 -3z"/>
<path d="M3869 11491 c-102 -74 -183 -207 -184 -304 0 -54 3 -61 32 -88 49
-43 81 -48 110 -15 21 25 23 36 23 139 0 139 8 170 65 236 25 29 45 57 45 62
0 20 -40 7 -91 -30z"/>
<path d="M7649 11512 c18 -34 65 -73 174 -144 l110 -72 69 -143 c38 -79 72
-143 77 -143 48 0 -25 186 -123 317 -90 119 -207 203 -284 203 -28 0 -31 -2
-23 -18z"/>
<path d="M4210 11375 c-55 -29 -100 -158 -100 -285 0 -58 9 -108 37 -206 40
-141 42 -165 32 -524 -4 -143 -2 -159 18 -202 25 -54 52 -74 111 -84 53 -8 56
7 9 50 -31 28 -35 40 -51 137 -19 118 -14 147 29 175 14 9 40 30 57 45 63 60
243 88 558 89 304 0 483 15 663 52 128 27 173 32 287 32 162 0 236 -14 310
-59 30 -18 79 -45 108 -59 36 -18 63 -42 85 -73 18 -26 46 -65 63 -88 17 -22
39 -62 49 -88 10 -26 24 -52 31 -58 8 -6 14 -29 14 -50 0 -48 19 -141 32 -154
14 -14 55 37 68 84 11 43 7 394 -5 424 -4 10 -16 22 -26 28 -16 8 -19 21 -19
77 0 78 -13 103 -70 132 -33 17 -41 27 -55 75 -21 75 -40 91 -115 100 -65 8
-71 13 -84 76 -7 33 -25 39 -145 48 -86 7 -95 10 -113 34 -33 45 -50 49 -114
27 -83 -29 -100 -26 -155 25 -61 57 -87 63 -153 37 -91 -38 -106 -38 -156 2
-53 42 -78 45 -118 11 -27 -23 -72 -45 -92 -45 -5 0 -11 14 -15 30 -4 17 -17
38 -30 46 -34 22 -100 6 -235 -56 -114 -54 -124 -54 -173 -13 -38 31 -77 29
-162 -7 -82 -35 -98 -37 -132 -10 -45 36 -82 26 -161 -42 -37 -32 -73 -36 -98
-11 -13 13 -15 28 -11 72 9 80 23 115 57 135 33 19 56 54 43 66 -17 16 -49 19
-73 5z"/>
<path d="M7640 11240 c0 -18 38 -49 98 -79 59 -30 119 -87 145 -138 9 -16 27
-73 42 -128 32 -116 57 -170 86 -186 21 -11 22 -10 17 43 -3 34 -12 65 -26 83
-13 18 -28 65 -38 114 -18 99 -40 147 -97 208 -53 57 -122 93 -182 93 -25 0
-45 -4 -45 -10z"/>
<path d="M7797 10943 c-15 -15 -5 -86 27 -189 19 -60 41 -144 51 -186 17 -80
44 -130 84 -157 l24 -16 -5 46 c-3 24 -20 85 -38 134 -19 50 -34 107 -33 128
0 20 -3 37 -7 37 -4 0 -11 19 -14 43 -11 75 -70 180 -89 160z"/>
<path d="M1178 10886 c-31 -65 -77 -104 -174 -151 -92 -44 -114 -67 -76 -79
48 -16 220 71 285 144 43 46 47 82 15 104 -30 21 -32 21 -50 -18z"/>
<path d="M1283 10698 c-16 -18 -48 -58 -70 -88 -22 -31 -56 -69 -74 -86 -48
-41 -89 -93 -89 -110 0 -20 37 -17 76 7 37 23 74 69 74 93 0 8 20 32 44 52 57
47 87 88 96 130 7 28 5 34 -9 34 -9 0 -31 -15 -48 -32z"/>
<path d="M4985 10550 c-222 -36 -419 -198 -536 -438 -28 -59 -64 -123 -80
-143 -16 -20 -29 -41 -29 -47 0 -20 178 -178 232 -207 92 -48 104 -28 68 121
-29 118 -13 167 80 251 32 30 155 91 199 99 31 7 33 6 22 -14 -85 -159 53
-458 256 -555 64 -30 75 -32 178 -32 104 0 114 2 175 32 102 50 180 118 215
187 33 66 49 78 59 44 18 -70 -16 -159 -90 -230 -37 -35 -54 -59 -52 -73 5
-36 47 -29 128 19 41 25 78 46 83 46 4 0 7 -22 7 -48 0 -68 26 -137 69 -180
l36 -37 3 38 c3 30 -4 48 -31 86 l-34 47 19 27 c26 35 35 34 51 -5 42 -99 205
-176 292 -136 41 18 29 37 -42 69 -38 17 -78 36 -91 42 -13 6 -46 39 -73 74
-27 35 -54 63 -60 63 -5 0 -8 4 -4 9 3 5 30 7 60 4 48 -5 63 -2 129 30 67 32
107 69 92 84 -3 4 -23 -1 -43 -10 -94 -40 -169 -44 -220 -11 -39 24 -26 32 30
17 63 -17 133 -12 170 12 51 33 120 219 89 239 -14 8 -35 -14 -88 -94 -57 -87
-89 -105 -178 -98 -38 3 -72 10 -78 16 -5 5 -16 69 -24 143 -23 208 -55 297
-127 352 -62 47 -161 95 -242 116 -44 12 -91 30 -105 39 -43 30 -419 68 -515
52z m400 -95 c289 -81 294 -84 402 -249 65 -98 67 -104 79 -196 7 -52 11 -96
10 -97 -1 -2 -16 17 -33 41 -69 98 -244 211 -423 274 -140 49 -316 86 -348 74
-15 -6 -67 -14 -116 -17 -64 -5 -121 -18 -203 -46 -136 -46 -149 -48 -132 -16
38 70 216 207 310 236 39 12 284 41 309 36 8 -2 74 -19 145 -40z m95 -528 c0
-14 -6 -18 -27 -15 -31 3 -39 23 -28 66 l7 27 24 -30 c13 -16 24 -38 24 -48z"/>
<path d="M7740 10526 c0 -7 12 -40 26 -72 27 -61 60 -227 48 -245 -3 -6 -6
-49 -5 -95 1 -47 -4 -94 -10 -105 -12 -23 1 -39 32 -39 14 0 19 21 29 117 15
135 8 287 -15 355 -17 47 -63 98 -91 98 -8 0 -14 -6 -14 -14z"/>
<path d="M1290 10447 c-14 -8 -52 -33 -85 -56 l-60 -43 -103 5 c-93 5 -103 4
-100 -11 12 -61 185 -49 326 22 46 23 92 67 92 87 0 13 -42 11 -70 -4z"/>
<path d="M8186 10400 c-76 -67 -131 -228 -131 -385 0 -115 21 -193 85 -327 22
-45 40 -87 40 -93 0 -7 9 -20 21 -31 16 -14 42 -19 124 -24 125 -7 146 -19
190 -105 27 -54 30 -70 30 -150 0 -49 -4 -124 -9 -165 -7 -63 -6 -78 7 -88 39
-33 72 25 123 217 35 128 37 274 7 341 -43 95 -100 125 -224 118 -67 -4 -92
-11 -159 -44 l-80 -40 0 27 c0 15 -9 44 -21 63 -64 109 -98 299 -67 375 l14
35 119 18 c201 30 254 33 318 14 98 -29 168 -77 230 -159 151 -200 153 -535 6
-947 -49 -138 -286 -692 -374 -877 -69 -145 -154 -293 -224 -393 -68 -97 -234
-259 -321 -313 -113 -70 -148 -80 -277 -81 -107 -1 -114 0 -137 24 -23 23 -26
35 -32 151 -7 135 1 163 29 104 9 -19 24 -35 32 -35 13 0 14 7 8 38 -16 76 -7
203 20 287 33 98 34 148 6 176 -11 11 -28 19 -37 17 -15 -3 -17 -16 -14 -94 1
-54 -4 -121 -13 -163 -8 -40 -15 -92 -15 -117 0 -42 -2 -45 -39 -60 -22 -8
-43 -26 -50 -40 -30 -66 1 -231 75 -402 53 -123 84 -223 84 -269 0 -18 4 -33
10 -33 5 0 23 -20 40 -45 38 -56 74 -75 140 -75 l50 0 0 64 c0 73 12 115 50
171 15 22 39 64 54 93 27 54 46 67 46 32 0 -11 3 -20 8 -19 4 0 50 88 102 195
56 113 107 206 124 222 29 26 44 43 152 161 99 108 219 322 329 586 37 88 93
210 126 272 32 62 68 145 79 184 10 39 29 88 41 108 66 112 144 483 142 681
-1 200 -66 383 -173 490 -91 91 -248 160 -366 160 -87 0 -217 -28 -236 -51
-22 -25 -98 -39 -98 -18 0 37 36 155 52 171 18 18 34 65 25 74 -3 3 -21 -9
-41 -26z m-256 -3140 c0 -5 -4 -10 -10 -10 -5 0 -10 5 -10 10 0 6 5 10 10 10
6 0 10 -4 10 -10z"/>
<path d="M1325 10276 c-60 -41 -156 -139 -180 -185 l-17 -34 29 7 c95 24 243
158 243 222 0 32 -16 30 -75 -10z"/>
<path d="M1430 10150 c-11 -11 -20 -33 -20 -49 0 -19 -15 -47 -44 -82 -50 -61
-69 -106 -41 -96 9 4 21 7 26 7 20 0 92 76 125 133 33 56 34 61 19 83 -19 29
-39 30 -65 4z"/>
<path d="M7557 10033 c-2 -4 13 -64 34 -133 62 -200 58 -241 -51 -545 -32 -88
-61 -182 -65 -210 -8 -58 -24 -92 -55 -120 -13 -11 -31 -39 -41 -62 -25 -58
-96 -336 -104 -408 -4 -33 -18 -105 -31 -160 -27 -113 -50 -446 -40 -573 9
-108 41 -171 89 -172 21 0 21 2 1 65 -27 87 -29 260 -5 445 12 91 29 221 37
290 19 164 67 361 103 426 16 28 41 98 55 156 14 58 57 193 97 299 89 241 118
372 102 464 -6 36 -26 96 -43 134 -32 68 -73 121 -83 104z"/>
<path d="M1506 9979 c-20 -17 -55 -59 -80 -93 -25 -35 -61 -77 -80 -94 -38
-33 -118 -62 -173 -62 -38 0 -41 -9 -13 -35 27 -25 138 -17 199 15 62 31 131
105 174 188 57 108 45 145 -27 81z"/>
<path d="M4330 9775 c-33 -40 37 -221 125 -325 26 -30 120 -121 208 -201 119
-108 165 -144 175 -137 6 6 12 16 12 23 0 20 -76 118 -210 270 -68 77 -137
158 -153 180 -35 48 -82 139 -91 178 -7 31 -45 38 -66 12z"/>
<path d="M7950 9760 c-23 -44 37 -186 95 -224 26 -17 65 -22 65 -8 0 5 -11 19
-24 31 -20 19 -72 126 -99 204 -8 23 -24 22 -37 -3z"/>
<path d="M9469 9644 c-43 -36 -45 -36 -114 -32 -48 3 -90 13 -129 31 -32 15
-62 27 -67 27 -10 0 6 -57 26 -87 39 -59 141 -67 241 -18 54 26 104 75 104
101 0 22 -15 17 -61 -22z"/>
<path d="M1394 9643 c-20 -61 -85 -176 -148 -261 -39 -53 -95 -131 -123 -172
-28 -42 -59 -82 -68 -90 -39 -32 -295 -310 -295 -319 0 -19 34 -11 71 17 39
30 75 69 169 186 35 44 109 127 165 185 132 138 255 346 255 429 0 35 -17 52
-26 25z"/>
<path d="M9536 9518 c-68 -60 -113 -70 -211 -44 -32 8 -61 14 -63 12 -10 -10
32 -68 60 -82 96 -49 258 26 297 138 16 45 -16 36 -83 -24z"/>
<path d="M9750 9525 c0 -9 -9 -15 -25 -15 -20 0 -25 -5 -25 -25 0 -40 -121
-148 -221 -196 -108 -52 -145 -57 -243 -29 -43 12 -79 20 -82 18 -2 -2 6 -19
17 -37 37 -61 122 -83 228 -60 42 9 65 24 133 85 75 68 120 95 134 81 8 -8
-48 -130 -63 -140 -7 -4 -13 -21 -13 -37 0 -24 4 -30 21 -30 23 0 60 18 72 34
4 6 5 26 2 44 -3 18 -2 32 4 32 27 0 39 30 34 89 -5 53 -2 65 29 125 20 36 33
68 30 71 -11 11 -32 4 -32 -10z"/>
<path d="M5065 9480 c-3 -5 1 -23 9 -39 35 -68 189 -100 324 -67 37 8 98 20
136 25 65 9 106 31 106 55 0 8 -23 9 -77 4 -43 -4 -127 -10 -188 -14 -102 -6
-115 -5 -184 20 -79 27 -116 32 -126 16z"/>
<path d="M9830 9447 c0 -64 -67 -243 -119 -316 -43 -60 -62 -117 -50 -148 l10
-28 19 25 c27 35 123 222 154 298 31 79 42 143 27 171 -16 28 -41 27 -41 -2z"/>
<path d="M7770 9422 c-59 -59 -47 -196 41 -492 30 -102 31 -109 24 -235 -6
-121 -5 -132 15 -164 27 -43 42 -29 27 26 -11 43 -10 46 28 113 8 13 10 27 5
30 -4 3 -3 16 4 28 14 27 8 59 -50 257 -48 165 -52 203 -38 325 7 58 13 113
13 123 1 27 -37 21 -69 -11z"/>
<path d="M1172 9154 c-12 -8 -46 -61 -74 -117 -64 -128 -114 -204 -139 -212
-22 -7 -55 -52 -46 -62 15 -15 74 26 122 84 41 50 185 298 185 318 0 10 -27 4
-48 -11z"/>
<path d="M8122 9093 c-44 -21 -78 -68 -103 -139 -29 -80 -22 -152 26 -274 45
-118 56 -209 31 -275 -22 -55 -90 -124 -161 -162 -45 -23 -59 -37 -80 -80 -38
-79 -41 -107 -15 -133 19 -19 31 -22 84 -18 86 5 145 37 311 166 162 127 219
185 234 238 33 120 -18 267 -146 417 -123 146 -125 149 -119 187 3 19 8 47 12
63 6 24 3 27 -17 27 -13 0 -39 -8 -57 -17z"/>
<path d="M9897 8973 c-97 -140 -152 -197 -267 -276 -166 -114 -252 -186 -248
-205 6 -27 62 -19 102 14 155 131 303 264 346 312 99 110 148 202 109 202 -5
0 -24 -21 -42 -47z"/>
<path d="M4379 8814 c-11 -13 -1 -26 68 -89 103 -95 141 -168 184 -354 39
-170 56 -214 130 -336 93 -154 153 -287 197 -441 40 -139 88 -251 157 -369 19
-33 55 -123 80 -199 29 -91 60 -164 89 -210 24 -39 70 -118 101 -176 32 -58
70 -121 85 -140 15 -19 33 -47 41 -61 22 -41 190 -191 260 -231 72 -43 113
-48 129 -17 7 11 10 22 8 24 -2 2 -37 26 -79 54 -172 114 -288 280 -439 626
-100 230 -158 389 -245 681 -81 271 -142 431 -268 699 -104 223 -278 460 -397
539 -31 20 -84 21 -101 0z"/>
<path d="M1073 8768 c-11 -13 -54 -75 -96 -138 -41 -64 -96 -141 -122 -173
-32 -40 -41 -57 -30 -57 36 0 74 33 125 107 30 43 76 104 102 136 65 78 83
114 67 133 -16 19 -22 18 -46 -8z"/>
<path d="M9881 8758 c-17 -17 -61 -90 -98 -162 -96 -186 -239 -351 -416 -480
-76 -56 -88 -76 -43 -76 47 0 143 73 304 233 228 226 300 331 310 454 6 75 -7
82 -57 31z"/>
<path d="M7684 8647 c-3 -8 7 -49 20 -93 14 -43 26 -94 26 -113 0 -19 -20 -77
-45 -133 -45 -100 -132 -409 -120 -428 12 -20 22 -9 39 48 10 31 35 91 56 132
38 76 112 299 125 377 5 35 2 49 -19 85 -20 35 -24 52 -19 82 4 27 2 41 -8 47
-21 13 -49 11 -55 -4z"/>
<path d="M1103 8442 c2 -164 1 -168 -29 -249 -24 -66 -42 -95 -87 -142 -60
-62 -69 -81 -39 -81 49 0 123 78 167 175 59 131 75 323 35 408 -12 25 -28 48
-35 51 -11 4 -13 -25 -12 -162z"/>
<path d="M9785 8353 c-40 -107 -123 -211 -234 -292 -69 -51 -199 -120 -266
-141 -57 -18 -63 -28 -21 -35 74 -14 166 24 326 138 105 74 153 119 190 177
31 49 64 159 54 184 -11 29 -31 17 -49 -31z"/>
<path d="M7118 8363 c-26 -30 -45 -75 -74 -174 -15 -52 -48 -143 -74 -204
-117 -276 -115 -269 -135 -393 -11 -66 -16 -134 -13 -188 4 -76 9 -92 50 -172
25 -48 62 -127 83 -175 28 -64 42 -87 54 -85 30 6 24 50 -19 132 -26 52 -46
108 -54 156 -8 41 -19 103 -27 137 -11 56 -11 67 4 98 9 20 17 53 17 74 0 22
9 67 19 102 11 35 23 82 26 104 4 22 26 96 50 165 77 220 143 429 137 435 -10
10 -29 5 -44 -12z"/>
<path d="M4378 8124 c-125 -27 -292 -92 -510 -199 -149 -73 -226 -117 -244
-137 -19 -24 -22 -33 -12 -39 27 -17 67 -8 156 36 117 58 170 71 367 90 209
20 377 42 427 55 22 6 56 26 75 44 l36 32 -21 47 c-36 82 -122 104 -274 71z"/>
<path d="M9585 7897 c-137 -144 -277 -214 -531 -267 -112 -23 -93 -35 51 -35
86 1 110 5 170 30 83 34 171 85 279 163 85 61 130 111 140 155 6 23 3 27 -16
27 -15 0 -46 -24 -93 -73z"/>
<path d="M1097 7905 c-37 -58 -78 -92 -153 -126 -69 -31 -124 -74 -124 -95 0
-8 3 -14 8 -14 4 0 58 25 121 56 120 59 186 113 210 172 12 29 12 35 0 43 -24
15 -33 10 -62 -36z"/>
<path d="M1039 7651 c-88 -46 -120 -56 -257 -75 -115 -16 -143 -29 -117 -55
26 -26 90 -17 255 38 151 51 210 84 210 118 0 19 -10 17 -91 -26z"/>
<path d="M1186 7665 c-11 -11 -15 -36 -14 -93 1 -98 -28 -192 -77 -249 -26
-30 -56 -50 -112 -73 -78 -32 -113 -55 -113 -73 0 -16 72 2 147 39 52 25 87
51 127 96 49 54 56 58 56 37 0 -13 -11 -41 -25 -61 -54 -79 -27 -112 42 -53
50 42 78 108 70 161 -8 47 -10 49 -41 28 -15 -9 -28 -15 -31 -13 -2 2 5 40 16
84 10 44 19 98 19 121 0 58 -31 82 -64 49z"/>
<path d="M8633 7458 c7 -73 96 -335 133 -391 24 -37 77 -77 102 -77 24 0 11
44 -30 98 -43 57 -57 102 -76 245 l-9 69 31 -6 c223 -46 432 -54 523 -23 51
18 88 51 77 69 -9 14 -98 9 -242 -13 -171 -27 -233 -19 -373 46 -52 25 -106
45 -119 45 -22 0 -23 -2 -17 -62z"/>
<path d="M6790 7274 c0 -8 -10 -34 -21 -57 -33 -64 -43 -177 -23 -262 9 -38
23 -77 30 -85 7 -9 20 -33 29 -53 9 -23 26 -42 41 -47 33 -13 94 -13 94 0 0 5
-21 33 -48 62 -42 48 -50 63 -71 152 -22 90 -23 106 -13 180 6 44 13 88 17 97
4 11 0 18 -14 22 -14 3 -21 0 -21 -9z"/>
<path d="M1280 7223 c-1 -33 -36 -98 -103 -186 -69 -92 -72 -115 -8 -82 40 20
85 81 126 170 48 104 49 115 14 115 -21 0 -29 -5 -29 -17z"/>
<path d="M9090 7219 c-111 -40 -109 -40 -168 -19 -31 11 -57 18 -60 16 -10
-10 11 -65 32 -85 48 -45 130 -43 193 5 33 25 67 78 61 94 -2 5 -28 0 -58 -11z"/>
<path d="M1400 7004 c-14 -9 -44 -43 -68 -75 -36 -50 -54 -65 -107 -89 -71
-32 -104 -70 -61 -70 84 0 217 94 265 187 33 65 24 80 -29 47z"/>
<path d="M6668 6983 c-32 -37 -57 -102 -96 -253 -52 -200 -56 -236 -38 -340
30 -166 114 -430 137 -430 4 0 13 18 19 40 14 53 0 130 -49 268 -72 201 -73
245 -11 446 16 52 34 123 40 157 6 35 20 74 31 88 15 19 17 26 7 33 -18 11
-23 10 -40 -9z"/>
<path d="M8589 6959 c-32 -62 -31 -188 1 -274 30 -76 141 -195 183 -195 36 0
34 9 -9 51 -61 57 -94 144 -108 284 -7 69 -19 133 -28 149 l-16 30 -23 -45z"/>
<path d="M8725 6974 c-20 -21 -13 -46 35 -110 65 -86 242 -204 308 -204 34 0
62 18 62 39 0 13 -13 21 -52 30 -105 23 -240 126 -287 219 -23 45 -40 52 -66
26z"/>
<path d="M7427 6974 c-3 -4 0 -16 8 -28 12 -16 15 -60 15 -214 0 -206 10 -262
47 -262 16 0 18 12 19 123 1 80 7 139 17 170 15 47 15 50 -9 97 -13 26 -27 62
-30 78 -4 19 -14 32 -28 36 -27 7 -31 7 -39 0z"/>
<path d="M8438 6833 c-28 -32 -47 -79 -77 -190 -17 -59 -41 -139 -54 -178 -34
-95 -87 -361 -94 -465 -4 -56 0 -122 11 -195 22 -141 22 -141 65 -189 20 -23
49 -58 64 -78 l28 -38 -26 0 c-34 0 -65 -17 -65 -35 0 -27 198 -13 215 16 3 4
-28 41 -68 81 -84 84 -121 150 -144 266 -12 57 -13 80 -4 94 8 13 8 29 -1 63
-16 60 -3 131 67 365 116 384 145 554 83 483z"/>
<path d="M1341 6748 c-20 -23 -62 -67 -93 -98 -73 -70 -81 -107 -12 -58 63 45
159 133 184 169 l21 29 -32 0 c-26 0 -40 -9 -68 -42z"/>
<path d="M1351 6635 c-53 -77 -81 -139 -81 -182 0 -22 2 -24 16 -12 9 7 31 43
50 80 18 37 47 89 64 115 16 26 30 54 30 61 0 32 -31 7 -79 -62z"/>
<path d="M1397 6548 c-57 -76 -95 -196 -68 -212 8 -5 28 28 60 96 27 57 52
113 55 126 11 34 -18 28 -47 -10z"/>
<path d="M2960 6554 c-14 -2 -65 -9 -115 -15 -151 -18 -280 -55 -410 -118
-143 -69 -205 -106 -205 -125 0 -20 56 -40 114 -39 28 0 146 4 261 8 253 9
315 2 531 -60 226 -65 272 -67 449 -17 189 54 268 69 410 77 257 14 576 -34
906 -135 52 -16 138 -39 191 -49 156 -33 224 -76 244 -156 21 -89 101 -175
161 -175 43 0 73 16 73 37 0 22 -134 196 -182 238 -21 18 -100 59 -176 92 -75
34 -186 83 -247 111 -124 57 -511 205 -655 250 -151 48 -236 64 -370 69 -105
4 -148 1 -270 -21 -178 -32 -260 -32 -419 -1 -126 25 -246 37 -291 29z"/>
<path d="M1495 6465 c6 -61 5 -68 -24 -115 -33 -53 -49 -100 -34 -100 20 0 55
34 75 73 15 30 23 66 26 125 l5 82 -28 0 -27 0 7 -65z"/>
<path d="M8494 6509 c-41 -45 -14 -203 58 -341 17 -31 38 -64 47 -72 15 -14
14 1 -11 111 -16 71 -31 172 -35 226 -5 82 -8 97 -23 97 -9 0 -25 -9 -36 -21z"/>
<path d="M6447 6430 c-36 -29 -51 -101 -44 -224 3 -56 11 -117 18 -136 22 -63
158 -260 179 -260 18 0 17 4 -10 68 -15 37 -47 107 -70 156 -55 118 -62 159
-44 275 22 149 20 159 -29 121z"/>
<path d="M8360 6175 c-7 -9 -15 -38 -18 -64 -3 -39 1 -62 22 -107 43 -94 99
-161 146 -175 35 -11 43 -10 57 4 14 14 14 19 -10 60 -15 25 -56 72 -92 105
-65 59 -65 59 -65 114 0 62 -18 90 -40 63z"/>
<path d="M2440 6158 c0 -28 42 -80 87 -109 74 -46 208 -82 433 -114 63 -9 181
-29 262 -46 268 -54 306 -52 663 37 227 56 286 80 239 98 -29 11 -62 6 -181
-28 -281 -80 -490 -93 -681 -43 -57 15 -165 36 -240 47 -243 34 -375 70 -480
131 -68 40 -102 49 -102 27z"/>
<path d="M8106 5536 c-11 -46 23 -105 78 -133 37 -19 171 -30 180 -14 5 7 -1
11 -16 11 -46 0 -122 46 -171 103 -27 32 -52 57 -57 57 -4 0 -11 -11 -14 -24z"/>
<path d="M7950 5401 c0 -27 35 -68 83 -95 45 -26 142 -58 150 -49 12 11 -18
53 -59 82 -46 33 -141 81 -161 81 -7 0 -13 -8 -13 -19z"/>
<path d="M7530 5315 c0 -33 75 -154 100 -163 14 -5 51 -31 83 -56 32 -26 71
-51 87 -56 52 -15 36 17 -48 99 -44 42 -94 95 -111 119 -45 58 -111 92 -111
57z"/>
<path d="M7820 5295 c-15 -18 -15 -17 30 -40 47 -23 88 -63 110 -106 25 -48
47 -66 62 -51 26 26 -47 155 -108 192 -38 24 -77 26 -94 5z"/>
<path d="M6746 5213 c19 -111 125 -264 220 -319 48 -28 144 -67 150 -61 11 11
-45 61 -92 84 -39 18 -64 40 -91 77 -20 28 -49 65 -64 83 -15 17 -35 55 -44
85 -20 61 -40 88 -67 88 -16 0 -18 -5 -12 -37z"/>
<path d="M7285 5186 c51 -168 146 -257 251 -236 158 33 166 36 150 49 -12 10
-35 12 -84 7 -90 -8 -128 13 -199 114 -58 83 -86 110 -113 110 -17 0 -17 -3
-5 -44z"/>
<path d="M7000 5184 c-16 -41 -12 -56 29 -108 81 -102 214 -194 304 -211 80
-15 26 47 -90 103 -43 20 -94 54 -115 75 -34 36 -68 109 -68 149 0 30 -48 24
-60 -8z"/>
<path d="M1508 4667 c-53 -18 -110 -42 -125 -53 -51 -38 -703 -215 -914 -249
-331 -53 -417 -75 -453 -114 -25 -28 -7 -55 51 -78 60 -23 190 -22 318 1 248
46 647 169 776 240 35 19 127 60 204 92 227 92 315 142 315 179 0 24 -65 17
-172 -18z"/>
<path d="M8863 3624 c-14 -37 136 -204 267 -296 36 -25 132 -87 213 -137 119
-74 171 -100 268 -132 184 -62 335 -84 375 -55 29 22 11 33 -123 78 -129 43
-575 252 -664 311 -31 21 -102 78 -158 127 -88 78 -146 120 -166 120 -3 0 -8
-7 -12 -16z"/>
<path d="M5611 2084 c0 -11 3 -14 6 -6 3 7 2 16 -1 19 -3 4 -6 -2 -5 -13z"/>
</g>
</svg>
