<?xml version="1.0" standalone="no"?>
<!DOCTYPE svg PUBLIC "-//W3C//DTD SVG 20010904//EN"
 "http://www.w3.org/TR/2001/REC-SVG-20010904/DTD/svg10.dtd">
<svg version="1.0" xmlns="http://www.w3.org/2000/svg"
 width="1123.000000pt" height="1280.000000pt" viewBox="0 0 1123.000000 1280.000000"
 preserveAspectRatio="xMidYMid meet">
<metadata>
Created by potrace 1.15, written by Peter Selinger 2001-2017
</metadata>
<g transform="translate(0.000000,1280.000000) scale(0.100000,-0.100000)"
fill="#000000" stroke="none">
<path d="M1864 12774 c-11 -45 10 -281 32 -356 4 -12 -2 -19 -20 -24 -23 -5
-26 -12 -28 -53 -2 -81 3 -153 23 -286 30 -203 25 -309 -17 -373 l-17 -26 -8
22 c-17 45 -28 20 -31 -70 -3 -92 5 -365 17 -569 l6 -105 -25 -12 c-34 -15
-40 -46 -21 -117 10 -39 15 -104 15 -190 0 -126 -16 -364 -24 -373 -3 -2 -17
6 -33 18 -19 13 -36 18 -47 14 -29 -11 -15 -100 27 -182 32 -62 35 -76 41
-190 6 -117 17 -190 66 -457 11 -60 23 -163 27 -227 5 -107 4 -118 -11 -118
-10 0 -21 13 -28 31 -8 25 -15 30 -37 27 -24 -3 -26 -7 -29 -51 -2 -31 2 -57
12 -72 10 -15 11 -26 4 -33 -16 -16 -13 -80 10 -192 11 -58 30 -163 42 -234
26 -166 52 -252 95 -316 31 -46 34 -56 26 -90 -18 -80 19 -196 85 -269 28 -31
34 -45 25 -50 -9 -6 -10 -17 -3 -42 11 -41 6 -60 -14 -52 -7 3 -17 -2 -20 -11
-10 -26 -23 -19 -40 22 -58 136 -216 683 -223 777 -6 65 -8 70 -33 79 -15 5
-30 7 -33 4 -10 -9 15 -248 36 -345 24 -111 81 -283 164 -493 67 -170 98 -256
130 -363 20 -69 21 -78 7 -72 -44 17 -113 28 -121 19 -14 -15 37 -219 85 -344
25 -63 93 -207 151 -320 145 -279 198 -387 219 -448 l18 -51 -23 -20 c-24 -21
-24 -21 -8 -78 9 -32 30 -125 47 -208 18 -82 43 -177 57 -210 48 -114 73 -186
73 -208 0 -13 9 -26 21 -32 16 -7 27 -29 40 -84 10 -40 48 -135 84 -210 58
-123 95 -234 82 -247 -3 -3 -13 17 -22 45 -17 51 -45 81 -77 81 -14 0 -16 -7
-11 -37 9 -67 24 -106 78 -203 29 -52 124 -234 210 -405 87 -170 175 -340 197
-377 21 -37 61 -113 89 -170 28 -56 112 -201 187 -323 232 -378 243 -395 269
-458 15 -34 34 -71 42 -83 9 -11 83 -110 165 -220 221 -296 240 -317 316 -365
52 -32 73 -52 87 -83 10 -22 53 -81 95 -131 43 -49 86 -110 95 -135 12 -31 44
-72 107 -135 165 -163 336 -368 336 -400 0 -13 -182 156 -350 325 -127 127
-182 190 -238 274 -39 60 -72 112 -72 115 0 3 -20 14 -44 24 -33 14 -53 32
-81 75 -21 31 -86 120 -145 197 -153 202 -203 275 -339 503 -67 112 -140 229
-163 260 -53 72 -165 192 -172 184 -19 -18 -2 -69 39 -124 25 -33 45 -70 45
-82 0 -13 18 -42 42 -67 23 -24 60 -83 84 -134 24 -49 64 -115 90 -145 59 -69
106 -142 154 -239 24 -49 47 -82 64 -91 15 -7 65 -68 111 -134 114 -163 230
-311 385 -491 175 -203 284 -313 419 -419 72 -58 119 -103 131 -127 22 -43 71
-80 235 -179 216 -131 290 -155 335 -110 11 11 20 24 20 29 0 8 -46 29 -188
85 -76 30 -168 95 -242 170 -30 31 -52 56 -48 56 3 0 50 -30 105 -66 202 -135
393 -210 566 -221 l97 -6 0 25 c0 35 18 47 89 59 59 11 61 12 61 41 0 49 17
66 109 113 89 44 131 82 131 116 0 14 -7 19 -30 19 -40 0 -38 13 4 28 56 21
115 70 151 127 20 31 71 84 119 124 94 79 122 117 135 186 5 26 13 50 17 55
31 28 259 213 304 247 30 22 80 54 110 71 54 30 159 66 168 58 2 -3 -4 -18
-14 -35 -20 -35 -61 -64 -150 -109 -68 -34 -91 -57 -103 -99 -16 -56 -4 -59
111 -33 57 13 139 24 183 26 49 2 96 9 120 20 32 14 82 19 250 24 l210 6 90
38 c215 90 245 100 391 127 84 15 175 37 202 49 47 20 54 28 89 97 51 101 58
106 114 90 146 -45 253 -139 289 -253 17 -58 26 -114 17 -114 -1 0 -20 9 -42
20 -22 11 -45 20 -51 20 -7 0 -22 -28 -33 -62 -28 -85 -56 -128 -82 -128 -11
0 -19 3 -17 8 35 68 59 124 64 150 6 28 4 32 -14 32 -11 0 -22 7 -26 15 -16
42 -96 -8 -163 -103 -96 -136 -134 -179 -182 -206 -27 -14 -51 -26 -54 -26 -3
0 -7 15 -9 32 l-3 33 -95 -1 c-112 -1 -173 -18 -348 -97 -151 -68 -246 -131
-319 -211 -53 -58 -62 -64 -107 -69 -52 -5 -79 -27 -69 -54 4 -9 16 -13 34
-11 33 3 34 2 19 -37 -15 -40 -25 -45 -102 -45 -58 0 -69 -3 -82 -22 -28 -40
-21 -48 43 -48 33 0 62 -4 65 -8 3 -5 -6 -25 -20 -46 -16 -23 -23 -44 -19 -56
13 -42 62 -12 106 64 36 66 56 84 98 92 l33 7 -41 -76 c-49 -88 -66 -137 -48
-137 28 0 84 52 116 106 73 125 95 155 122 169 30 16 89 20 89 7 0 -16 -45
-51 -92 -72 -45 -20 -46 -21 -35 -50 10 -25 8 -32 -11 -53 -12 -13 -22 -32
-22 -42 0 -16 7 -17 73 -12 83 7 174 34 267 82 l66 33 -4 -69 c-5 -79 -9 -76
88 -53 36 8 79 12 97 9 27 -5 34 -1 52 24 37 51 170 135 187 118 8 -7 -42 -97
-141 -257 -101 -163 -140 -240 -120 -240 33 0 104 82 151 173 26 51 74 135
107 187 78 122 322 604 372 735 21 55 42 104 45 108 11 12 87 -70 111 -119 21
-45 21 -45 1 -67 -11 -12 -43 -66 -72 -119 -51 -96 -80 -135 -65 -87 21 64 0
74 -50 24 -26 -27 -94 -154 -248 -463 -117 -234 -214 -430 -216 -435 -7 -19
58 24 86 56 16 19 75 126 131 238 55 112 112 218 127 234 l25 30 -26 -60 c-14
-33 -56 -137 -94 -231 -90 -226 -130 -311 -185 -393 -57 -86 -165 -189 -236
-225 -56 -27 -76 -21 -44 14 16 18 15 51 -2 50 -4 -1 -39 -39 -78 -86 -139
-169 -259 -264 -334 -264 -14 0 -55 10 -92 22 -64 20 -69 21 -93 4 -46 -30
-33 -49 42 -58 38 -5 26 -22 -22 -32 -66 -13 -138 6 -233 63 -104 63 -123 69
-123 41 0 -46 -27 -68 -102 -84 -29 -7 -34 1 -29 51 1 20 -2 22 -28 17 -21 -4
-42 1 -70 17 -46 25 -56 21 -56 -24 0 -30 -3 -32 -40 -37 -22 -4 -50 -11 -62
-18 -12 -7 -38 -12 -58 -12 -31 0 -47 10 -106 63 l-70 64 -47 -24 c-59 -30
-98 -26 -201 22 -40 19 -75 35 -77 35 -2 0 -4 -13 -4 -28 0 -17 10 -38 25 -52
31 -30 19 -40 -48 -40 -74 0 -112 24 -232 145 -111 111 -197 171 -203 141 -6
-27 27 -74 78 -111 54 -40 77 -72 63 -86 -5 -5 -44 -18 -87 -29 l-78 -20 -111
105 c-104 99 -112 104 -120 83 -5 -13 -4 -32 2 -46 16 -34 14 -42 -14 -42 -13
0 -56 -5 -95 -12 l-70 -12 -46 44 c-25 25 -113 124 -194 220 -177 209 -196
228 -212 212 -10 -10 -9 -19 1 -45 7 -17 15 -42 18 -54 3 -12 13 -25 23 -28
27 -9 80 -72 86 -104 4 -19 17 -33 40 -45 23 -10 49 -39 79 -85 25 -38 53 -72
63 -76 26 -8 65 -51 58 -63 -7 -12 -94 -32 -137 -32 -38 0 -203 139 -253 214
l-34 51 28 3 c34 4 55 25 46 48 -5 14 -17 16 -74 10 l-68 -7 -64 108 c-71 118
-118 176 -163 199 -28 15 -29 15 -22 -8 14 -43 53 -113 97 -173 48 -66 88
-129 88 -139 0 -3 -27 -6 -60 -6 -58 0 -60 1 -73 32 -8 18 -32 56 -55 84 -22
28 -57 84 -76 123 -30 59 -40 71 -61 71 -35 0 -33 -37 5 -85 18 -22 30 -50 30
-66 l0 -29 -77 1 c-141 1 -195 37 -312 207 -78 115 -130 170 -145 155 -14 -14
-4 -50 24 -87 46 -61 42 -70 -32 -62 -35 3 -93 9 -129 12 l-66 7 -31 57 c-18
32 -32 60 -32 63 0 3 25 7 56 9 42 2 60 8 68 21 17 28 -8 37 -104 37 l-85 0
-25 52 c-14 29 -36 59 -49 67 -24 15 -24 15 -17 -19 15 -75 15 -75 -29 -74
-22 1 -62 3 -90 5 l-50 4 -42 85 c-23 47 -45 98 -48 114 l-6 29 93 -6 c51 -3
123 -15 161 -26 l67 -20 0 22 c0 13 -7 32 -15 44 -26 37 -79 48 -212 46 -84
-1 -124 2 -131 10 -6 7 -22 42 -37 79 -15 37 -33 72 -41 79 -8 7 -14 30 -14
55 0 47 -37 103 -58 90 -20 -12 -13 -62 23 -175 19 -59 35 -111 35 -114 0 -9
-104 -8 -155 1 -38 7 -40 9 -47 52 -4 25 -9 57 -12 71 l-5 26 44 -16 c36 -13
47 -13 57 -3 20 20 -1 43 -75 82 -93 48 -110 84 -101 207 6 86 6 88 -17 98
-19 8 -26 22 -35 66 -14 68 -20 79 -44 79 -28 0 -33 -16 -19 -55 28 -76 -20
-65 -186 44 -71 46 -81 57 -92 96 -11 37 -17 43 -45 48 -45 6 -55 0 -69 -37
-14 -38 -84 -87 -159 -112 -37 -12 -69 -15 -116 -11 -152 14 -266 116 -283
252 -7 60 -30 68 -47 15 -15 -46 -27 -47 -59 -6 -38 50 -60 116 -85 247 -24
129 -38 179 -50 179 -5 0 -16 -7 -24 -16 -20 -19 -20 -76 -2 -174 16 -80 10
-103 -21 -84 -37 23 -55 65 -82 197 -29 137 -49 187 -76 187 -30 0 -30 -159 1
-234 6 -17 4 -18 -22 -12 -40 10 -82 52 -107 106 -18 38 -21 65 -21 166 l0
121 -29 21 c-57 40 -70 11 -61 -140 l6 -103 -31 32 c-46 49 -55 97 -53 278 2
148 1 163 -19 195 -20 32 -22 33 -35 16 -19 -26 -28 -115 -20 -206 7 -79 -7
-172 -24 -154 -4 5 -23 52 -43 104 -57 156 -122 297 -302 655 -94 187 -192
388 -217 447 l-46 106 39 38 c22 21 39 46 39 56 0 10 -15 35 -34 55 -51 58
-61 82 -43 101 21 20 43 10 52 -25 8 -35 23 -53 43 -53 13 0 14 14 9 96 -6
110 5 200 33 255 30 57 36 54 32 -15 -5 -71 10 -96 57 -96 l28 0 -11 50 c-7
38 -6 71 7 146 10 53 20 101 23 106 3 5 17 2 31 -7 13 -9 29 -15 35 -13 6 2
19 50 28 105 16 92 52 193 69 193 3 0 38 22 75 50 71 51 121 69 138 52 10 -10
-7 -26 -119 -112 -55 -42 -93 -101 -93 -145 0 -23 4 -26 27 -23 21 2 39 19 78
76 76 112 172 182 247 182 68 0 65 -16 -9 -54 -39 -19 -80 -47 -91 -61 -20
-25 -38 -82 -30 -90 2 -2 56 31 120 75 108 73 165 100 212 100 14 0 10 -6 -15
-23 -35 -24 -72 -81 -85 -131 -7 -28 -6 -29 22 -22 35 9 64 35 110 98 37 50
61 63 108 59 64 -4 65 -16 4 -73 -52 -48 -78 -89 -78 -121 0 -7 23 -25 50 -40
41 -23 54 -26 65 -17 21 17 20 64 0 56 -8 -3 -22 -9 -30 -12 -42 -17 5 80 56
117 l29 20 76 -35 c88 -42 91 -54 24 -103 -99 -74 -113 -87 -127 -120 -8 -19
-13 -37 -11 -39 14 -13 91 30 150 83 38 34 78 65 87 68 11 3 43 -9 78 -29 34
-18 90 -43 127 -56 36 -12 66 -24 66 -27 0 -2 -49 -55 -108 -117 -85 -87 -112
-123 -125 -161 -25 -73 -23 -89 10 -80 39 9 51 22 63 65 18 66 196 222 370
324 57 34 64 35 80 21 11 -10 36 -15 73 -15 58 0 69 -8 42 -30 -22 -18 -18
-30 10 -30 38 0 75 21 91 51 16 32 19 79 4 79 -19 0 -41 48 -51 111 -14 92
-17 99 -45 99 -13 0 -41 15 -63 35 -21 19 -49 36 -62 38 -16 3 -25 11 -27 28
-2 13 -15 60 -28 103 -21 67 -24 91 -18 148 7 73 -5 122 -34 133 -20 7 -29 -8
-42 -72 -12 -56 -20 -66 -43 -57 -13 5 -15 39 -12 252 2 136 7 328 11 426 l6
179 -23 18 -24 18 19 48 c27 68 31 107 13 121 -12 10 -19 7 -41 -18 -38 -45
-63 -140 -86 -323 -36 -284 -80 -512 -111 -581 -11 -24 -12 -24 -32 -6 -23 22
-22 45 14 315 11 83 26 204 34 270 9 82 23 146 44 203 17 46 31 101 31 122 0
39 -20 70 -45 70 -15 0 -35 -58 -35 -103 0 -16 -6 -38 -12 -50 -11 -19 -14
-13 -19 57 -4 69 -8 82 -31 101 -25 21 -26 28 -21 78 7 70 -9 84 -48 38 -31
-38 -69 -148 -94 -271 -21 -105 -49 -182 -75 -205 -20 -18 -20 -17 -20 24 0
23 9 102 20 174 10 73 20 157 22 187 3 50 1 55 -19 58 -14 2 -23 10 -23 22 0
28 43 164 93 293 46 118 72 214 81 295 5 50 -8 55 -46 15 -37 -40 -52 -75 -83
-188 -15 -55 -34 -113 -43 -130 l-17 -30 -3 55 c-3 54 -15 80 -36 80 -7 0 -12
-29 -12 -83 -1 -58 -10 -105 -28 -162 l-26 -80 21 -28 c20 -27 20 -30 5 -62
-9 -19 -21 -60 -27 -92 -15 -88 -27 -113 -55 -113 -33 0 -31 30 3 70 24 29 25
33 10 42 -22 12 -21 29 3 97 16 44 60 263 73 361 1 11 -9 15 -38 16 -22 0 -43
2 -48 2 -4 1 1 19 11 40 11 20 33 82 50 138 18 56 45 119 62 142 24 34 30 52
30 94 1 53 13 96 65 218 33 76 44 140 25 140 -22 0 -85 -75 -102 -121 -9 -24
-32 -96 -52 -159 -23 -75 -45 -127 -64 -150 -19 -23 -34 -57 -42 -95 -18 -90
-46 -177 -98 -310 l-47 -120 -3 90 c-6 173 26 315 148 659 71 201 120 355 120
378 0 18 -40 6 -61 -18 -62 -69 -71 -76 -89 -71 -15 4 -22 -4 -35 -44 -12 -34
-25 -52 -43 -61 -17 -8 -28 -23 -30 -38 -6 -51 -24 -89 -43 -95 -11 -4 -23 -4
-26 -2 -11 12 30 108 102 237 41 74 84 164 96 200 12 36 34 79 49 95 35 38 51
70 85 175 34 105 65 167 121 246 53 75 74 122 74 169 0 43 -14 45 -61 5 -36
-29 -50 -56 -115 -225 -15 -38 -64 -131 -109 -206 -45 -75 -90 -162 -100 -195
-13 -42 -30 -70 -60 -99 -34 -32 -44 -51 -54 -100 -16 -73 -50 -141 -86 -175
l-27 -25 7 35 c18 91 63 215 144 397 52 118 97 234 110 288 14 56 35 112 57
148 52 84 47 148 -9 134 -29 -8 -44 -38 -57 -122 -17 -107 -30 -119 -62 -55
-16 31 -16 37 -3 55 28 37 73 130 86 175 8 30 31 64 66 102 61 65 99 143 108
220 l6 53 -66 -68 c-84 -86 -129 -156 -251 -388 -53 -101 -109 -202 -124 -224
-15 -22 -28 -52 -28 -67 0 -15 -12 -48 -28 -74 -50 -80 -54 -90 -85 -209 -17
-64 -39 -137 -50 -162 -21 -49 -75 -123 -90 -123 -5 0 -9 26 -9 58 0 43 8 73
31 122 l30 65 -20 16 c-12 10 -21 20 -21 23 0 6 43 99 155 331 24 50 61 110
81 134 22 25 54 83 75 136 46 114 100 210 245 436 62 97 132 211 155 253 43
80 112 246 105 253 -2 2 -20 -3 -40 -11 -40 -16 -73 -63 -82 -116 -4 -19 -23
-54 -43 -76 -20 -23 -61 -88 -91 -145 -34 -63 -75 -122 -107 -155 -36 -36 -54
-64 -59 -89 -3 -20 -17 -49 -30 -63 -20 -23 -25 -25 -33 -12 -9 12 -11 12 -17
-3 -3 -10 -4 -29 -1 -42 2 -14 0 -28 -4 -31 -5 -3 -9 14 -9 38 0 35 10 60 51
126 28 46 55 96 59 113 7 25 6 29 -10 29 -32 0 -86 -56 -125 -132 -21 -40 -49
-92 -62 -116 l-25 -42 -20 26 c-25 31 -35 8 132 304 174 309 258 444 284 456
11 5 34 33 49 62 l28 52 -22 0 c-39 0 -107 -40 -147 -85 -21 -24 -62 -88 -91
-142 -29 -54 -63 -111 -76 -127 l-24 -30 -12 27 c-10 23 -8 32 19 74 16 26 33
64 37 83 20 97 68 183 181 325 119 151 168 226 188 293 l7 22 -36 -21 c-20
-12 -60 -48 -88 -81 -56 -63 -129 -118 -158 -118 -10 0 -24 -10 -30 -22 -6
-12 -31 -46 -55 -75 -24 -30 -44 -61 -44 -70 0 -9 -17 -33 -37 -54 -21 -20
-50 -52 -65 -71 -19 -23 -30 -30 -37 -23 -18 18 75 147 214 298 70 75 133 137
139 137 7 0 21 9 31 20 10 11 22 20 27 20 5 0 48 41 96 91 47 50 113 112 147
137 33 26 68 56 77 67 19 22 24 95 7 95 -34 0 -90 -44 -177 -138 -68 -74 -144
-140 -257 -225 -230 -173 -304 -252 -409 -434 -110 -191 -213 -469 -301 -808
-45 -176 -178 -615 -250 -825 -20 -58 -51 -161 -70 -230 -18 -69 -49 -180 -69
-248 -27 -94 -38 -154 -46 -257 -13 -168 2 -409 26 -436 9 -10 23 -55 30 -101
21 -121 45 -195 139 -428 47 -114 89 -225 95 -247 5 -21 25 -84 45 -140 24
-71 38 -138 46 -215 9 -76 18 -119 29 -133 18 -21 25 -49 70 -266 16 -74 35
-152 44 -172 l15 -37 -57 -102 c-31 -56 -78 -124 -103 -152 -36 -40 -48 -64
-58 -111 -19 -85 -67 -176 -153 -285 -138 -177 -179 -249 -198 -348 -26 -130
2 -231 146 -532 51 -107 103 -225 114 -261 16 -48 29 -70 46 -78 29 -13 101
-153 209 -407 80 -188 150 -327 210 -417 25 -38 53 -63 98 -89 34 -21 172
-111 306 -202 224 -152 249 -171 307 -245 146 -182 315 -301 473 -332 86 -16
146 -7 238 39 85 43 133 58 133 43 0 -6 25 -74 56 -152 30 -78 62 -173 71
-211 9 -37 20 -68 25 -68 21 0 129 -113 182 -190 197 -286 493 -554 864 -784
271 -168 627 -354 747 -390 44 -13 152 -51 240 -83 299 -111 383 -132 595
-143 106 -5 239 -21 373 -44 114 -20 260 -41 325 -47 138 -14 550 -7 902 16
302 19 827 72 905 91 82 20 204 80 300 149 81 57 435 293 496 330 42 25 120
121 165 204 20 36 62 129 95 209 68 163 119 268 160 329 16 23 29 55 29 70 0
84 75 300 158 455 l46 87 44 -40 c57 -53 102 -71 184 -72 l68 -1 0 -33 c0 -37
0 -37 72 -22 100 21 152 61 260 195 30 38 74 87 97 109 23 22 49 55 57 74 8
18 30 51 49 72 19 22 35 50 35 62 0 13 12 34 26 48 120 110 315 435 402 669
31 85 35 106 37 205 l2 110 95 215 c53 118 119 265 147 325 36 78 51 122 51
153 0 31 12 65 40 120 65 125 100 280 145 642 29 227 37 277 67 399 22 90 18
107 -28 96 -12 -2 -23 -2 -26 0 -3 3 19 74 49 158 70 202 151 463 207 672 51
188 128 537 121 544 -8 8 -50 -19 -64 -41 -7 -12 -21 -67 -32 -124 -10 -56
-38 -156 -63 -222 -24 -66 -59 -186 -76 -268 -34 -156 -55 -213 -92 -238 -29
-21 -41 -20 -29 2 21 40 85 237 116 362 56 224 89 407 145 820 17 124 40 253
51 287 24 73 22 103 -7 113 -35 14 -48 -5 -55 -77 -3 -37 -18 -126 -32 -198
-15 -71 -38 -191 -52 -265 -30 -157 -45 -207 -114 -388 -36 -92 -60 -179 -82
-290 -33 -169 -45 -204 -82 -254 -14 -18 -51 -112 -82 -208 -54 -164 -103
-279 -139 -325 -15 -19 -15 -19 -16 13 -1 95 54 262 147 446 19 38 50 129 69
202 19 73 43 157 55 186 11 29 36 113 55 188 19 74 60 202 90 283 30 81 62
178 70 215 17 71 33 306 34 483 0 69 7 142 21 205 19 91 20 116 13 314 -5 118
-9 255 -9 304 0 84 -1 89 -23 97 -27 10 -27 2 4 384 8 99 17 249 21 333 l6
154 -24 -4 c-21 -3 -24 -9 -27 -53 -2 -27 -7 -54 -12 -59 -17 -17 -23 111 -14
313 9 213 8 290 0 299 -3 3 -12 -1 -20 -7 -13 -11 -16 -8 -22 14 -4 15 -4 55
0 88 20 199 20 199 1 213 -11 8 -29 14 -42 14 -21 0 -23 3 -18 33 13 81 25
288 25 455 l0 182 -29 0 c-26 0 -29 -4 -35 -42 -13 -91 -26 -341 -26 -518 0
-102 -4 -211 -10 -242 -9 -57 -36 -128 -49 -128 -3 0 -7 68 -8 150 -1 83 -9
222 -18 310 -14 131 -15 176 -6 257 12 109 8 168 -33 409 -15 86 -26 192 -26
245 -1 182 -16 286 -58 404 -22 63 -41 139 -45 177 -6 67 -20 103 -44 112 -9
4 -13 -7 -13 -40 0 -90 22 -396 50 -718 17 -181 30 -340 30 -354 0 -17 -8 -27
-30 -35 -24 -9 -30 -17 -26 -32 12 -52 16 -133 7 -160 -9 -29 -9 -29 -10 -5
-8 223 -36 513 -92 940 -22 168 -46 358 -54 422 -28 238 -68 365 -113 356 -20
-4 -19 -57 9 -298 36 -317 39 -364 40 -504 0 -105 4 -143 14 -150 30 -24 39
-197 65 -1346 11 -508 4 -729 -34 -980 -28 -181 -32 -260 -21 -362 6 -54 4
-71 -9 -90 -14 -20 -16 -45 -10 -193 4 -125 0 -251 -15 -480 -42 -602 -73
-884 -131 -1163 -22 -103 -57 -275 -80 -382 -48 -233 -80 -442 -80 -527 0
-130 -86 -563 -172 -868 -106 -377 -281 -856 -419 -1145 -43 -92 -72 -166 -77
-203 -14 -87 -52 -119 -157 -132 -33 -4 -68 -12 -78 -17 -15 -7 -25 -4 -43 13
-13 12 -59 41 -101 64 l-78 41 -12 95 c-6 53 -22 147 -34 210 -16 79 -23 156
-25 252 -1 109 -5 147 -20 179 -16 37 -17 52 -6 201 16 218 3 303 -79 540 -35
98 -47 120 -69 132 -61 32 -115 122 -155 261 -24 83 -29 90 -108 174 -51 54
-97 114 -121 160 l-39 73 32 96 c41 126 61 222 61 299 0 58 2 62 23 62 32 0
67 27 83 65 11 27 11 42 -1 97 -19 92 -38 125 -132 222 -86 88 -132 158 -159
240 -11 33 -34 66 -68 100 -30 30 -88 113 -141 201 -49 82 -145 232 -213 334
-87 131 -158 256 -248 434 -128 253 -164 339 -164 387 0 15 -6 33 -14 40 -8 6
-35 44 -61 85 -40 64 -44 76 -35 100 9 24 2 46 -56 174 -36 80 -84 189 -106
241 -33 78 -48 103 -89 139 -28 24 -61 65 -74 91 -14 27 -73 101 -132 165 -59
64 -124 136 -143 160 -19 24 -45 46 -56 49 -12 3 -65 34 -117 69 -128 86 -201
98 -195 34 2 -26 12 -37 55 -62 130 -77 268 -202 379 -346 37 -49 41 -59 29
-69 -26 -21 -17 -38 37 -73 83 -53 167 -160 168 -214 0 -23 -15 -14 -100 58
-83 70 -149 110 -202 123 -16 3 -28 2 -28 -2 0 -20 88 -107 159 -157 42 -30
94 -72 116 -95 22 -23 60 -50 85 -61 73 -32 108 -77 95 -120 -10 -30 -29 -23
-118 45 -47 35 -97 71 -113 79 -39 20 -94 31 -94 19 0 -27 54 -83 125 -129
128 -83 166 -113 186 -148 11 -18 30 -36 42 -39 30 -7 67 -58 74 -102 8 -47
-8 -44 -73 15 -48 44 -97 67 -116 54 -15 -9 -8 -53 12 -73 11 -11 34 -23 50
-26 36 -8 214 -187 252 -254 26 -46 44 -100 32 -100 -3 0 -35 27 -70 59 -36
33 -97 75 -137 94 -72 36 -190 67 -203 54 -13 -12 14 -56 44 -71 17 -9 56 -19
87 -24 32 -5 61 -16 65 -23 20 -36 75 -96 169 -185 130 -124 143 -146 64 -106
-61 31 -170 62 -216 62 -25 0 -27 -3 -27 -44 0 -25 -4 -48 -10 -51 -20 -12 -9
-23 37 -36 26 -7 106 -48 177 -92 153 -93 210 -122 251 -131 36 -8 125 -104
125 -135 0 -19 -5 -18 -77 18 -79 39 -130 58 -354 130 -70 23 -134 44 -143 47
-12 5 -16 0 -16 -23 0 -41 26 -61 96 -75 32 -6 64 -17 69 -24 6 -7 44 -26 85
-42 41 -17 111 -46 155 -65 44 -19 101 -42 127 -51 26 -10 71 -38 99 -64 50
-45 189 -205 189 -217 0 -4 -17 7 -37 23 -79 62 -224 151 -295 180 -79 33
-228 66 -228 50 0 -44 49 -72 172 -99 104 -23 122 -31 155 -70 14 -16 75 -60
136 -98 118 -73 216 -160 167 -147 -14 3 -42 6 -63 6 -30 0 -44 7 -76 40 -21
22 -56 46 -77 54 -22 7 -102 44 -179 81 -340 164 -351 168 -375 140 -19 -22
11 -50 74 -71 50 -16 492 -236 511 -255 5 -5 -17 -9 -59 -9 -61 0 -70 -3 -88
-25 -27 -34 -59 -49 -147 -69 -41 -9 -82 -21 -91 -26 -12 -7 -53 3 -141 34
-153 54 -209 65 -209 41 0 -9 11 -27 24 -40 22 -22 57 -35 173 -65 49 -12 93
-44 78 -58 -5 -5 -44 -21 -86 -36 -71 -25 -81 -26 -138 -16 -65 12 -101 3
-101 -25 0 -17 13 -26 70 -45 56 -19 62 -42 25 -108 -17 -30 -25 -59 -24 -82
2 -24 -5 -47 -25 -76 -68 -103 -96 -268 -77 -446 11 -102 12 -103 55 -148 86
-88 214 -272 376 -542 237 -396 305 -493 382 -550 35 -25 89 -72 121 -104 l59
-59 -23 -15 c-47 -30 -95 -79 -117 -119 l-23 -41 30 0 c35 0 88 42 122 96 11
19 30 39 41 45 49 26 34 -28 -32 -113 -49 -64 -75 -128 -51 -128 32 0 73 36
111 97 24 37 48 71 54 75 17 12 64 9 72 -3 9 -16 -61 -114 -144 -198 -55 -57
-75 -72 -84 -63 -11 11 -78 17 -78 7 0 -2 7 -30 15 -62 20 -74 20 -208 1 -343
-8 -58 -16 -123 -18 -145 -3 -37 -1 -40 22 -37 37 5 56 34 74 114 19 86 20 88
67 116 20 12 80 69 134 127 53 58 101 102 106 99 5 -3 9 -27 9 -53 l0 -48 -41
-6 c-58 -8 -103 -48 -182 -162 -67 -97 -72 -114 -29 -115 18 0 15 -8 -13 -42
-28 -33 -32 -58 -11 -58 38 0 179 129 214 196 14 26 7 34 -30 34 -15 0 -28 4
-28 9 0 15 71 72 83 68 32 -11 -26 -242 -73 -292 -12 -13 -76 -50 -143 -84
-106 -54 -177 -99 -177 -115 0 -2 22 -7 48 -11 74 -10 149 17 259 91 72 49 98
62 111 55 19 -10 62 5 101 37 23 19 23 19 48 -6 22 -22 30 -24 71 -18 130 19
171 19 197 2 41 -27 29 -36 -47 -36 -163 0 -372 -51 -492 -119 -30 -18 -77
-52 -105 -77 -106 -96 -42 -98 144 -5 66 33 134 63 150 66 l30 7 -32 -30 c-17
-17 -86 -63 -153 -102 -118 -70 -186 -125 -210 -171 -11 -20 -10 -21 6 -15 91
37 255 91 338 113 137 36 298 38 369 6 54 -25 107 -61 107 -72 0 -16 -98 8
-156 38 -32 16 -70 31 -84 33 -22 3 -25 -1 -28 -35 -2 -20 -6 -37 -10 -37
-116 -5 -259 -22 -297 -35 -51 -17 -135 -65 -135 -77 0 -8 58 -1 205 24 161
28 308 28 450 0 61 -12 126 -22 146 -22 32 0 40 -6 72 -53 34 -50 49 -107 28
-107 -5 0 -31 24 -58 54 l-48 54 -145 31 c-270 59 -366 53 -565 -34 -191 -85
-257 -96 -302 -53 -42 41 -152 86 -250 103 -97 18 -385 21 -555 7 -54 -4 -94
-4 -90 -1 15 15 171 59 256 74 161 27 448 15 585 -25 19 -5 36 -8 38 -6 2 1
-2 17 -8 35 -16 46 -58 64 -161 69 l-88 4 0 43 0 43 -71 7 c-99 10 -228 -1
-433 -39 -97 -17 -176 -29 -176 -26 0 3 21 16 46 28 89 44 156 53 412 59 l242
6 0 43 c0 23 -5 46 -11 50 -7 4 -89 11 -183 15 -94 5 -184 13 -201 18 -29 9
-29 9 -5 11 222 14 249 17 274 34 27 17 27 18 10 37 -29 32 -91 43 -239 43
-292 -2 -583 -87 -734 -217 -107 -92 -232 -255 -255 -333 -5 -17 -19 -22 -95
-32 -48 -7 -102 -12 -120 -12 -28 0 -31 3 -25 24 4 19 -3 30 -41 62 -39 31
-46 43 -43 65 4 25 1 28 -34 33 -51 8 -106 59 -158 147 -29 49 -46 69 -57 65
-25 -10 -73 23 -104 72 l-30 47 26 22 c14 13 30 23 34 23 5 0 28 -26 52 -57
23 -32 99 -115 168 -186 116 -118 127 -127 162 -127 73 0 64 22 -44 115 -163
141 -223 212 -255 304 -10 29 -10 31 21 40 28 8 35 5 55 -18 39 -44 54 -81 50
-122 -3 -38 -3 -39 29 -39 25 0 38 -8 60 -37 48 -63 81 -93 102 -93 46 0 10
76 -88 187 -84 96 -111 144 -111 201 0 38 -2 43 -18 37 -28 -8 -66 27 -90 84
l-21 50 53 30 c49 29 76 62 76 96 0 19 -3 19 -49 -4 -60 -31 -139 -98 -248
-210 l-101 -106 -22 20 c-29 26 -60 88 -60 119 0 18 9 30 30 41 55 29 30 62
-33 44 -52 -14 -97 -70 -97 -119 0 -30 -4 -40 -16 -40 -9 0 -29 -8 -45 -17
-15 -9 -31 -14 -35 -11 -3 4 -9 31 -13 60 -4 41 -10 53 -23 53 -9 0 -23 9 -31
19 -20 27 -37 12 -37 -32 0 -26 11 -55 35 -92 31 -49 35 -60 29 -100 -8 -64
-11 -70 -33 -70 -38 0 -44 34 -16 90 35 69 17 95 -32 48 -17 -16 -26 -19 -34
-11 -6 6 -29 69 -51 139 -35 113 -40 144 -44 254 -5 126 -18 184 -38 177 -30
-10 -60 -134 -51 -212 8 -66 43 -195 72 -269 12 -33 21 -61 20 -63 -8 -7 -95
63 -157 126 -119 121 -218 279 -346 553 -42 90 -99 208 -127 263 -27 55 -58
124 -68 152 -17 51 -17 53 1 63 29 15 30 14 30 -40 0 -49 0 -49 26 -40 15 6
47 29 73 52 25 22 62 48 81 58 39 18 130 103 148 137 16 30 15 63 -2 63 -18 0
-95 -58 -166 -125 -62 -59 -81 -70 -130 -80 l-35 -7 44 39 c31 28 42 44 40 61
l-4 22 -45 -22 c-58 -29 -148 -117 -130 -128 10 -6 10 -15 -1 -44 -13 -35 -11
-40 25 -114 21 -42 53 -102 71 -132 18 -30 36 -70 40 -88 4 -19 18 -40 32 -49
14 -10 32 -32 39 -50 16 -37 19 -96 4 -91 -5 2 -73 89 -151 193 -287 386 -449
654 -617 1020 -18 39 -57 106 -87 150 -114 165 -213 391 -284 648 -22 79 -55
175 -74 213 -54 108 -102 268 -147 492 -11 53 -36 135 -55 182 -45 112 -76
239 -125 500 -21 118 -62 294 -89 390 -62 218 -75 294 -67 376 5 50 4 64 -7
64 -22 0 -47 72 -47 134 0 41 -4 58 -15 62 -10 4 -15 20 -15 46 0 22 -11 83
-24 136 -43 170 -93 418 -150 737 -79 449 -96 571 -105 750 -5 89 -13 170 -19
182 -9 17 -9 22 3 27 20 7 19 36 0 36 -8 0 -15 6 -15 13 0 6 -7 77 -15 157
-33 335 -47 536 -60 895 -9 231 -21 411 -30 460 -8 44 -15 128 -15 187 0 87
-3 106 -14 102 -11 -4 -12 3 -5 41 5 26 7 50 4 54 -7 12 -7 198 0 346 6 124 4
144 -12 175 -10 19 -29 40 -43 47 l-25 12 -5 -81 c-3 -47 -10 -83 -16 -85 -12
-4 -24 41 -24 91 0 62 -53 102 -66 50z m116 -199 c0 -16 -9 -19 -34 -9 -25 9
-19 24 9 24 16 0 25 -6 25 -15z m8605 -2395 c8 -47 19 -184 25 -305 6 -121 15
-265 20 -320 10 -108 3 -164 -26 -196 -23 -25 -40 -24 -57 4 -11 17 -14 111
-16 449 -1 235 1 453 5 485 l8 58 13 -45 c7 -25 20 -83 28 -130z m79 -1122
c-6 -18 -17 -34 -26 -36 -14 -3 -14 2 0 54 14 49 17 54 25 35 6 -13 6 -33 1
-53z m-14 -116 c0 -16 -7 -43 -16 -60 -14 -29 -14 -42 6 -162 20 -124 20 -183
-1 -220 -13 -25 -41 56 -47 136 -4 63 9 231 24 307 7 36 34 36 34 -1z m345 -1
c7 -33 -10 -107 -27 -117 -8 -5 -9 -2 -5 10 4 10 7 44 7 77 0 62 14 79 25 30z
m-150 -338 c-9 -54 -19 -119 -22 -145 -3 -27 -9 -48 -14 -48 -15 0 -9 101 11
194 11 50 20 106 21 125 l1 36 10 -32 c8 -24 6 -57 -7 -130z m-8927 94 c2 -15
-2 -27 -8 -27 -12 0 -30 41 -23 53 9 16 28 0 31 -26z m-912 -192 c3 -14 3 -41
0 -61 -6 -29 -10 -33 -22 -24 -11 10 -14 9 -14 -9 0 -11 -4 -21 -10 -21 -14 0
-13 15 5 57 8 19 15 46 15 59 0 32 18 31 26 -1z m9824 -505 c-7 -41 -27 -145
-47 -230 -19 -85 -42 -202 -52 -259 -17 -102 -18 -104 -34 -80 -11 15 -17 43
-17 81 0 89 65 387 131 600 l24 77 3 -57 c2 -31 -2 -91 -8 -132z m-10040 -65
c0 -8 -7 -15 -15 -15 -8 0 -15 7 -15 15 0 8 7 15 15 15 8 0 15 -7 15 -15z
m10210 -123 c0 -87 -22 -294 -45 -422 -30 -160 -119 -565 -127 -575 -4 -5 -8
45 -8 112 0 137 19 263 79 518 42 180 71 348 71 409 0 25 4 36 15 36 12 0 15
-15 15 -78z m-10251 0 c16 -38 0 -134 -43 -266 -32 -96 -34 -100 -45 -73 -18
46 -13 88 24 196 19 56 35 117 35 136 0 42 13 45 29 7z m10111 -47 c-5 -31 -9
-36 -15 -22 -4 10 -3 29 4 44 16 35 20 26 11 -22z m-3582 -119 c16 -8 32 -22
36 -31 4 -12 0 -14 -22 -9 -37 9 -125 45 -137 57 -16 15 89 0 123 -17z m-6305
-152 c12 -4 12 -11 1 -42 -7 -20 -13 -47 -14 -58 0 -12 -9 -32 -20 -45 l-19
-24 -1 28 c0 23 31 147 37 147 1 0 8 -2 16 -6z m9699 -264 c-1 -18 -7 -40 -14
-47 -14 -18 -42 -17 -35 1 3 8 9 31 13 51 5 26 11 35 23 33 12 -3 15 -13 13
-38z m-9405 -47 c-4 -16 -14 -73 -23 -128 -18 -110 -40 -168 -55 -144 -16 25
-10 75 21 174 17 54 30 104 30 111 0 8 7 14 16 14 13 0 15 -6 11 -27z m9537
-431 c-1 -21 -11 -56 -23 -77 l-22 -40 6 65 c4 36 9 75 12 88 8 36 28 9 27
-36z m-9534 -127 c0 -16 -6 -25 -15 -25 -16 0 -19 9 -9 34 9 25 24 19 24 -9z
m1360 -144 c11 -41 8 -46 -18 -32 -20 11 -31 50 -24 86 4 19 5 19 18 0 8 -10
19 -35 24 -54z m5221 -54 c8 -7 23 -24 33 -38 15 -23 21 -26 49 -19 41 9 67
-1 121 -45 24 -19 48 -35 55 -35 6 0 11 -12 11 -26 0 -19 -20 -45 -76 -100
-42 -41 -82 -74 -89 -74 -16 0 -51 42 -60 71 -5 15 5 32 34 64 38 42 60 89 48
102 -15 15 -68 -23 -101 -73 -33 -49 -39 -54 -74 -54 -40 0 -83 18 -89 36 -2
7 3 11 13 10 20 -1 53 41 56 74 2 20 -1 24 -17 22 -11 -2 -30 -15 -43 -30 -63
-76 -71 -82 -96 -82 -22 0 -26 4 -26 28 0 29 43 105 76 133 53 46 139 63 175
36z m-252 -49 c-56 -110 -104 -158 -157 -158 -27 0 -25 14 13 90 33 65 91 110
143 110 l22 0 -21 -42z m-215 -23 c18 -71 -62 -186 -139 -201 -20 -3 -39 -4
-42 0 -3 3 21 40 53 81 32 42 70 93 84 114 28 43 35 44 44 6z m3376 -50 c-10
-64 -43 -149 -61 -161 -5 -3 -9 -2 -9 2 0 6 37 132 66 223 11 35 14 -3 4 -64z
m-311 -43 c-1 -42 -25 -101 -33 -81 -4 8 -2 28 4 43 5 15 10 39 10 52 0 14 4
22 10 19 6 -3 10 -18 9 -33z m-8816 15 c7 -19 -4 -106 -14 -113 -5 -3 -9 24
-9 60 0 61 11 85 23 53z m1086 -73 c4 -22 5 -50 1 -63 l-5 -24 -12 26 c-7 14
-15 42 -18 64 -4 21 -9 47 -12 58 -5 19 -4 19 17 -1 12 -12 25 -39 29 -60z
m5577 56 c19 -8 24 -14 17 -21 -14 -14 -53 -2 -53 17 0 17 1 17 36 4z m-5692
-104 c36 -85 72 -204 63 -212 -3 -3 -26 37 -51 89 -32 65 -49 112 -53 151 -3
31 -3 56 -1 56 3 0 22 -38 42 -84z m5616 21 c28 -24 32 -34 32 -72 -2 -60 -16
-111 -60 -209 -33 -72 -37 -91 -38 -173 -2 -106 -8 -126 -81 -281 -50 -108
-58 -142 -33 -142 6 0 25 20 42 45 18 25 37 45 44 45 46 0 9 -427 -56 -640
-11 -36 -20 -70 -20 -76 0 -10 69 -48 76 -41 2 2 -2 18 -8 35 -11 29 -10 34
10 47 22 16 35 55 47 140 4 27 14 63 23 80 16 29 17 29 20 7 2 -13 -6 -83 -17
-155 -30 -196 -31 -211 -4 -215 29 -4 34 16 73 282 37 256 60 359 71 331 21
-54 1 -233 -37 -329 -6 -17 -4 -18 21 -12 l28 7 -6 -64 c-8 -89 -38 -161 -109
-263 -46 -67 -58 -91 -51 -103 18 -28 47 -19 66 22 9 20 24 37 32 37 18 0 18
-8 0 -40 -14 -25 -20 -80 -9 -80 45 0 88 89 125 258 46 215 59 244 80 170 29
-107 3 -217 -91 -379 -55 -95 -56 -118 -6 -105 17 4 33 21 46 46 11 22 21 40
23 40 1 0 -1 -66 -4 -147 -7 -170 -19 -207 -92 -285 l-44 -47 -17 77 c-29 130
-55 206 -78 235 -13 16 -55 50 -93 75 -71 48 -91 72 -58 69 11 0 34 5 52 13
48 19 21 30 -77 30 -93 0 -132 14 -150 54 -13 29 -12 30 44 45 41 11 94 45 94
61 0 15 -47 17 -93 3 -27 -8 -55 -24 -67 -40 l-21 -28 -60 62 c-32 33 -59 66
-59 72 0 20 68 24 122 6 49 -16 53 -16 65 1 18 24 10 31 -55 49 -162 45 -194
57 -227 86 -61 54 -52 59 99 56 74 -1 137 1 141 5 4 4 5 18 1 31 -6 24 -8 24
-143 29 -157 5 -194 17 -212 69 -6 18 -11 33 -11 35 0 1 66 4 148 6 84 2 159
9 176 17 28 11 28 13 12 29 -14 14 -43 18 -169 22 -198 7 -234 20 -277 101
-16 31 -30 59 -30 62 0 4 21 -7 48 -23 70 -44 160 -64 282 -65 99 0 200 18
200 35 0 23 -33 32 -83 25 -97 -14 -262 -1 -271 21 -3 8 -15 14 -26 14 -13 0
-20 7 -20 20 0 63 -48 97 -152 108 l-73 7 -65 86 c-36 47 -82 102 -102 121
-25 24 -38 44 -38 62 0 25 20 39 20 14 1 -26 69 -105 105 -122 51 -25 122 -23
173 3 30 15 55 42 93 99 l51 77 -23 72 c-12 40 -20 76 -16 79 13 13 82 -22 97
-48 20 -37 2 -102 -56 -197 -48 -81 -47 -91 13 -91 39 0 86 38 116 94 17 32
22 58 22 123 0 49 4 83 10 83 19 0 167 -69 187 -87 26 -23 45 -60 53 -104 l7
-36 -81 -39 c-44 -21 -80 -44 -81 -50 0 -5 6 -22 13 -37 10 -21 17 -25 37 -20
48 11 102 45 178 110 123 105 124 107 76 165 -20 24 -21 32 -12 65 6 21 27 67
48 103 35 59 60 126 60 158 0 47 -87 -40 -115 -116 -26 -68 -64 -142 -74 -142
-4 0 -18 9 -31 20 -21 18 -22 22 -9 52 39 97 221 344 243 331 7 -5 28 -21 46
-36z m-1090 -21 c-12 -52 -44 -136 -52 -136 -12 0 -10 95 3 127 25 68 64 75
49 9z m-5490 -36 c0 -11 -7 -20 -15 -20 -8 0 -15 9 -15 20 0 11 7 20 15 20 8
0 15 -9 15 -20z m5950 9 c0 -9 -57 -148 -64 -156 -2 -2 -53 14 -74 23 -2 1 24
80 43 132 5 15 95 17 95 1z m2666 -14 c8 -20 -35 -137 -47 -129 -13 8 -11 33
6 92 16 52 31 65 41 37z m-2826 -2 c0 -7 -10 -53 -25 -119 -4 -17 -15 -23 -54
-28 -69 -9 -155 -55 -244 -132 l-77 -65 0 60 c0 52 3 62 22 72 12 6 52 40 89
75 70 65 101 81 144 70 18 -5 29 -1 42 15 38 47 54 59 78 59 14 0 25 -3 25 -7z
m301 -9 c5 -3 -4 -23 -21 -44 -17 -21 -32 -53 -33 -69 -2 -29 -4 -31 -44 -31
-24 0 -43 2 -43 5 0 2 9 27 20 55 11 28 20 62 20 77 0 25 2 26 46 19 25 -3 50
-8 55 -12z m2943 -77 c-13 -29 -24 -59 -24 -67 -1 -12 -3 -11 -11 3 -8 13 -6
32 7 70 22 68 23 70 39 57 11 -9 9 -20 -11 -63z m-2811 16 c28 -14 54 -28 56
-29 3 -3 -41 -99 -55 -122 -1 -2 -35 7 -74 19 -71 23 -72 24 -66 54 8 40 52
105 71 105 9 0 39 -12 68 -27z m-5945 -54 c-25 -16 -28 -9 -11 24 17 31 18 31
21 8 2 -13 -2 -28 -10 -32z m-2 -133 c-4 -22 -13 -36 -21 -36 -18 0 -19 16 -4
59 15 43 34 25 25 -23z m-16 -90 c0 -22 -11 -46 -21 -46 -5 0 -9 14 -9 30 0
20 5 30 15 30 8 0 15 -6 15 -14z m884 -25 c10 -17 16 -34 13 -38 -9 -8 -57 44
-57 62 0 25 22 12 44 -24z m4586 -11 c0 -47 -24 -56 -40 -14 -16 41 -12 54 15
54 23 0 25 -4 25 -40z m-5493 -97 c-2 -16 -4 -5 -4 22 0 28 2 40 4 28 2 -13 2
-35 0 -50z m21 -138 c3 -38 1 -55 -7 -55 -18 0 -27 34 -23 86 5 62 24 43 30
-31z m6400 -148 c2 -37 0 -47 -12 -47 -12 0 -16 12 -16 51 0 66 24 62 28 -4z
m-5563 -57 c26 -52 55 -145 55 -177 0 -17 -35 28 -60 76 -23 47 -70 179 -70
199 0 18 47 -43 75 -98z m7823 -182 c-22 -33 -41 -36 -27 -4 7 14 19 26 27 26
13 0 13 -3 0 -22z m-7710 -76 c18 -27 55 -105 82 -175 58 -150 72 -177 162
-326 102 -170 207 -387 215 -445 6 -47 5 -48 -15 -37 -14 7 -24 28 -32 65 -7
34 -32 90 -66 146 -80 133 -217 390 -270 508 -53 119 -125 312 -115 312 3 0
21 -22 39 -48z m7667 -53 c-20 -35 -25 -39 -25 -21 0 33 29 87 41 75 6 -6 0
-26 -16 -54z m-2055 14 c0 -27 -3 -34 -11 -26 -7 7 -9 23 -5 37 9 37 16 32 16
-11z m2010 -143 c0 -5 -5 -21 -12 -35 -12 -28 -34 -35 -23 -7 4 9 10 25 12 35
6 18 23 24 23 7z m84 -32 c-17 -99 -28 -141 -69 -245 -58 -147 -75 -216 -75
-297 0 -69 3 -73 45 -54 14 6 28 9 31 6 7 -8 -49 -149 -148 -373 -47 -104
-100 -233 -118 -285 -18 -52 -41 -102 -50 -110 -10 -8 -39 -59 -65 -114 -33
-69 -50 -95 -57 -88 -8 8 -6 16 6 27 9 9 16 32 16 51 0 19 4 34 8 34 13 0 69
91 78 125 10 39 66 176 144 350 66 147 131 325 123 338 -2 4 -21 7 -41 7 -44
0 -56 -16 -91 -120 -55 -160 -56 -97 -1 75 l40 127 -35 87 c-19 48 -37 113
-41 146 -7 55 -6 58 12 51 10 -4 32 -10 47 -13 26 -5 28 -8 22 -47 -5 -32 -3
-45 9 -56 37 -30 98 68 146 235 40 141 52 175 62 175 4 0 5 -15 2 -32z m-134
-104 c0 -14 -5 -24 -11 -22 -6 2 -10 7 -10 11 1 4 1 14 1 22 0 8 5 15 10 15 6
0 10 -12 10 -26z m-6932 -319 c11 -27 19 -52 16 -54 -10 -10 -55 25 -83 65
-36 49 -171 283 -171 295 0 4 7 12 17 17 13 8 32 -14 108 -132 50 -77 101
-163 113 -191z m5092 110 c-11 -107 -37 -215 -51 -215 -22 0 -9 123 37 348
l19 94 3 -64 c2 -35 -2 -108 -8 -163z m-4823 43 c22 -25 47 -70 63 -115 10
-27 9 -27 -21 7 -34 39 -84 130 -71 130 5 0 18 -10 29 -22z m-171 -83 c9 -13
14 -30 11 -37 -3 -8 -10 -2 -17 15 -7 15 -17 27 -22 27 -4 0 -8 5 -8 10 0 18
19 10 36 -15z m7063 -62 c0 -10 -9 -40 -19 -68 -16 -45 -19 -47 -19 -20 -1 39
17 105 29 105 6 0 10 -8 9 -17z m-7233 -131 c59 -78 147 -229 254 -437 113
-220 180 -339 237 -425 45 -68 44 -81 -4 -57 -65 34 -112 95 -193 252 -35 66
-89 162 -122 212 -118 185 -260 470 -283 568 -6 29 -5 29 32 -14 21 -24 57
-69 79 -99z m464 75 c0 -16 -3 -17 -15 -7 -8 7 -15 24 -15 39 1 25 1 25 15 7
8 -11 15 -29 15 -39z m-312 -98 c19 -31 28 -55 22 -57 -24 -8 -80 65 -80 103
0 29 24 10 58 -46z m5072 32 c0 -45 -11 -91 -23 -91 -6 0 -7 16 -3 43 4 23 8
50 9 60 2 29 17 19 17 -12z m-126 -26 c-4 -8 -11 -15 -16 -15 -6 0 -5 6 2 15
7 8 14 15 16 15 2 0 1 -7 -2 -15z m-4530 -71 c9 -22 -3 -32 -14 -14 -12 19
-12 30 -1 30 5 0 12 -7 15 -16z m6572 -87 c-20 -104 -47 -183 -126 -367 -34
-80 -89 -210 -122 -290 -94 -230 -190 -424 -201 -405 -22 40 31 195 177 507
141 304 224 493 254 580 15 43 28 74 30 68 2 -5 -4 -47 -12 -93z m-2016 3 c0
-45 -35 -134 -50 -125 -17 10 -11 69 11 123 24 58 39 59 39 2z m80 -60 c10
-24 10 -46 1 -100 -6 -38 -11 -82 -11 -99 0 -22 -21 -58 -80 -137 -44 -58 -80
-112 -80 -120 0 -22 41 -17 68 9 l24 22 -4 -30 c-2 -22 1 -31 15 -33 21 -4 58
72 83 173 9 36 20 62 25 59 20 -12 9 -99 -19 -159 -16 -33 -34 -77 -41 -97
-13 -40 -28 -48 -136 -68 -95 -18 -119 -28 -155 -65 -30 -31 -70 -47 -70 -27
0 4 13 41 29 82 16 41 35 109 41 151 11 67 15 76 31 72 10 -3 39 5 64 17 40
19 45 26 45 55 0 34 23 100 39 109 18 12 21 -12 6 -48 -8 -19 -15 -47 -15 -62
0 -25 1 -26 23 -12 40 27 58 72 68 175 16 173 24 194 49 133z m1148 -75 c-22
-48 -23 -49 -26 -21 -2 17 7 52 20 80 22 48 23 49 26 20 2 -16 -7 -52 -20 -79z
m-1635 43 c-35 -66 -205 -241 -211 -216 -6 29 25 74 92 133 37 32 73 74 83 96
13 30 23 39 41 39 l23 0 -28 -52z m-4747 -63 l7 -30 -35 34 c-26 26 -32 38
-24 47 15 17 42 -10 52 -51z m4762 -104 c-35 -36 -92 -102 -128 -145 -64 -78
-65 -79 -68 -48 -5 45 18 80 111 172 47 45 91 93 98 107 l13 25 18 -22 c18
-22 17 -23 -44 -89z m272 57 c0 -30 -11 -60 -42 -114 -24 -41 -46 -74 -50 -74
-5 0 -8 31 -8 69 0 64 2 69 23 75 15 3 30 20 42 46 23 51 35 51 35 -2z m1700
23 c0 -19 -17 -38 -25 -29 -7 7 7 48 16 48 5 0 9 -9 9 -19z m-50 -103 c-1 -7
-7 -24 -15 -38 l-14 -25 -1 38 c0 26 4 37 15 37 8 0 15 -6 15 -12z m-6136
-173 c85 -126 90 -132 171 -177 75 -42 133 -113 250 -306 49 -81 113 -184 143
-230 51 -77 60 -103 30 -88 -47 24 -65 43 -119 122 -34 49 -96 132 -138 184
-265 324 -354 447 -421 580 -47 94 -9 56 84 -85z m5710 33 c-18 -36 -53 -78
-65 -78 -14 0 4 45 38 94 18 26 34 53 34 60 1 6 4 -1 6 -16 2 -15 -3 -42 -13
-60z m-5441 42 c14 -11 30 -33 35 -50 l11 -30 -27 15 c-15 8 -40 26 -56 41
-23 21 -26 28 -15 35 20 12 23 12 52 -11z m4534 -127 c29 -32 62 -100 63 -126
0 -13 -6 -16 -22 -12 -13 3 -44 7 -70 8 -56 2 -60 14 -28 77 11 22 20 48 20
60 0 27 8 25 37 -7z m1123 -53 c0 -24 -20 -70 -31 -70 -18 0 -18 21 -2 54 18
40 33 47 33 16z m-4250 -80 c15 -16 33 -43 40 -61 13 -29 12 -33 -9 -50 -13
-11 -29 -19 -37 -19 -16 0 -94 68 -94 82 0 13 53 78 63 78 5 0 21 -13 37 -30z
m2450 23 c0 -14 -19 -38 -25 -32 -8 8 5 39 16 39 5 0 9 -3 9 -7z m-4396 -56
c13 -23 27 -58 31 -77 l7 -35 -27 25 c-32 29 -55 78 -55 115 0 34 14 25 44
-28z m1593 -36 c14 -25 33 -54 41 -63 17 -20 10 -43 -27 -87 l-28 -34 -33 49
c-18 27 -41 58 -52 70 -18 21 -18 22 14 71 19 28 39 48 46 45 7 -2 24 -25 39
-51z m4529 -18 c-11 -11 -19 6 -11 24 8 17 8 17 12 0 3 -10 2 -21 -1 -24z
m-4304 -13 c39 -30 52 -71 38 -114 -10 -30 -16 -36 -40 -36 -21 0 -35 9 -51
33 -13 17 -27 34 -31 35 -16 7 -7 39 17 60 14 12 25 26 25 32 0 15 15 12 42
-10z m4243 -115 c-24 -73 -144 -303 -282 -542 -71 -124 -66 -120 -168 -113
-41 3 -47 8 -35 31 7 13 21 19 44 19 29 0 44 11 103 74 90 93 146 186 263 430
52 108 96 192 98 187 2 -5 -8 -44 -23 -86z m-265 26 c0 -20 -63 -85 -73 -75
-14 15 -6 39 25 71 32 33 48 35 48 4z m-4296 -51 c17 -43 22 -110 7 -110 -4 0
-25 14 -46 30 -21 17 -42 30 -46 30 -12 0 -11 36 2 81 12 37 12 38 39 24 16
-8 34 -31 44 -55z m-1117 -33 c17 -33 11 -46 -12 -27 -16 13 -55 82 -55 96 0
13 52 -41 67 -69z m1333 31 c32 -54 21 -138 -19 -138 -27 0 -75 64 -67 87 10
27 50 83 59 83 4 0 16 -15 27 -32z m-1554 -81 c19 -36 11 -46 -17 -21 -23 21
-43 56 -53 94 -6 23 -4 22 24 -10 17 -19 38 -48 46 -63z m4759 -23 c-60 -46
-205 -93 -205 -67 0 25 136 80 200 82 24 0 25 0 5 -15z m775 6 c0 -13 -48 -36
-56 -27 -4 3 -4 13 -1 22 7 17 57 21 57 5z m-3880 -47 c14 -9 39 -30 57 -46
l32 -30 -31 -44 c-60 -83 -74 -80 -108 21 -17 53 -19 68 -9 90 14 30 25 32 59
9z m-192 -23 c20 -26 21 -30 5 -30 -17 0 -63 37 -63 52 0 20 38 5 58 -22z
m3792 -28 c14 -8 57 -45 95 -82 39 -37 79 -72 90 -78 18 -10 17 -11 -13 -12
-47 0 -62 10 -127 90 -31 40 -71 81 -89 92 -27 17 -28 19 -6 13 14 -4 36 -14
50 -23z m-4310 -38 c33 -30 70 -94 54 -94 -3 0 -35 28 -70 63 -93 92 -80 118
16 31z m4974 44 c-4 -7 -16 -25 -27 -39 -11 -15 -17 -38 -15 -55 3 -25 7 -29
31 -26 40 4 35 -19 -24 -123 -29 -50 -56 -102 -61 -117 -6 -16 -14 -28 -19
-28 -5 0 -4 12 1 26 13 33 13 74 0 74 -12 0 -41 -30 -78 -79 -20 -27 -52 -42
-52 -26 0 20 166 305 217 373 23 31 42 45 27 20z m346 -8 c8 -15 6 -29 -10
-59 -11 -22 -20 -47 -20 -56 0 -9 -4 -13 -10 -10 -15 9 -12 44 7 98 9 26 18
47 20 47 1 0 7 -9 13 -20z m-600 -16 c0 -31 -42 -96 -82 -124 -42 -30 -88 -40
-88 -18 0 15 152 164 163 160 4 -2 7 -10 7 -18z m-5114 -139 c58 -71 151 -203
183 -260 18 -32 10 -26 -45 35 -38 41 -103 109 -146 151 -43 42 -78 84 -78 93
0 9 -11 39 -25 66 -14 27 -25 54 -25 59 0 12 63 -56 136 -144z m-408 68 c34
-45 36 -67 4 -47 -22 14 -49 61 -57 99 -5 27 -4 28 7 11 7 -10 28 -38 46 -63z
m4870 50 c42 -18 43 -19 40 -63 -3 -37 -7 -46 -25 -48 -18 -3 -22 3 -28 40 -8
48 -20 66 -50 78 -20 9 -20 9 0 9 11 1 39 -7 63 -16z m-3145 -102 c26 -23 74
-101 63 -101 -3 0 -27 14 -55 32 -50 30 -52 31 -71 13 -19 -18 -21 -17 -55 1
-41 22 -42 25 -15 42 11 7 20 16 20 21 0 6 5 22 10 36 l10 26 33 -22 c17 -12
45 -34 60 -48z m4210 4 c-2 -31 -54 -120 -119 -205 -23 -31 -67 -98 -98 -150
-51 -87 -124 -170 -148 -170 -6 0 1 15 14 33 90 118 207 302 287 450 43 78 68
94 64 42z m-4833 -37 c0 -14 -18 -9 -24 8 -11 28 -6 39 9 20 8 -11 15 -23 15
-28z m-263 -140 c52 -54 136 -168 129 -175 -9 -9 -89 40 -124 75 -20 21 -67
86 -104 145 l-67 108 57 -50 c31 -27 80 -73 109 -103z m2103 104 c0 -4 -12 -9
-26 -10 -15 -1 -51 -16 -80 -33 -30 -17 -54 -27 -54 -22 0 8 42 38 85 61 23
13 75 16 75 4z m-1685 -132 c7 -23 5 -23 -28 10 -19 19 -38 46 -42 60 -7 23
-5 23 28 -10 19 -19 38 -46 42 -60z m-892 -53 c30 -39 60 -97 54 -103 -2 -3
-19 7 -36 22 -31 26 -63 69 -111 149 l-25 40 47 -38 c26 -21 57 -53 71 -70z
m1577 58 c7 -9 10 -19 6 -22 -8 -9 -38 9 -44 25 -5 17 23 15 38 -3z m603 -12
c-11 -44 -44 -68 -177 -128 -52 -23 -108 -52 -125 -64 l-31 -22 0 21 c0 55 55
95 210 155 52 20 99 40 105 46 14 14 24 11 18 -8z m941 -11 c25 -7 20 -10 -50
-26 -318 -75 -590 -213 -758 -385 -43 -45 -81 -79 -84 -77 -13 14 27 71 84
122 64 56 79 84 47 84 -39 1 82 92 195 147 120 58 121 59 97 116 -10 25 41 23
57 -2 11 -19 12 -19 39 1 15 11 42 24 60 29 38 9 269 3 313 -9z m-2145 -74
c34 -39 32 -51 -4 -20 -29 24 -55 64 -54 82 0 11 3 11 12 -4 7 -11 27 -37 46
-58z m1601 38 c-8 -8 -67 -42 -130 -76 -63 -34 -130 -73 -147 -86 -36 -28 -38
-27 -21 11 16 36 98 87 208 128 109 42 109 42 90 23z m-1179 -40 c17 -16 41
-25 79 -30 30 -4 93 -12 140 -20 l85 -12 -39 -13 c-82 -28 -219 6 -301 73 -27
23 -28 25 -9 26 12 0 32 -11 45 -24z m-546 -34 c-9 -9 -35 8 -35 24 0 16 2 16
20 -1 11 -10 18 -20 15 -23z m4579 -107 c-24 -65 -54 -133 -65 -151 -26 -42
-80 -90 -170 -152 -41 -27 -87 -64 -104 -82 -50 -54 -106 -90 -139 -90 -30 0
-29 1 24 37 89 59 258 237 374 393 60 80 111 151 113 158 3 7 7 11 9 9 2 -2
-17 -57 -42 -122z m-3230 78 c-32 -43 -68 -65 -99 -61 -27 3 -24 6 41 48 38
25 71 44 73 43 3 -2 -4 -15 -15 -30z m2956 27 c0 -28 -119 -124 -135 -108 -8
7 67 100 88 108 30 12 47 12 47 0z m-245 -34 l70 -12 -43 -43 c-37 -38 -46
-43 -74 -37 -36 7 -73 38 -94 79 l-15 27 43 -1 c24 0 75 -6 113 -13z m-3690
-107 c38 -34 69 -78 43 -64 -7 5 -34 23 -59 42 -26 18 -51 33 -57 33 -6 0 -14
5 -17 10 -4 6 6 10 24 10 20 0 43 -11 66 -31z m455 -14 c0 -17 -34 -41 -72
-50 -45 -11 -34 18 15 42 53 26 57 26 57 8z m-1475 -86 c28 -30 83 -97 122
-149 39 -52 83 -106 97 -119 14 -13 23 -28 20 -32 -10 -16 -24 -9 -34 15 -5
14 -39 41 -89 70 -44 25 -91 61 -104 78 -23 31 -117 210 -117 223 0 12 56 -34
105 -86z m4521 23 c21 -13 21 -56 1 -60 -25 -5 -47 16 -47 44 0 24 22 32 46
16z m182 -75 c10 0 9 -4 -2 -16 -18 -17 -66 -6 -74 18 -4 11 2 12 29 7 19 -5
40 -8 47 -9z m-3220 -9 c-3 -7 -15 -15 -28 -16 -21 -3 -22 -2 -11 12 16 19 44
21 39 4z m3382 -58 c-17 -31 -98 -78 -88 -51 4 11 92 80 96 76 2 -2 -2 -13 -8
-25z m-783 -37 c-7 -41 -106 -195 -122 -190 -5 2 -11 20 -13 40 -3 33 2 42 51
89 30 29 60 63 66 76 17 33 24 27 18 -15z m-3517 -158 c80 -59 162 -117 182
-129 39 -22 45 -43 12 -38 -10 1 -37 5 -59 9 -27 4 -53 17 -80 42 -22 21 -65
57 -95 81 -72 57 -137 118 -162 153 l-21 29 40 -20 c21 -11 104 -68 183 -127z
m1430 130 c0 -8 -9 -19 -20 -25 -23 -12 -25 -8 -8 20 15 24 28 26 28 5z
m-3908 -90 c44 -20 78 -72 78 -118 0 -20 -2 -37 -4 -37 -3 0 -38 15 -78 34
-83 38 -113 66 -123 115 l-7 34 51 -6 c28 -3 66 -13 83 -22z m2919 -11 c28
-27 52 -39 104 -51 55 -12 65 -17 50 -25 -26 -15 -82 5 -145 52 -52 39 -71 60
-54 60 5 0 25 -16 45 -36z m3614 14 c-2 -31 -17 -32 -45 -3 l-23 25 35 0 c30
0 34 -3 33 -22z m-563 -219 c-49 -107 -94 -206 -100 -222 -10 -24 -14 -26 -31
-15 -15 9 -25 9 -46 0 -43 -20 -47 -14 -16 26 16 20 62 102 102 181 54 106 85
156 123 194 27 27 52 45 53 40 2 -6 -36 -98 -85 -204z m-504 114 c-3 -16 -57
-38 -67 -27 -8 8 38 44 56 44 8 0 13 -7 11 -17z m1372 2 c0 -8 5 -15 10 -15
19 0 10 -16 -18 -32 -33 -20 -132 -39 -132 -26 0 5 14 17 31 26 18 9 43 27 58
39 30 26 51 29 51 8z m-1136 -57 c-67 -73 -95 -95 -145 -118 -51 -22 -59 -13
-29 35 42 68 139 131 204 134 14 1 7 -12 -30 -51z m-5691 -52 c57 -24 141
-124 161 -192 5 -17 1 -23 -15 -27 -30 -8 -77 13 -139 62 -29 23 -57 41 -62
41 -7 0 -8 16 -3 48 4 26 8 55 8 65 1 21 8 21 50 3z m5804 -38 c-9 -22 -33
-44 -75 -70 -62 -38 -62 -38 -62 -14 0 46 78 114 133 116 15 0 16 -3 4 -32z
m-386 -1 c-6 -6 -26 -17 -44 -23 -38 -13 -52 -54 -18 -54 26 0 27 -22 4 -42
-14 -12 -104 -48 -120 -48 -10 0 62 121 85 143 37 35 128 59 93 24z m-211 -39
c-1 -53 -31 -80 -103 -93 l-38 -7 22 36 c11 20 32 45 46 56 29 22 73 27 73 8z
m380 -46 c0 -20 -77 -96 -114 -113 -77 -35 -112 -17 -62 32 18 18 137 78 174
88 1 1 2 -3 2 -7z m-580 -32 c0 -5 -19 -30 -43 -55 -30 -31 -52 -45 -70 -45
-25 0 -26 2 -16 27 14 38 29 54 64 69 36 16 65 18 65 4z m-2562 -68 c20 -11
73 -32 117 -47 103 -36 116 -48 44 -43 -62 5 -127 33 -179 77 -40 35 -35 39
18 13z m3222 -7 c15 -18 6 -46 -24 -74 -29 -27 -140 -74 -144 -61 -6 17 38 69
91 110 60 45 60 45 77 25z m-370 -43 c0 -32 -86 -82 -142 -82 -47 0 3 54 64
70 24 6 48 13 53 15 17 6 25 5 25 -3z m-5075 -79 c28 -31 30 -39 14 -49 -11
-6 -79 52 -79 68 0 18 41 6 65 -19z m2885 5 c0 -5 -19 -8 -42 -8 -31 0 -39 3
-28 10 17 10 70 9 70 -2z m-2674 -8 c22 0 34 -5 34 -14 0 -8 16 -48 36 -90 20
-42 34 -80 30 -83 -9 -9 -126 25 -170 50 -49 27 -73 61 -82 111 l-7 39 63 -6
c35 -4 78 -7 96 -7z m142 -279 c36 -18 68 -62 55 -75 -4 -3 -22 -6 -42 -6 -28
0 -51 12 -100 50 l-65 50 58 0 c36 0 70 -7 94 -19z m270 -45 c15 -8 37 -25 49
-38 21 -22 47 -77 40 -84 -2 -2 -19 1 -38 6 -19 4 -60 14 -92 20 -66 13 -117
50 -117 85 0 13 6 26 13 29 20 9 116 -3 145 -18z m134 -208 c45 -19 118 -86
118 -108 0 -16 -65 -22 -109 -10 -47 12 -123 76 -148 123 l-15 30 53 -7 c29
-4 75 -17 101 -28z m329 2 c41 0 48 -3 53 -25 3 -13 26 -47 51 -75 25 -28 45
-53 45 -57 0 -3 -10 -3 -22 1 -13 3 -62 1 -110 -5 -48 -6 -93 -7 -101 -2 -29
17 -98 102 -113 138 l-16 38 84 -6 c46 -4 104 -7 129 -7z m-140 -217 c28 -16
44 -41 35 -51 -17 -16 -104 37 -92 57 10 15 23 14 57 -6z m667 -17 c7 -16 10
-31 9 -33 -2 -2 -31 -6 -64 -9 -100 -11 -163 10 -163 54 0 15 14 17 104 17
l103 1 11 -30z m-294 -5 l27 -29 -32 -11 c-78 -27 -244 -1 -237 38 3 13 22 17
103 22 55 3 103 6 106 7 3 1 18 -11 33 -27z m597 -123 c68 -84 74 -108 27
-108 -47 0 -110 35 -135 75 -38 57 -30 70 48 74 19 1 35 -10 60 -41z m-472
-12 c58 -30 102 -83 80 -98 -29 -19 -116 0 -224 50 -61 29 -102 53 -95 57 52
32 165 28 239 -9z m294 -25 c51 -79 49 -91 -11 -91 -84 0 -169 57 -198 133 -6
15 2 17 82 17 l89 -1 38 -58z m102 -141 c22 -10 58 -35 79 -54 46 -42 36 -51
-44 -44 -49 5 -160 62 -168 87 -3 9 45 28 78 30 8 0 33 -8 55 -19z m215 5 c0
-8 17 -23 38 -32 54 -26 49 -48 -11 -46 -56 2 -90 21 -112 63 l-16 30 51 0
c38 0 50 -4 50 -15z m682 -25 c38 -11 68 -33 68 -51 0 -15 -51 -31 -101 -31
-48 0 -114 17 -137 35 -17 13 12 34 65 46 52 12 63 12 105 1z m-224 -70 c17
-11 32 -24 32 -29 0 -13 -82 -31 -143 -31 -47 0 -57 3 -71 25 -17 25 -16 26
16 40 49 21 127 19 166 -5z m653 -3 c19 -12 35 -32 37 -43 3 -19 -5 -22 -70
-33 -77 -12 -119 -6 -164 24 -33 21 -30 29 14 48 83 35 135 36 183 4z m529 -2
c0 -14 8 -29 20 -35 26 -14 26 -37 -1 -45 -17 -6 -89 18 -127 41 -9 6 22 46
41 54 43 17 67 12 67 -15z m-1481 -43 c49 -22 44 -32 -17 -32 -43 0 -82 20
-82 42 0 14 56 9 99 -10z m668 -15 c41 -38 38 -53 -13 -63 -47 -9 -104 17
-104 46 0 12 4 18 10 15 5 -3 17 3 27 15 24 28 37 25 80 -13z m656 -13 c39
-20 83 -44 96 -53 l25 -16 -29 -6 c-55 -12 -155 -9 -189 5 -31 13 -66 49 -66
68 0 5 13 8 30 8 16 0 35 7 42 15 7 8 14 14 16 15 1 0 35 -16 75 -36z m559
-10 c15 -26 26 -34 39 -31 11 3 19 1 19 -4 0 -15 -47 -21 -129 -18 -107 5
-119 19 -50 58 72 41 94 40 121 -5z m299 26 c10 -6 19 -17 19 -25 0 -11 -13
-15 -55 -15 -59 0 -68 10 -33 34 26 19 42 20 69 6z m-1750 -52 c40 -12 49 -22
26 -31 -18 -7 -157 15 -157 24 0 19 79 23 131 7z m663 -20 c14 -6 23 -15 20
-19 -6 -11 -73 -11 -129 -1 l-40 7 25 18 c27 19 76 18 124 -5z m525 6 c13 -12
-20 -23 -49 -18 -30 7 -32 8 -15 21 16 11 50 10 64 -3z"/>
<path d="M2745 11533 c-44 -6 -249 -69 -284 -88 -17 -8 -36 -25 -42 -38 -7
-12 -44 -53 -83 -92 l-71 -69 40 -4 c52 -5 290 27 333 44 29 12 42 11 92 -3
32 -9 65 -13 74 -10 24 10 19 45 -9 63 -22 15 -40 16 -123 9 -195 -17 -228
-11 -180 30 53 46 240 80 352 64 82 -11 119 -25 271 -102 145 -73 182 -87 375
-147 75 -24 208 -77 300 -120 169 -80 237 -104 325 -115 97 -12 161 -27 265
-60 58 -19 190 -55 293 -80 260 -63 388 -108 556 -192 79 -40 151 -73 159 -73
18 0 189 -147 313 -270 140 -139 221 -256 234 -339 4 -27 17 -54 32 -69 24
-24 26 -24 36 -7 5 10 7 53 4 101 -4 70 -11 95 -40 153 -49 96 -241 373 -303
436 -117 119 -310 215 -663 331 -315 104 -304 101 -426 114 -178 19 -258 39
-620 158 -239 79 -345 120 -565 220 -306 138 -475 179 -645 155z"/>
<path d="M2914 11328 c3 -13 6 -26 6 -30 0 -11 68 -43 123 -58 26 -7 50 -17
53 -21 3 -5 -61 -9 -141 -9 -223 0 -357 -39 -437 -128 -45 -50 -54 -77 -34
-98 9 -9 14 -20 11 -25 -3 -4 6 -11 20 -15 19 -5 46 4 101 31 130 64 256 99
354 99 99 0 148 -15 340 -103 69 -32 179 -80 245 -106 105 -42 188 -81 259
-122 12 -7 29 -13 39 -13 10 0 69 -20 132 -45 62 -25 135 -48 161 -52 25 -3
80 -23 121 -45 80 -41 93 -44 125 -27 20 11 20 11 -4 36 -32 35 -80 57 -178
83 -144 39 -721 275 -844 345 -58 33 -106 68 -106 78 0 5 153 -36 195 -53 16
-6 43 -22 60 -34 16 -13 55 -29 85 -36 104 -24 286 -89 548 -194 236 -95 483
-182 569 -200 28 -7 31 -5 26 14 -9 33 -47 56 -125 75 -40 9 -107 33 -150 51
-42 19 -91 37 -107 40 -17 4 -31 12 -31 19 0 7 -12 16 -27 20 -15 3 -32 12
-37 20 -6 7 -45 23 -86 35 -101 30 -322 119 -568 229 -288 130 -460 196 -622
241 -41 11 -76 20 -78 20 -3 0 -2 -10 2 -22z m-237 -253 c-30 -26 -72 -34 -65
-12 4 11 60 36 83 36 6 0 -3 -11 -18 -24z"/>
<path d="M2717 10959 c-71 -10 -148 -50 -170 -89 -9 -15 -17 -31 -17 -34 0
-15 55 -4 103 21 48 25 61 27 167 27 140 -1 263 -31 405 -98 84 -39 95 -42 95
-26 0 10 5 22 10 25 6 4 79 -30 163 -73 83 -44 199 -101 257 -127 128 -57 332
-136 338 -131 2 3 -4 21 -14 41 -22 48 -69 78 -188 120 -112 40 -147 57 -165
79 -8 9 -29 16 -48 16 -43 0 -87 22 -138 69 -22 21 -59 43 -82 50 -24 6 -81
32 -128 56 -90 47 -134 55 -156 29 -15 -18 -37 -15 -120 14 -52 18 -95 26
-214 36 -22 2 -66 0 -98 -5z"/>
<path d="M1500 10718 l-19 -32 31 -13 c40 -17 54 -12 61 23 7 39 -1 54 -29 54
-17 0 -31 -10 -44 -32z"/>
<path d="M2945 10653 c-38 -13 -89 -17 -217 -17 -153 -1 -169 -3 -195 -22 -15
-12 -30 -29 -31 -39 -4 -16 2 -17 50 -11 29 4 107 2 173 -4 186 -17 335 -51
668 -153 32 -9 40 -9 54 6 16 16 15 19 -12 47 -28 30 -89 54 -212 84 -35 9
-82 26 -105 38 l-43 22 50 7 c58 7 201 -4 264 -21 118 -31 210 -89 386 -240
123 -106 201 -162 273 -199 49 -25 57 -23 48 12 -10 41 -46 77 -145 142 -53
36 -148 110 -211 166 -63 56 -146 122 -183 147 l-68 46 -247 3 c-210 2 -255 0
-297 -14z"/>
<path d="M4280 10406 c0 -22 10 -28 92 -57 63 -23 103 -44 129 -69 23 -21 56
-40 85 -48 65 -18 127 -65 215 -167 41 -47 99 -104 129 -126 l55 -41 3 31 c12
122 -265 374 -503 456 -65 22 -154 44 -182 45 -18 0 -23 -6 -23 -24z"/>
<path d="M5083 10409 c-7 -7 -13 -22 -13 -34 0 -17 10 -22 60 -32 83 -16 150
-61 226 -154 35 -42 75 -84 89 -93 13 -9 47 -49 74 -90 27 -40 63 -85 80 -99
32 -27 69 -43 78 -34 14 15 -30 93 -124 219 -125 168 -213 257 -287 292 -65
31 -165 44 -183 25z"/>
<path d="M5410 10367 c0 -22 23 -44 71 -69 68 -34 206 -186 268 -293 65 -116
89 -144 102 -124 21 32 20 60 -4 111 -28 61 -175 247 -238 303 -76 65 -199
110 -199 72z"/>
<path d="M2752 10300 c-24 -5 -59 -19 -78 -31 -61 -37 -33 -44 184 -44 172 0
202 -2 235 -19 69 -34 36 -51 -81 -41 -67 6 -81 5 -96 -10 -28 -29 -14 -40 57
-43 37 -2 67 -7 67 -12 0 -6 -4 -10 -8 -10 -37 0 -248 -33 -292 -46 -51 -15
-130 -76 -130 -101 0 -6 52 1 118 13 209 41 380 57 572 51 147 -4 184 -8 230
-26 56 -21 120 -28 120 -12 0 23 -45 61 -88 74 -26 8 -97 20 -159 26 -61 6
-125 16 -143 23 -28 12 -17 13 103 16 l135 3 78 -35 c45 -21 150 -53 246 -76
204 -48 227 -57 258 -103 13 -19 39 -42 57 -51 44 -21 102 -21 110 0 11 30
-20 65 -89 97 -37 18 -68 37 -68 44 0 11 -13 15 -94 29 -21 4 -54 20 -72 36
-35 31 -122 65 -253 97 -130 33 -236 44 -376 39 l-131 -5 4 27 c3 21 -2 32
-19 43 -59 37 -305 67 -397 47z"/>
<path d="M4798 10303 c-10 -3 -18 -9 -18 -14 0 -5 8 -12 18 -16 9 -3 67 -35
127 -71 213 -125 271 -173 325 -266 32 -56 72 -96 96 -96 10 0 14 14 14 46 0
42 -5 53 -57 113 -144 167 -259 258 -363 289 -43 13 -119 21 -142 15z"/>
<path d="M4313 10073 c-7 -2 -13 -17 -13 -33 0 -24 6 -30 38 -41 58 -19 136
-60 272 -144 125 -78 224 -129 241 -123 20 7 -45 111 -92 148 -59 47 -284 162
-358 184 -57 17 -68 18 -88 9z"/>
<path d="M3380 9911 c0 -39 1 -40 38 -46 97 -15 211 -48 362 -105 130 -49 274
-99 287 -100 1 0 0 19 -2 43 l-3 42 -114 47 c-195 79 -382 134 -520 153 l-48
6 0 -40z"/>
<path d="M2612 9870 c-67 -13 -144 -51 -166 -84 l-16 -26 32 0 c18 0 89 12
158 26 159 33 221 29 347 -20 98 -38 153 -45 173 -21 16 20 7 31 -52 61 -111
56 -344 87 -476 64z"/>
<path d="M2655 9655 c-5 -2 -39 -6 -75 -7 l-65 -3 -3 -43 c-2 -28 1 -42 7 -38
25 16 220 7 316 -14 168 -36 248 -50 252 -46 2 2 -10 20 -27 40 -37 42 -113
80 -190 94 -64 13 -200 23 -215 17z"/>
<path d="M1397 7590 c-14 -42 -16 -71 -6 -99 19 -53 39 -33 39 38 0 42 -25 87
-33 61z"/>
<path d="M7170 6815 c-5 -14 -10 -28 -10 -29 0 -9 183 -60 238 -65 68 -8 78 1
40 36 -34 30 -39 32 -135 52 -48 11 -96 22 -105 26 -13 5 -20 0 -28 -20z"/>
<path d="M4376 6504 c-3 -8 -6 -29 -6 -46 0 -29 -2 -30 -32 -24 -18 3 -61 9
-94 12 -57 6 -63 5 -74 -15 -10 -20 -7 -26 26 -57 20 -19 34 -38 31 -41 -4 -3
-33 4 -66 17 -34 12 -67 20 -76 16 -24 -9 -18 -43 12 -64 16 -11 25 -23 21
-27 -4 -4 -38 -2 -76 5 -73 12 -131 4 -163 -22 -8 -7 -25 -44 -37 -83 -13 -42
-49 -113 -89 -176 -38 -59 -73 -115 -79 -125 -9 -16 -16 -17 -40 -8 -29 10
-30 9 -81 -75 -53 -86 -76 -155 -64 -196 l6 -23 112 42 c69 25 113 46 113 55
0 7 -15 28 -34 46 l-34 32 97 13 c91 12 98 15 108 39 13 36 3 61 -33 77 -26
13 -27 14 -4 10 14 -3 44 -11 68 -18 39 -11 44 -11 64 10 21 21 21 23 5 57
-22 46 -21 52 4 65 16 9 34 7 84 -11 72 -26 95 -19 95 31 l0 27 158 0 c88 0
164 3 170 7 7 4 12 25 12 46 0 28 5 42 19 49 23 13 38 -2 43 -43 l3 -30 152 0
c84 -1 153 3 153 7 0 4 11 19 24 32 l25 24 48 -21 c52 -23 138 -27 185 -9 25
9 32 5 95 -55 l68 -66 -73 -66 c-73 -67 -86 -94 -63 -131 7 -12 17 -9 54 12
70 42 105 32 66 -17 -17 -21 -19 -29 -9 -41 18 -22 37 -18 56 10 19 29 49 32
82 9 29 -20 28 -47 -3 -100 l-25 -43 -76 36 c-170 78 -366 108 -647 100 -209
-6 -333 -26 -455 -74 -37 -14 -96 -28 -132 -32 l-64 -6 -63 -75 c-109 -129
-192 -323 -229 -530 -12 -72 -12 -76 8 -98 30 -31 78 -42 196 -42 119 0 120 1
71 89 -18 30 -35 68 -40 84 -7 25 -6 28 9 21 78 -33 170 -40 354 -26 l87 7 39
44 c140 156 178 334 108 502 -6 14 0 15 55 7 90 -12 135 -26 211 -64 128 -64
230 -201 260 -348 l13 -58 -30 -24 c-17 -13 -51 -31 -77 -40 -27 -8 -48 -19
-48 -23 0 -14 37 -42 66 -50 46 -12 90 3 204 73 59 36 113 66 118 66 21 0 23
21 7 78 -41 143 -144 254 -330 355 l-70 38 69 -6 c210 -20 388 -111 415 -212
19 -71 48 -67 134 23 62 63 81 69 75 22 -3 -18 -9 -42 -13 -52 -7 -17 -5 -18
21 -13 16 4 39 9 50 13 20 5 23 1 28 -43 9 -67 -12 -141 -46 -166 -15 -12 -30
-18 -33 -15 -4 3 1 31 10 62 17 59 13 96 -10 96 -19 0 -39 -33 -59 -96 -19
-59 -44 -96 -53 -76 -2 7 -11 19 -20 27 -22 22 -43 6 -100 -77 -28 -40 -68
-92 -89 -115 -42 -46 -58 -51 -246 -68 -70 -7 -84 -19 -53 -45 11 -9 40 -11
100 -8 111 7 112 -9 6 -82 l-34 -24 -70 18 c-58 15 -71 16 -78 5 -16 -26 -5
-43 34 -53 37 -9 36 -40 -3 -56 -29 -12 -194 -10 -206 3 -3 2 9 26 25 53 17
26 31 54 31 60 0 20 -52 -2 -99 -42 -23 -20 -56 -38 -76 -41 -22 -4 -40 -14
-47 -27 -21 -42 -55 -69 -169 -137 -150 -88 -219 -162 -125 -134 65 20 110 45
235 134 121 86 148 99 178 83 10 -5 36 -12 58 -16 99 -16 93 -13 82 -55 -14
-50 -4 -75 26 -66 49 15 95 23 159 29 l68 7 -10 -27 c-6 -15 -9 -29 -6 -31 9
-10 47 10 93 48 53 44 102 57 140 40 l26 -12 -22 -16 c-13 -8 -34 -16 -48 -17
-21 -1 -24 -4 -19 -30 3 -16 6 -37 6 -47 0 -19 1 -19 38 0 20 10 96 33 167 50
72 18 138 34 148 37 15 5 17 1 11 -20 -6 -25 -5 -26 22 -16 16 6 51 33 79 59
28 27 61 52 73 55 17 6 22 15 22 44 0 61 40 109 138 166 21 12 -7 -47 -68
-143 -28 -46 -60 -103 -70 -126 -24 -56 -83 -85 -245 -121 -136 -30 -195 -55
-195 -83 0 -10 7 -21 15 -25 18 -7 94 7 154 28 47 17 131 22 131 7 0 -22 -64
-60 -143 -84 -97 -31 -122 -51 -92 -74 28 -20 77 -11 168 33 42 19 86 34 99
32 21 -3 16 -10 -48 -78 -73 -77 -94 -107 -94 -134 0 -12 5 -13 28 -5 39 13
89 69 145 159 29 47 60 84 84 99 63 41 83 63 83 92 0 17 15 45 40 75 29 35 40
58 40 82 0 37 -21 52 -45 32 -29 -24 -26 -2 6 61 37 75 81 142 119 184 15 17
31 47 34 67 11 63 76 81 95 27 14 -41 32 -33 54 27 24 63 34 74 68 74 22 0 39
14 84 66 96 113 157 219 200 348 14 42 36 87 50 100 27 27 30 42 15 66 -22 35
-94 -72 -175 -262 -20 -47 -52 -104 -71 -126 -36 -42 -101 -88 -111 -79 -9 10
44 115 114 226 88 140 122 215 134 296 18 111 4 101 -82 -55 -56 -104 -115
-190 -130 -190 -5 0 -9 8 -9 19 0 10 -7 24 -15 31 -24 20 -18 49 15 68 16 9
30 22 30 28 0 6 7 33 15 61 10 35 35 73 84 130 68 78 111 145 111 171 0 20
-112 -45 -165 -96 -61 -58 -80 -101 -109 -235 -13 -63 -32 -130 -42 -148 l-18
-34 -9 42 c-9 37 -4 62 41 210 48 155 82 313 82 373 0 53 -20 100 -51 115 -23
12 -30 13 -33 3 -3 -7 -7 -83 -9 -168 -5 -166 -26 -263 -67 -312 -20 -23 -20
-23 -36 -3 -9 11 -28 45 -44 76 -40 78 -100 116 -100 64 0 -30 14 -59 64 -134
36 -53 48 -112 26 -126 -5 -3 -10 1 -10 9 0 9 -4 16 -10 16 -5 0 -10 -4 -10
-10 0 -28 -18 -2 -44 63 -63 157 -180 309 -282 366 -37 21 -42 28 -47 70 -8
67 -35 131 -56 131 -10 0 -28 -11 -41 -25 l-23 -24 -21 31 c-37 55 -67 70
-134 69 l-60 -1 -12 45 c-17 62 -63 131 -102 155 -56 34 -78 23 -78 -36 0 -50
-58 -40 -95 17 -21 32 -63 59 -92 59 -9 0 -43 -26 -75 -57 -32 -32 -58 -51
-58 -43 0 8 14 27 31 41 31 25 32 27 18 57 -17 39 -34 40 -71 5 l-28 -27 -42
25 c-39 22 -51 24 -138 20 -148 -7 -172 -6 -211 2 -29 6 -38 4 -43 -9z m1258
-436 c9 -12 16 -42 16 -66 0 -36 -3 -43 -17 -38 -63 17 -85 17 -117 -2 -28
-17 -36 -18 -57 -6 -13 7 -46 21 -74 29 -27 9 -57 19 -65 21 -11 4 -9 9 10 19
31 18 68 18 100 2 22 -11 27 -10 41 7 15 18 20 18 62 7 52 -15 67 -10 67 25 0
30 14 31 34 2z m-274 -151 c0 -18 -21 -37 -41 -37 -22 0 -33 16 -25 35 7 19
66 20 66 2z m269 -36 c25 -18 45 -66 36 -89 -8 -21 -42 7 -76 61 -16 26 -29
50 -29 53 0 9 43 -6 69 -25z m141 8 c6 -11 10 -29 8 -40 -3 -18 -4 -19 -25 -4
-26 18 -32 65 -8 65 8 0 19 -9 25 -21z m-315 -21 c52 -23 18 -60 -35 -38 -33
14 -36 20 -18 38 15 15 21 15 53 0z m128 -118 c24 -23 40 -90 21 -90 -16 0
-58 54 -73 93 -10 27 -10 28 11 22 13 -4 31 -15 41 -25z m295 -5 c52 -45 94
-131 128 -262 l27 -101 -44 -52 c-24 -29 -56 -58 -71 -66 -27 -14 -28 -13 -28
9 0 14 14 41 30 62 38 47 35 67 -10 81 l-35 12 -7 78 c-3 44 -12 95 -18 114
-14 42 -29 160 -20 160 4 0 25 -16 48 -35z m-128 -21 c0 -24 -25 -84 -34 -81
-6 2 -12 22 -14 45 -3 39 -1 42 22 42 14 0 26 -3 26 -6z m-191 -111 c15 -41
14 -42 -20 -87 -19 -25 -38 -46 -42 -46 -5 0 -22 13 -38 29 -37 38 -38 79 -3
121 21 25 33 30 58 28 26 -3 33 -9 45 -45z m-1129 -24 c12 -30 24 -83 27 -126
13 -163 -55 -280 -183 -316 -74 -21 -126 -22 -188 -3 -100 30 -156 95 -156
179 0 77 9 85 39 31 15 -28 45 -61 69 -79 41 -28 50 -30 132 -30 49 0 91 3 95
7 4 4 10 36 12 71 7 80 -8 100 -67 91 -32 -5 -40 -3 -49 14 -18 33 18 52 85
45 87 -9 109 28 54 90 -51 59 -40 74 56 76 l52 1 22 -51z m1347 3 c37 -24 35
-113 -5 -162 -17 -21 -19 -21 -32 -4 -18 20 -18 84 -1 137 13 38 18 42 38 29z
m83 -215 c0 -27 -26 -49 -54 -45 l-28 3 22 28 c22 28 60 37 60 14z m316 -11
c7 -28 -18 -81 -41 -90 -9 -3 -25 -6 -35 -6 -16 0 -17 4 -10 30 11 40 48 90
65 90 8 0 17 -11 21 -24z m109 -46 c10 -31 -3 -75 -31 -100 l-24 -23 0 27 c0
45 22 116 36 116 7 0 16 -9 19 -20z m-465 -100 c0 -21 -11 -40 -42 -70 -23
-22 -46 -40 -51 -40 -11 0 1 56 19 92 27 52 74 64 74 18z m143 -122 c-17 -31
-48 -66 -78 -88 -51 -39 -135 -85 -135 -75 0 32 97 172 179 259 l56 58 3 -51
c2 -41 -3 -62 -25 -103z m217 93 c0 -10 -11 -23 -24 -29 -32 -14 -51 -44 -76
-117 -21 -62 -44 -95 -67 -95 -24 0 -14 54 27 139 22 45 40 88 40 95 0 8 10
11 28 8 18 -2 33 2 41 12 16 19 31 12 31 -13z m60 -72 c16 -29 -5 -79 -32 -79
-17 0 -19 4 -13 23 4 12 9 34 12 50 6 32 18 35 33 6z m-580 -4 c0 -19 -35 -68
-67 -94 -33 -27 -38 -29 -46 -15 -14 25 16 78 55 97 33 17 58 22 58 12z m-210
-70 c0 -28 -32 -65 -55 -65 -12 0 -13 4 -6 18 5 10 17 24 25 32 9 7 16 19 16
26 0 8 5 14 10 14 6 0 10 -11 10 -25z m259 -77 c-32 -78 -42 -94 -72 -109 -17
-10 -18 -8 -12 13 29 93 49 131 79 149 17 10 32 19 32 19 1 0 -11 -32 -27 -72z
m-150 -80 c-21 -39 -81 -51 -98 -19 -12 22 -5 31 23 31 12 1 32 7 46 15 29 16
44 2 29 -27z m-206 -15 c-11 -32 -34 -61 -51 -68 -26 -11 -82 -23 -82 -18 0
18 37 67 63 83 42 26 79 27 70 3z m495 -13 c-5 -17 -22 -39 -37 -49 -29 -21
-142 -73 -147 -68 -2 2 4 19 14 38 13 26 34 42 92 71 41 20 78 37 82 38 4 0 2
-14 -4 -30z m-251 -97 c7 -18 -47 -73 -72 -73 -22 0 -19 11 16 53 34 41 46 45
56 20z m-157 -18 c0 -3 -7 -21 -15 -41 -16 -38 -62 -64 -116 -64 l-31 0 19 32
c24 42 78 78 114 78 16 0 29 -2 29 -5z m-216 -44 c3 -5 -5 -24 -17 -42 -25
-38 -91 -65 -132 -55 -22 6 -23 9 -13 36 16 46 53 70 109 70 26 0 50 -4 53 -9z
m499 -50 c-20 -27 -140 -75 -172 -69 -28 6 34 54 112 87 77 32 93 27 60 -18z
m-225 -68 c3 -21 -1 -23 -42 -23 -51 0 -58 11 -23 35 30 21 61 15 65 -12z
m359 -140 c-18 -34 -44 -58 -74 -67 -32 -10 -38 12 -12 41 23 24 91 65 97 58
2 -2 -3 -16 -11 -32z"/>
<path d="M5155 5999 c-11 -4 -32 -8 -47 -8 -22 -1 -28 -6 -28 -22 0 -12 -16
-36 -36 -54 -28 -26 -34 -37 -29 -58 6 -23 10 -25 33 -16 40 15 92 69 114 117
22 49 21 53 -7 41z"/>
<path d="M4876 5898 c-52 -52 -48 -85 10 -69 22 6 30 15 35 41 4 19 4 41 -1
49 -6 12 -15 8 -44 -21z"/>
<path d="M6700 5438 c-35 -40 -78 -87 -97 -104 -28 -24 -36 -40 -38 -71 -2
-27 -16 -60 -39 -94 -20 -30 -36 -59 -36 -66 0 -6 -27 -26 -60 -44 -67 -36
-95 -69 -86 -105 4 -13 10 -24 15 -24 15 0 83 50 153 113 51 47 69 71 74 97
12 60 39 112 104 195 88 113 116 175 81 175 -5 0 -36 -33 -71 -72z"/>
<path d="M6737 5088 c-86 -156 -135 -268 -168 -387 -12 -42 -31 -87 -44 -101
-34 -36 -54 -78 -48 -101 5 -19 6 -19 25 -2 32 29 98 130 128 197 32 71 160
426 160 444 0 28 -20 8 -53 -50z"/>
<path d="M6562 4992 c-40 -81 -73 -153 -72 -160 0 -23 59 27 95 82 45 67 85
227 58 226 -5 -1 -41 -67 -81 -148z"/>
<path d="M6858 5109 c-10 -6 -18 -22 -18 -38 0 -17 -11 -38 -30 -56 -35 -33
-60 -83 -60 -119 0 -34 12 -33 49 5 37 37 72 95 100 167 l21 52 -23 0 c-12 0
-30 -5 -39 -11z"/>
<path d="M1705 5074 c-65 -33 -91 -58 -126 -119 -32 -56 -38 -105 -13 -105 21
0 71 53 109 116 18 30 43 56 65 66 45 22 60 35 60 53 0 22 -39 18 -95 -11z"/>
<path d="M6985 5052 c-36 -22 -89 -81 -110 -123 -9 -16 -19 -53 -22 -81 l-6
-50 25 16 c14 9 39 34 56 56 31 38 112 177 112 193 0 12 -24 8 -55 -11z"/>
<path d="M2024 4958 c-56 -57 -112 -123 -126 -148 -56 -99 -80 -233 -47 -265
15 -15 19 -9 48 77 55 159 120 260 200 314 50 34 67 63 59 101 -7 38 -37 21
-134 -79z"/>
<path d="M920 5035 c-36 -7 -98 -23 -138 -35 -65 -20 -78 -28 -128 -83 -86
-96 -166 -205 -209 -288 l-38 -75 22 -30 c15 -21 24 -54 32 -119 7 -67 19
-109 47 -169 37 -81 37 -81 37 -216 0 -129 10 -180 34 -180 18 0 41 82 41 148
0 37 -11 137 -25 222 -30 189 -33 270 -8 270 45 0 103 43 173 131 86 108 116
129 188 129 46 0 52 -2 52 -21 0 -28 -16 -56 -40 -69 -16 -9 -19 -7 -17 17 2
21 -3 29 -19 31 -18 3 -27 -15 -73 -140 -136 -368 -161 -467 -161 -630 0 -109
0 -111 19 -94 11 10 25 41 31 69 14 57 38 117 49 117 4 0 5 -48 3 -106 -4 -87
-2 -106 9 -102 33 10 49 70 49 188 0 76 7 145 20 202 51 231 173 498 227 498
11 0 13 -7 8 -32 -20 -102 -44 -181 -101 -340 -83 -231 -104 -313 -111 -429
l-6 -97 -56 -11 c-149 -29 -132 -101 25 -101 65 0 84 -3 96 -17 8 -10 25 -76
37 -146 13 -70 31 -156 40 -190 17 -58 20 -62 54 -69 20 -4 64 -19 97 -33 32
-14 78 -25 101 -25 l41 0 -38 68 c-60 108 -66 121 -71 162 -4 26 0 46 11 61
10 15 16 44 16 81 0 47 4 59 20 68 17 9 22 5 39 -28 23 -46 104 -123 157 -150
64 -32 140 -45 228 -39 44 3 89 8 98 12 14 5 18 -2 23 -42 8 -65 20 -90 45
-98 44 -14 100 67 100 142 -1 54 -27 106 -108 208 -40 50 -79 104 -87 122 -25
52 -19 119 25 244 47 134 50 179 15 240 -14 24 -34 63 -45 87 -10 23 -25 42
-31 42 -6 0 -46 16 -89 35 -73 33 -170 49 -170 27 0 -4 -7 -62 -16 -127 -23
-182 -83 -295 -84 -158 0 31 5 46 20 56 12 9 18 20 14 30 -3 9 4 50 15 91 24
89 26 125 7 151 -12 17 -15 14 -36 -41 -40 -106 -89 -255 -146 -444 -49 -161
-55 -189 -45 -216 16 -44 14 -110 -5 -145 l-15 -31 -35 39 c-33 37 -35 40 -30
101 8 94 58 279 146 544 44 130 80 241 80 247 0 18 -15 13 -56 -20 -33 -26
-44 -45 -72 -127 -53 -157 -118 -391 -142 -508 -11 -60 -23 -114 -25 -121 -5
-17 -89 28 -93 50 -2 9 15 83 38 164 44 153 208 663 214 663 2 0 23 -9 47 -20
24 -11 63 -20 86 -20 l42 0 3 43 c3 38 6 42 32 45 19 2 36 -4 53 -20 24 -23
25 -23 39 -4 39 53 -1 117 -121 197 -44 30 -104 73 -133 97 -59 49 -148 83
-215 81 -23 0 -71 -7 -107 -14z m640 -985 c0 -19 -11 -26 -23 -14 -8 8 3 34
14 34 5 0 9 -9 9 -20z m69 -467 c-8 -9 -16 -10 -22 -4 -13 13 0 31 19 24 11
-4 12 -8 3 -20z"/>
<path d="M2218 4958 c-19 -29 -56 -91 -83 -137 -28 -47 -77 -112 -110 -145
-32 -33 -60 -67 -60 -76 -1 -8 -2 -22 -3 -31 -1 -9 -27 -53 -57 -99 -50 -76
-76 -142 -61 -157 12 -12 87 71 148 162 61 90 115 155 130 155 13 0 9 -108 -6
-143 -7 -18 -41 -65 -75 -104 -56 -65 -91 -124 -91 -154 0 -22 55 2 95 42 23
21 46 39 51 39 7 0 14 -43 18 -109 3 -60 20 -210 37 -333 16 -123 33 -278 36
-345 l6 -122 26 -3 c22 -3 26 -8 29 -42 3 -31 -3 -46 -27 -77 -43 -52 -52 -80
-35 -103 7 -11 25 -49 39 -87 42 -108 105 -157 105 -81 0 38 29 97 30 60 0
-21 27 -48 47 -48 14 0 15 11 9 75 -5 58 -3 81 9 105 19 36 25 37 75 5 47 -30
51 -54 15 -101 -14 -18 -25 -42 -25 -54 0 -21 0 -21 31 -3 47 27 121 123 191
250 35 63 87 153 117 201 30 47 62 110 72 139 21 59 25 148 7 159 -18 12 -65
-50 -85 -112 -9 -31 -29 -69 -44 -85 -18 -20 -28 -44 -33 -81 -15 -108 -86
-123 -86 -18 0 25 23 70 93 184 37 60 47 114 27 146 -11 18 -10 20 -58 -76
-49 -98 -91 -152 -103 -132 -13 20 -10 96 6 163 19 77 19 89 0 81 -8 -3 -22
-9 -30 -12 -29 -12 -18 55 15 93 45 51 39 115 -7 71 -17 -16 -26 -19 -34 -11
-19 19 0 70 57 147 64 88 77 120 69 164 -6 33 -7 34 -27 15 -11 -10 -30 -38
-43 -63 -30 -59 -75 -105 -87 -88 -19 31 -8 80 32 135 42 59 55 123 26 123
-25 0 -73 -49 -117 -118 -75 -121 -106 -142 -94 -64 9 66 34 116 94 195 57 74
90 139 91 175 0 49 -57 14 -97 -59 -27 -51 -76 -89 -88 -69 -12 20 8 76 45
125 48 64 60 88 60 119 0 34 -31 35 -62 1 -37 -40 -48 -21 -37 65 7 62 6 78
-7 99 -16 24 -17 24 -31 5 -7 -10 -23 -50 -34 -89 -11 -38 -29 -79 -40 -89
-18 -19 -19 -19 -38 -2 -19 17 -20 17 -33 -3 -20 -32 -28 -25 -28 24 0 38 7
52 45 100 62 76 82 119 65 140 -21 25 -36 17 -72 -37z m87 -418 c-15 -29 -40
-44 -56 -34 -15 9 -10 34 11 65 20 26 22 27 40 12 17 -15 17 -19 5 -43z m5
-119 c15 -29 12 -104 -6 -129 -8 -12 -24 -22 -35 -22 -16 0 -19 7 -19 48 0 96
33 153 60 103z m26 -289 c-6 -44 -34 -102 -48 -102 -16 0 -30 55 -25 97 2 24
12 55 22 70 l18 27 19 -25 c16 -19 19 -33 14 -67z m134 -31 c0 -50 -51 -130
-84 -131 -16 0 4 94 31 149 24 50 27 53 39 36 8 -11 14 -35 14 -54z m-132
-133 c20 -20 15 -91 -8 -116 -32 -34 -40 -27 -40 41 0 56 11 87 30 87 3 0 11
-5 18 -12z m162 -56 c0 -30 -5 -40 -29 -53 -28 -16 -28 -16 -23 4 4 16 2 19
-11 14 -10 -4 -17 -1 -17 5 0 17 61 78 72 72 4 -3 8 -22 8 -42z m-253 -149
c-2 -16 -4 -5 -4 22 0 28 2 40 4 28 2 -13 2 -35 0 -50z m293 -10 c0 -46 -25
-92 -57 -104 -52 -20 -52 33 0 107 35 49 57 48 57 -3z m-156 21 c7 -17 -15
-64 -39 -84 -14 -11 -18 -11 -25 -1 -7 12 4 72 17 94 8 13 41 7 47 -9z m196
-219 c12 -35 11 -37 -34 -79 -28 -25 -46 -51 -46 -64 0 -24 -19 -29 -38 -10
-26 26 -13 67 41 127 28 33 55 60 59 60 3 1 12 -15 18 -34z m-210 -40 c26 -31
-7 -94 -57 -109 -22 -7 -23 -5 -23 43 0 28 3 50 8 50 20 -3 32 2 32 16 0 19
24 19 40 0z m268 -118 c17 -30 18 -38 7 -71 -7 -21 -20 -45 -28 -54 -7 -9 -17
-25 -20 -34 -9 -25 -31 -13 -60 31 l-26 38 40 53 c21 28 39 56 39 61 0 21 30
6 48 -24z m-218 -50 c14 -25 13 -30 -5 -64 -24 -44 -37 -50 -60 -27 -19 20
-15 63 11 102 18 28 34 25 54 -11z m-116 -113 c24 -23 30 -61 16 -95 -13 -30
-13 -30 -32 -12 -31 31 -37 123 -9 123 5 0 17 -7 25 -16z"/>
<path d="M6265 4876 c-24 -10 -55 -50 -55 -70 0 -13 36 -14 63 -2 36 15 51 31
61 64 6 18 4 22 -16 22 -13 -1 -37 -7 -53 -14z"/>
<path d="M4123 4820 c-105 -38 -141 -57 -180 -93 -46 -41 -39 -40 166 21 53
15 131 75 131 100 0 16 0 16 -117 -28z"/>
<path d="M6994 4811 c-40 -24 -71 -64 -79 -102 -11 -49 7 -53 53 -13 45 38 59
59 72 105 10 35 -1 37 -46 10z"/>
<path d="M4090 4693 c-92 -16 -130 -37 -130 -74 0 -15 7 -19 33 -19 42 1 113
33 126 58 13 24 14 43 4 41 -5 -1 -19 -4 -33 -6z"/>
<path d="M6657 4651 c-21 -25 -82 -179 -74 -187 1 -2 16 4 33 12 36 17 69 72
79 129 4 22 9 48 12 58 7 28 -22 20 -50 -12z"/>
<path d="M4629 4542 c-13 -10 -61 -38 -106 -62 -75 -38 -143 -96 -143 -120 0
-13 -6 -14 85 21 97 37 151 67 188 107 45 47 25 92 -24 54z"/>
<path d="M6954 4541 c-34 -20 -67 -80 -62 -111 3 -20 4 -20 38 -3 40 21 80 75
80 109 0 29 -15 30 -56 5z"/>
<path d="M6669 4363 c-34 -21 -57 -60 -65 -112 l-7 -43 30 16 c39 20 81 70 89
104 3 15 7 33 10 40 5 17 -26 15 -57 -5z"/>
<path d="M7780 4341 c-35 -18 -78 -76 -66 -88 9 -9 82 15 95 31 7 8 16 28 21
45 10 37 1 39 -50 12z"/>
<path d="M5880 4293 c0 -5 -39 -53 -86 -108 -47 -55 -97 -119 -110 -141 -14
-24 -38 -47 -55 -54 -49 -21 -66 -81 -22 -80 34 1 66 27 117 96 30 41 64 75
84 83 24 11 32 21 32 40 0 18 15 40 50 72 36 33 50 53 50 72 0 23 -4 27 -30
27 -16 0 -30 -3 -30 -7z"/>
<path d="M6976 4191 c-51 -41 -65 -61 -131 -181 -65 -119 -75 -133 -75 -102 0
55 -83 1 -123 -81 -48 -98 -53 -264 -11 -389 20 -61 64 -122 111 -152 38 -24
123 -45 123 -29 0 4 -31 71 -70 148 -67 134 -90 205 -90 280 0 27 5 35 28 44
15 7 40 19 56 27 21 12 34 14 51 6 22 -10 24 -7 40 41 19 59 50 106 130 197
31 36 64 80 74 98 9 18 32 40 51 50 25 12 36 25 38 45 4 37 -15 35 -69 -8 -24
-19 -47 -35 -51 -35 -5 0 -8 16 -8 35 0 45 -23 47 -74 6z m54 -68 c0 -10 -32
-43 -42 -43 -13 0 -9 17 8 34 16 16 34 21 34 9z m-265 -276 c0 -26 -20 -25
-23 2 -3 16 1 22 10 19 7 -3 13 -12 13 -21z"/>
<path d="M6651 4164 c-27 -34 -28 -84 -3 -84 27 0 52 32 59 74 5 32 3 36 -15
36 -11 0 -30 -12 -41 -26z"/>
<path d="M7145 4113 c-10 -16 -42 -58 -71 -94 -59 -72 -93 -139 -94 -181 0
-36 9 -35 47 5 40 42 79 103 137 210 47 86 47 87 23 87 -16 0 -31 -10 -42 -27z"/>
<path d="M7203 3970 c-26 -16 -73 -83 -73 -105 0 -16 53 -1 81 22 26 22 59 76
59 98 0 12 -37 4 -67 -15z"/>
<path d="M5203 3727 c-29 -16 -66 -65 -58 -77 8 -13 41 -13 66 0 19 10 49 59
49 80 0 13 -30 12 -57 -3z"/>
<path d="M7135 3580 c-129 -14 -231 -72 -255 -146 -11 -33 -10 -38 16 -66 46
-49 98 -68 184 -67 127 2 149 15 105 67 -14 16 -25 37 -25 46 0 40 97 46 234
16 118 -26 146 -26 146 0 0 31 -75 97 -136 120 -30 11 -80 22 -112 26 -31 3
-66 6 -77 8 -11 2 -47 0 -80 -4z"/>
<path d="M1808 2979 l-37 -30 -28 20 c-33 25 -93 39 -93 22 0 -19 33 -95 69
-156 34 -59 116 -155 132 -155 4 0 12 19 16 42 5 23 13 43 19 45 5 2 20 -21
33 -52 21 -51 25 -55 56 -55 18 0 61 9 96 20 35 10 84 22 107 26 l44 7 -7 35
c-4 20 -22 66 -40 103 -33 64 -36 67 -70 67 -23 0 -53 11 -85 32 -41 26 -56
31 -85 26 -28 -6 -36 -3 -45 14 -15 28 -39 25 -82 -11z m42 -120 c0 -5 -7 -9
-15 -9 -15 0 -20 12 -9 23 8 8 24 -1 24 -14z m250 -84 c0 -8 -6 -15 -14 -15
-17 0 -28 14 -19 24 12 12 33 6 33 -9z"/>
<path d="M6930 1996 c-66 -19 -126 -51 -206 -112 -39 -30 -74 -54 -77 -54 -3
0 -3 9 0 20 13 49 -46 6 -122 -90 -39 -49 -80 -85 -142 -126 -123 -79 -180
-135 -198 -193 l-7 -24 38 23 c22 13 95 65 164 115 130 96 168 120 177 111 3
-2 -15 -27 -40 -53 -43 -45 -74 -100 -63 -110 8 -8 50 18 89 56 22 20 70 79
108 132 109 154 197 219 295 219 28 0 58 -6 68 -13 16 -12 10 -18 -64 -67 -86
-56 -124 -96 -135 -143 -7 -27 -6 -28 21 -21 46 10 98 48 154 113 49 55 150
125 150 103 0 -18 -60 -91 -110 -133 -54 -45 -116 -126 -106 -136 3 -4 24 -1
46 6 29 9 58 32 112 92 40 45 91 92 114 105 39 23 43 24 78 9 42 -18 117 -16
123 2 6 17 -74 94 -130 127 -90 53 -233 71 -337 42z"/>
<path d="M6585 1499 c-79 -79 -209 -171 -329 -231 -84 -41 -136 -82 -136 -105
0 -17 22 -16 87 1 79 21 150 57 264 133 85 57 106 77 117 107 7 20 17 36 21
36 4 0 24 15 44 34 27 25 37 42 37 65 0 49 -28 39 -105 -40z"/>
<path d="M6272 1420 c-79 -57 -131 -87 -176 -100 -82 -26 -116 -52 -116 -91 0
-23 4 -29 23 -29 39 1 129 45 238 117 59 39 118 73 132 77 18 4 26 14 29 38 5
34 0 68 -11 68 -4 0 -57 -36 -119 -80z"/>
<path d="M8000 1203 c-61 -30 -132 -113 -187 -220 -29 -55 -53 -103 -53 -107
0 -9 43 -7 57 2 7 4 23 33 37 64 15 35 53 86 100 136 78 84 117 142 94 142 -7
0 -29 -8 -48 -17z"/>
<path d="M8043 1080 c-67 -38 -128 -110 -197 -230 -31 -55 -56 -101 -56 -104
0 -8 45 7 71 25 14 10 44 44 65 76 21 32 64 92 95 133 58 77 83 119 77 125 -2
2 -27 -9 -55 -25z"/>
<path d="M8124 951 c-115 -85 -375 -414 -348 -441 22 -21 192 157 288 302 19
28 45 54 67 64 37 16 59 48 59 84 0 28 -20 25 -66 -9z"/>
<path d="M7900 557 c-36 -24 -64 -65 -74 -109 -6 -27 -5 -27 21 -17 50 19 82
59 97 122 8 33 -1 34 -44 4z"/>
<path d="M6117 474 c-11 -11 13 -43 44 -60 35 -18 35 -18 44 17 5 21 2 27 -20
37 -28 13 -58 16 -68 6z"/>
</g>
</svg>
