<?xml version="1.0" standalone="no"?>
<!DOCTYPE svg PUBLIC "-//W3C//DTD SVG 20010904//EN"
 "http://www.w3.org/TR/2001/REC-SVG-20010904/DTD/svg10.dtd">
<svg version="1.0" xmlns="http://www.w3.org/2000/svg"
 width="1050.000000pt" height="1280.000000pt" viewBox="0 0 1050.000000 1280.000000"
 preserveAspectRatio="xMidYMid meet">
<metadata>
Created by potrace 1.15, written by Peter Selinger 2001-2017
</metadata>
<g transform="translate(0.000000,1280.000000) scale(0.100000,-0.100000)"
fill="#000000" stroke="none">
<path d="M6252 12764 c-35 -42 -36 -49 -22 -109 5 -22 14 -148 20 -280 6 -132
18 -276 26 -321 16 -90 18 -182 5 -203 -5 -8 -4 -26 4 -45 30 -70 69 -694 69
-1103 l1 -322 54 -7 c54 -7 152 -1 171 11 13 8 13 546 0 875 -6 135 -24 472
-40 750 -17 278 -34 561 -38 630 l-7 124 -42 12 c-23 7 -70 15 -106 19 l-64 7
-31 -38z"/>
<path d="M5565 12766 c-58 -25 -61 -37 -32 -134 17 -55 32 -144 42 -241 9 -85
18 -158 21 -162 3 -5 9 -91 14 -191 5 -101 21 -262 35 -358 29 -194 48 -470
34 -485 -14 -15 -10 -33 9 -39 15 -5 17 -16 13 -83 -1 -43 3 -109 10 -148 15
-82 16 -224 2 -250 -7 -12 -6 -31 3 -63 8 -25 14 -87 14 -138 0 -51 4 -104 10
-118 13 -34 50 -42 101 -22 22 9 62 16 90 15 27 -1 52 1 57 5 15 16 4 413 -18
636 -12 124 -26 353 -30 510 -7 242 -13 306 -35 425 -22 117 -28 185 -34 410
-8 231 -12 279 -30 335 -34 109 -36 110 -149 110 -57 -1 -109 -6 -127 -14z"/>
<path d="M5064 12726 c-3 -9 -37 -18 -99 -26 -52 -6 -143 -23 -202 -36 -60
-14 -184 -40 -277 -59 -197 -41 -397 -90 -585 -146 -74 -21 -149 -39 -168 -39
-19 0 -50 -8 -71 -19 -20 -10 -116 -44 -212 -76 -96 -31 -209 -75 -250 -96
-41 -21 -138 -62 -215 -90 -314 -115 -664 -282 -949 -453 -94 -57 -170 -96
-185 -96 -22 0 -29 -6 -36 -32 -7 -22 -33 -50 -78 -88 -38 -30 -75 -66 -82
-80 -8 -14 -14 -53 -15 -88 0 -35 -4 -71 -10 -81 -6 -12 -4 -34 5 -66 10 -32
15 -94 15 -180 0 -115 3 -141 24 -196 13 -35 31 -109 40 -164 17 -102 81 -439
117 -620 11 -55 36 -156 56 -224 26 -92 34 -136 31 -172 -4 -42 -3 -48 15 -51
16 -2 26 -22 47 -88 39 -124 178 -497 206 -551 29 -58 73 -111 88 -106 6 3 61
42 121 88 143 108 356 247 525 344 173 98 532 275 725 356 83 34 161 73 175
85 35 32 205 114 383 186 84 33 386 138 672 234 286 95 541 181 568 191 l47
18 -6 60 c-9 87 -28 215 -63 420 -17 99 -42 281 -56 405 -14 124 -35 281 -46
350 -11 69 -23 166 -25 215 -3 50 -12 110 -20 135 -16 53 -48 312 -64 530 -21
286 -32 320 -101 320 -24 0 -42 -5 -45 -14z"/>
<path d="M6985 12730 c-30 -5 -30 -5 -30 -75 1 -39 6 -137 13 -220 20 -256 32
-773 32 -1436 l0 -636 158 -6 c295 -12 505 -65 752 -189 74 -37 140 -68 147
-68 6 0 34 -22 62 -50 71 -71 122 -80 134 -23 4 15 16 62 27 103 23 82 116
721 155 1058 30 258 48 614 43 829 -3 141 -6 163 -26 205 -31 63 -79 102 -209
173 -60 32 -119 66 -133 75 -14 10 -45 20 -70 23 -25 4 -88 20 -140 37 -174
57 -452 130 -624 164 -188 38 -246 45 -291 36z"/>
<path d="M6760 10260 c-63 -4 -205 -8 -315 -9 -227 -2 -302 -10 -409 -46 -46
-15 -97 -25 -133 -25 -61 0 -395 -76 -489 -112 -29 -10 -113 -30 -188 -44 -82
-15 -197 -45 -293 -78 -87 -30 -239 -80 -338 -111 -244 -77 -400 -141 -590
-240 -88 -46 -187 -93 -220 -106 -33 -12 -127 -57 -210 -100 -82 -42 -175 -85
-206 -94 -50 -14 -96 -39 -166 -90 -12 -9 -44 -22 -72 -30 -28 -7 -68 -26 -88
-43 -21 -16 -105 -64 -188 -107 -144 -76 -287 -163 -300 -185 -7 -11 -205
-113 -243 -125 -36 -11 -112 -92 -112 -120 0 -13 -4 -35 -10 -50 -7 -19 -6
-34 5 -55 19 -37 19 -99 0 -170 -23 -84 -18 -168 16 -313 23 -97 31 -152 29
-207 -7 -273 -7 -276 38 -428 23 -79 42 -161 42 -182 0 -27 10 -52 34 -88 l35
-50 -39 -77 c-22 -43 -45 -103 -52 -134 -16 -72 -15 -269 1 -389 7 -51 11 -96
8 -99 -3 -3 -47 20 -98 51 -143 87 -201 94 -315 42 -72 -33 -90 -49 -119 -106
-13 -25 -49 -74 -80 -110 -36 -42 -75 -103 -108 -170 -27 -58 -61 -120 -75
-137 -16 -22 -22 -40 -19 -55 4 -15 -1 -30 -14 -44 -18 -19 -22 -42 -30 -195
-5 -96 -17 -257 -25 -359 -18 -201 -17 -229 15 -430 28 -173 57 -282 87 -323
13 -17 55 -95 95 -171 88 -170 143 -252 223 -334 71 -73 144 -124 224 -157 32
-13 56 -29 55 -37 -1 -7 -22 -62 -47 -123 -80 -197 -110 -348 -128 -648 -9
-158 -9 -213 0 -227 6 -10 16 -49 22 -87 46 -275 170 -579 317 -774 89 -118
229 -245 293 -264 13 -4 32 -18 42 -30 24 -31 280 -175 398 -224 121 -50 337
-114 459 -135 290 -50 967 -40 1447 20 39 5 64 2 107 -14 34 -13 104 -25 183
-32 85 -8 136 -17 153 -29 22 -14 78 -16 471 -20 286 -2 499 1 595 9 329 26
654 100 901 205 56 24 118 47 139 51 20 3 61 21 91 39 30 18 80 43 111 55 32
13 73 38 92 57 19 19 53 44 75 55 121 61 262 194 371 351 42 60 65 85 76 81
10 -3 20 5 27 20 6 13 28 37 49 52 65 47 94 77 115 118 11 21 30 48 43 60 26
24 132 247 164 346 12 35 24 95 28 132 3 37 9 68 12 68 3 0 26 -5 50 -11 53
-12 124 -3 153 20 15 13 23 36 29 81 5 35 7 66 4 69 -3 3 -35 -9 -71 -27 -77
-38 -97 -39 -269 -10 -127 20 -160 32 -150 49 3 4 -11 11 -32 14 -21 4 -80 20
-131 37 -87 28 -174 39 -189 25 -12 -12 41 -58 102 -89 33 -17 83 -45 110 -63
28 -17 68 -35 90 -39 21 -4 57 -17 80 -29 40 -22 40 -22 12 -25 -16 -2 -48 7
-75 21 -34 17 -70 26 -132 30 -87 6 -215 38 -305 75 -59 24 -43 28 34 7 71
-18 92 -8 59 29 -20 24 -32 28 -103 33 -46 3 -91 12 -105 21 -14 9 -42 15 -65
13 -55 -3 -79 8 -158 73 -38 31 -72 56 -77 56 -4 0 -14 15 -21 32 -7 18 -61
83 -120 143 -58 61 -113 124 -122 142 -12 22 -22 30 -35 26 -29 -7 -88 38
-109 82 -10 22 -29 52 -42 68 -25 30 -99 72 -109 62 -12 -11 39 -91 105 -166
90 -101 143 -169 143 -181 0 -6 -9 1 -21 16 -26 33 -53 35 -46 4 2 -13 8 -31
12 -40 5 -14 2 -18 -13 -18 -30 0 -68 35 -99 91 -15 28 -39 57 -54 65 -15 7
-42 41 -63 77 -33 59 -108 147 -126 147 -5 0 -20 21 -35 46 -27 46 -76 84
-108 84 -17 0 -17 -2 -1 -32 9 -18 41 -65 69 -104 79 -106 89 -129 73 -165
-16 -37 -40 -37 -109 -1 -49 26 -54 31 -54 62 0 25 -5 35 -18 38 -28 6 -57
-26 -92 -103 -37 -81 -61 -107 -71 -80 -4 10 6 42 25 80 29 57 33 76 43 202
11 144 2 229 -26 268 -13 18 -14 18 -24 -1 -6 -11 -13 -100 -16 -199 -7 -262
-11 -279 -56 -309 -29 -19 -50 -50 -93 -133 -67 -129 -109 -184 -128 -166 -21
21 1 66 37 77 29 9 33 17 73 135 23 69 44 143 48 163 4 31 10 38 28 38 34 0
50 49 50 150 0 67 -4 92 -19 115 -18 27 -19 28 -33 9 -11 -14 -14 -41 -11
-102 l3 -82 -26 5 c-24 6 -27 3 -33 -32 -13 -74 -37 -136 -49 -124 -6 6 -17
11 -25 11 -15 0 -57 -87 -97 -205 -17 -49 -41 -94 -60 -115 -18 -19 -65 -80
-105 -135 -76 -104 -133 -170 -162 -186 -16 -8 -17 -7 -8 16 5 14 27 58 49 98
44 80 63 157 39 157 -18 0 -49 -34 -132 -147 -61 -84 -69 -91 -87 -80 -18 11
-27 4 -92 -68 -137 -154 -312 -328 -362 -360 -28 -18 -57 -41 -65 -50 -14 -16
-12 -17 20 -11 19 4 99 38 178 77 79 38 156 69 172 69 16 0 63 14 105 30 42
17 83 30 91 30 9 0 38 19 64 43 27 23 63 50 80 60 32 20 29 21 45 -28 7 -25
32 -17 45 15 16 39 69 85 114 100 27 8 46 26 73 68 51 77 161 192 184 192 10
0 29 -5 43 -11 22 -10 29 -8 56 15 37 31 77 43 99 29 11 -7 26 -1 59 24 53 40
70 41 78 6 13 -55 33 -83 59 -83 22 0 25 4 25 35 0 42 9 43 75 7 40 -22 56
-40 82 -88 17 -32 44 -67 59 -76 27 -17 28 -17 46 12 24 40 50 38 101 -9 35
-32 51 -39 94 -43 28 -3 64 -13 79 -23 15 -10 50 -19 78 -22 69 -5 112 -17
246 -70 129 -51 201 -73 245 -73 26 0 28 2 14 15 -9 9 -31 24 -49 33 -19 9
-36 23 -38 31 -7 21 48 5 152 -45 50 -24 115 -48 145 -54 66 -12 173 -13 224
-1 33 8 41 6 62 -15 21 -20 34 -24 90 -24 38 0 65 -4 65 -10 0 -6 11 -15 25
-20 14 -5 25 -15 25 -22 0 -7 -20 -56 -43 -109 -75 -166 -223 -375 -306 -431
-25 -18 -75 -55 -111 -83 -113 -90 -224 -143 -392 -189 -196 -52 -400 -72
-833 -82 -165 -4 -309 -11 -319 -17 -11 -5 -101 -13 -200 -17 -174 -7 -184 -9
-246 -38 -36 -17 -105 -40 -155 -51 -118 -26 -170 -45 -206 -76 -18 -14 -91
-44 -182 -74 -84 -27 -217 -72 -297 -99 -188 -65 -404 -109 -705 -142 -157
-18 -670 -24 -841 -11 -276 22 -451 57 -673 137 -176 64 -227 92 -333 184 -59
51 -111 87 -141 98 -39 14 -73 42 -176 147 -199 204 -234 265 -352 616 l-72
214 -5 157 c-6 188 6 288 60 538 34 159 47 199 89 280 54 106 70 167 48 181
-8 5 -36 9 -63 9 -144 0 -308 165 -469 470 -30 58 -65 137 -77 175 -12 39 -41
113 -64 165 l-41 95 0 315 c0 284 2 327 23 437 12 66 22 139 22 161 0 23 8 49
18 63 10 13 33 69 50 124 56 180 189 368 297 421 50 24 64 26 134 22 73 -4 82
-7 121 -41 23 -20 61 -45 84 -55 23 -11 66 -49 98 -85 57 -65 111 -96 144 -83
21 8 9 67 -27 132 -84 149 -100 447 -39 711 29 121 38 134 112 165 34 14 92
38 128 53 56 24 85 29 210 36 225 13 707 96 1180 205 219 50 433 87 660 114
52 6 199 29 325 50 388 66 772 113 1150 140 83 6 218 17 300 25 228 22 651 40
930 39 209 0 285 -4 466 -27 119 -15 238 -27 265 -28 27 0 65 -5 84 -12 30
-10 36 -17 41 -52 3 -22 14 -76 23 -119 9 -44 14 -92 11 -107 -6 -25 -9 -27
-26 -16 -11 7 -42 44 -69 83 l-50 72 -77 21 c-43 11 -113 26 -157 33 -66 10
-79 10 -86 -3 -31 -53 -30 -53 -104 -30 -102 32 -120 29 -139 -19 -18 -46 -32
-49 -87 -17 -33 18 -43 20 -57 9 -40 -28 -60 -31 -109 -16 -67 20 -82 18 -122
-17 -30 -26 -41 -30 -76 -27 -37 4 -45 1 -88 -39 -37 -34 -55 -43 -83 -43 -26
0 -42 -7 -59 -26 -14 -17 -37 -29 -61 -33 -32 -5 -43 -13 -64 -50 -19 -32 -36
-47 -66 -57 -46 -15 -65 -38 -102 -116 -15 -32 -33 -58 -41 -58 -27 0 -72 -31
-88 -62 -9 -17 -22 -50 -28 -72 -10 -33 -17 -42 -38 -44 -35 -4 -52 -53 -46
-129 4 -40 11 -60 29 -78 24 -23 25 -23 97 -9 72 13 125 35 137 54 4 6 15 4
30 -6 39 -26 61 -6 75 71 7 36 16 68 21 70 4 3 19 -6 33 -20 48 -48 94 -25
134 68 12 26 24 47 27 47 3 0 31 -23 61 -52 47 -44 60 -51 97 -52 l42 -1 -3
63 -4 63 44 -31 c34 -25 51 -31 84 -29 37 3 46 -2 77 -34 43 -47 95 -52 121
-12 20 30 37 32 61 5 39 -44 104 -16 128 55 11 32 20 41 46 46 18 4 41 16 52
28 l20 21 41 -30 c32 -23 49 -29 69 -25 23 5 28 3 31 -17 4 -33 40 -34 85 -4
46 32 51 32 55 4 3 -19 25 -37 63 -51 6 -2 2 -13 -7 -24 -33 -36 -23 -52 34
-55 l52 -3 -3 -130 c-3 -150 13 -243 84 -495 25 -85 61 -229 80 -319 20 -90
50 -202 67 -250 17 -47 63 -180 103 -296 40 -115 87 -249 104 -297 20 -55 43
-154 61 -270 28 -168 51 -300 101 -573 22 -119 26 -295 6 -295 -24 0 -184 48
-309 94 -71 25 -185 67 -255 92 -142 50 -155 57 -367 191 -98 63 -167 100
-204 109 -31 8 -96 35 -144 59 -61 32 -100 45 -128 45 -45 0 -70 10 -113 47
-29 24 -50 23 -41 -1 9 -23 -9 -26 -62 -11 -60 18 -306 46 -316 37 -3 -4 -8
-20 -10 -37 -3 -30 -3 -30 -16 -8 -11 19 -9 29 8 63 20 39 51 64 140 111 42
23 81 71 68 84 -9 9 -137 -23 -193 -49 -107 -49 -156 -121 -147 -216 4 -37 6
-40 34 -40 41 0 80 -23 102 -61 l19 -32 -46 6 c-25 4 -49 3 -52 -2 -9 -15 79
-85 166 -132 45 -24 105 -65 133 -90 56 -52 162 -122 176 -117 17 6 -36 95
-88 146 -29 29 -99 79 -155 112 -56 33 -95 60 -86 60 9 0 71 -27 137 -60 67
-33 145 -65 174 -71 29 -6 62 -19 73 -29 11 -10 32 -20 48 -22 23 -5 27 -2 27
18 0 13 4 24 8 24 11 0 142 -111 142 -121 0 -17 39 -30 59 -19 16 8 25 5 45
-15 15 -14 26 -30 26 -36 0 -5 10 -13 23 -18 12 -5 46 -27 74 -50 124 -97 157
-104 113 -23 -45 85 -129 167 -232 226 -45 26 -46 27 -53 7 -3 -12 -3 -25 0
-31 3 -5 -1 -10 -10 -10 -10 0 -25 20 -38 50 -12 27 -27 50 -34 50 -7 0 -30 9
-52 21 -26 13 -54 19 -78 17 -33 -3 -38 0 -41 20 -3 18 2 23 27 28 72 15 42
49 -82 90 -54 19 -74 30 -60 32 13 2 89 -19 170 -47 82 -28 154 -51 161 -51 7
0 34 -18 60 -39 55 -47 387 -234 587 -331 191 -93 324 -136 492 -161 76 -11
178 -29 226 -40 124 -27 320 -42 467 -34 143 8 147 1 25 -41 -83 -28 -181 -35
-322 -24 -50 4 -66 2 -80 -12 -28 -28 -6 -37 118 -49 138 -13 312 -6 342 14
12 8 59 49 105 91 81 73 87 76 197 111 129 40 164 64 286 192 81 85 105 132
115 228 5 51 -9 94 -33 102 -15 5 -63 -77 -88 -152 -19 -56 -35 -81 -79 -124
-10 -9 -41 -40 -69 -70 -79 -81 -167 -118 -367 -153 -143 -25 -510 -7 -609 30
-24 9 -25 11 -27 148 -3 214 -62 629 -125 884 -49 201 -169 572 -199 619 -16
23 -32 64 -35 90 -15 102 -37 194 -99 395 -113 368 -136 482 -136 675 0 178
12 233 59 280 68 68 91 194 52 289 -11 27 -22 84 -25 132 -3 47 -8 106 -12
130 l-6 45 88 43 c124 61 187 104 281 189 97 88 133 150 133 229 l0 52 -56 37
c-71 48 -131 68 -306 106 -205 43 -188 37 -177 66 14 37 11 77 -12 166 -19 76
-20 89 -8 175 11 77 10 110 -1 185 -8 59 -15 243 -19 507 -4 298 -10 421 -18
436 -19 34 -70 72 -144 110 -38 18 -73 43 -79 54 -13 24 -65 52 -135 73 -27 8
-122 44 -210 80 -201 82 -241 93 -368 107 -56 6 -122 20 -146 31 -81 36 -265
51 -461 39z m-49 -155 c4 -44 10 -124 14 -178 l8 -97 -42 -39 c-39 -36 -42
-41 -30 -63 7 -12 34 -43 61 -66 53 -49 59 -62 26 -62 -60 0 -104 -24 -175
-92 -83 -81 -78 -86 -88 72 -4 52 -20 207 -36 344 -16 137 -29 250 -29 252 0
4 142 11 220 10 l65 -1 6 -80z m230 69 c3 -2 11 -61 18 -131 6 -71 14 -149 17
-175 2 -27 1 -48 -3 -48 -4 0 -33 7 -63 15 -30 8 -71 15 -91 15 l-35 0 -12
123 c-14 140 -15 200 -5 211 7 7 160 -2 174 -10z m-528 -323 c15 -172 25 -316
22 -319 -3 -3 -17 5 -31 19 -21 19 -44 26 -119 36 -114 14 -135 24 -135 64 0
38 -24 97 -53 128 -56 61 -182 88 -278 59 -40 -11 -41 -14 -52 -96 -1 -9 -20
0 -52 26 -99 78 -158 92 -194 46 -12 -15 -21 -34 -21 -43 -1 -44 -17 -44 -74
-3 -123 87 -222 57 -236 -73 l-5 -50 -90 -6 c-142 -10 -199 -46 -199 -125 0
-43 18 -57 111 -86 79 -25 93 -42 93 -116 0 -29 -3 -33 -17 -27 -67 30 -126
44 -174 45 l-55 0 -22 170 c-22 173 -48 300 -62 300 -18 0 -32 -32 -27 -62 5
-31 16 -98 51 -303 8 -44 17 -88 21 -97 5 -14 2 -18 -13 -18 -11 0 -36 -7 -55
-15 -20 -8 -48 -15 -63 -15 -21 0 -25 3 -19 18 26 60 35 119 25 155 -15 53
-46 70 -118 65 l-60 -3 -18 98 c-10 59 -14 101 -8 107 8 8 556 170 576 170 4
0 8 -45 8 -99 0 -83 3 -103 19 -122 18 -22 20 -23 27 -6 7 19 0 134 -12 215
-7 41 -6 42 22 42 24 0 148 28 206 46 14 4 15 -1 11 -35 -11 -83 14 -135 47
-96 11 13 10 26 -3 73 -8 31 -14 60 -11 63 4 7 26 12 147 35 27 6 27 5 27 -49
0 -36 5 -59 15 -67 22 -18 29 8 22 81 -5 59 -5 59 21 59 15 0 69 9 121 20 114
24 110 24 104 2 -2 -11 3 -44 12 -74 8 -30 13 -62 10 -70 -9 -22 25 -32 44
-13 14 14 14 23 -6 97 -12 45 -20 85 -17 89 8 13 100 29 262 45 90 8 174 19
185 24 12 5 31 8 42 7 19 -2 22 -20 48 -316z m740 303 c43 -4 79 -10 82 -14 2
-3 5 -55 6 -115 l2 -109 -48 -2 c-71 -5 -95 -24 -95 -80 0 -25 4 -54 10 -64
14 -25 -7 -31 -51 -13 l-36 14 -7 117 c-3 64 -9 155 -13 201 l-6 84 39 -6 c21
-4 74 -9 117 -13z m282 -40 l51 -15 12 -127 c16 -167 16 -202 -2 -202 -8 0
-16 -7 -20 -15 -11 -29 -36 -14 -87 50 -28 36 -61 68 -74 71 -20 5 -24 14 -29
67 -3 34 -8 93 -12 131 l-7 69 59 -7 c33 -3 82 -13 109 -22z m355 -150 c5 -5
12 -60 16 -122 7 -110 7 -112 -14 -112 -15 0 -27 11 -39 38 l-18 37 -85 5 -84
5 -7 35 c-4 19 -9 74 -12 121 l-5 86 119 -42 c66 -22 123 -45 129 -51z m170
-75 l75 -29 0 -104 c0 -92 -2 -103 -15 -92 -23 19 -63 34 -112 41 l-45 7 -7
51 c-3 29 -6 78 -6 111 0 51 2 57 18 51 9 -4 51 -20 92 -36z m-670 -57 c14
-10 51 -56 83 -100 33 -45 66 -82 74 -82 9 0 39 25 68 54 55 57 80 70 135 64
42 -4 64 -35 36 -52 -39 -24 -76 -58 -76 -72 0 -24 50 -27 156 -9 111 19 170
16 209 -9 30 -20 31 -46 5 -105 -11 -23 -17 -47 -14 -52 10 -16 43 -9 58 13
12 16 17 18 21 7 19 -51 27 -147 32 -385 l6 -272 -32 -7 -32 -7 7 -69 7 -69
-62 0 c-33 0 -64 0 -68 0 -5 0 -8 82 -9 183 -1 100 -6 199 -12 220 -11 38 -11
38 16 33 33 -8 111 -11 116 -5 7 8 -13 111 -25 125 -14 17 -49 18 -50 2 -2
-20 -2 -21 6 -45 9 -32 -18 -30 -62 3 -32 24 -33 26 -18 54 26 50 11 68 -26
34 -17 -15 -22 -14 -67 15 -60 38 -122 43 -122 10 0 -25 15 -53 53 -101 37
-47 34 -68 -10 -56 -21 5 -73 46 -140 110 -123 116 -171 143 -225 128 -58 -17
-63 -30 -33 -99 14 -33 25 -65 25 -70 0 -6 -17 -15 -37 -20 -30 -9 -44 -7 -73
7 -45 22 -96 98 -117 175 -18 64 -35 77 -97 77 -46 0 -89 -16 -180 -69 -104
-60 -143 -61 -192 -8 -40 43 -40 46 -15 79 30 37 115 79 176 85 54 6 55 6 55
38 0 23 -11 45 -40 77 -22 25 -44 57 -50 72 -8 23 -6 27 20 41 52 27 93 19
205 -40 74 -38 117 -55 143 -55 59 0 63 6 50 84 -11 64 -10 70 8 83 24 18 79
11 114 -15z m845 -16 c28 -13 64 -38 80 -55 28 -31 30 -36 26 -99 -3 -37 -5
-112 -5 -167 0 -139 23 -663 30 -704 7 -38 10 -38 -68 7 l-56 33 -6 107 c-20
333 -60 827 -72 880 -6 28 8 28 71 -2z m-2125 -29 c52 -27 87 -73 95 -126 12
-71 15 -78 41 -90 14 -6 60 -16 102 -22 137 -18 168 -37 111 -67 -22 -12 -83
-10 -131 4 -32 9 -83 -51 -122 -145 -20 -49 -49 -101 -63 -115 -29 -29 -79
-37 -69 -10 26 68 18 107 -25 124 -27 12 -36 11 -63 -4 -17 -10 -47 -37 -66
-60 -52 -62 -87 -88 -123 -90 -31 -1 -32 0 -39 58 -11 86 -27 106 -86 106 -53
0 -70 -11 -126 -82 -32 -40 -44 -48 -72 -48 -107 0 -135 59 -59 127 43 38 44
42 34 72 -22 63 -67 72 -238 50 -74 -10 -91 -9 -125 5 -34 14 -38 19 -32 43
12 52 38 63 141 63 134 0 141 4 150 85 5 47 13 73 29 92 21 24 26 26 52 15 16
-7 48 -37 72 -68 47 -60 83 -80 122 -67 23 8 25 15 30 78 5 70 5 70 34 68 18
-1 46 -19 81 -53 35 -32 63 -50 78 -50 28 0 52 -23 42 -40 -4 -6 -22 -9 -40
-8 -41 2 -52 -6 -35 -27 9 -10 31 -15 72 -15 52 0 59 2 54 18 -34 117 -29 183
16 202 33 14 106 3 158 -23z m-1567 -101 c-3 -13 2 -49 11 -79 24 -82 22 -90
-36 -133 l-53 -39 -3 -62 c-2 -51 -7 -65 -25 -78 -33 -23 -76 -20 -82 8 -3 12
-17 81 -31 152 -14 72 -28 133 -30 137 -6 9 96 61 181 94 75 29 73 29 68 0z
m-287 -107 c9 -15 33 -133 28 -140 -2 -4 -16 -9 -31 -12 -50 -11 -98 -61 -123
-129 -37 -103 -49 -123 -80 -142 -17 -9 -30 -16 -31 -14 0 2 -2 18 -5 37 -2
19 -15 80 -29 135 -14 56 -25 108 -25 116 0 9 54 43 138 87 75 40 140 73 144
73 4 0 10 -5 14 -11z m472 -105 c29 -8 28 -35 -3 -102 -32 -70 -33 -124 -2
-141 18 -9 36 -8 97 9 41 11 102 27 134 36 69 19 126 13 167 -17 70 -50 10
-103 -166 -149 -80 -20 -137 -75 -121 -117 3 -8 35 -27 72 -43 69 -31 76 -45
33 -68 -48 -25 -126 -6 -249 62 -25 14 -60 27 -79 28 -29 3 -37 -2 -50 -24
-15 -25 -14 -32 2 -75 35 -92 37 -87 -21 -80 -66 8 -104 28 -172 92 -77 73
-99 85 -146 85 -48 0 -54 -9 -54 -75 0 -54 -16 -67 -85 -73 -51 -4 -56 -2
-102 36 -95 79 -232 103 -349 63 -40 -15 -56 -17 -59 -8 -2 7 -22 73 -44 147
-23 75 -41 140 -40 145 1 28 127 94 150 80 5 -4 9 -16 9 -28 0 -12 11 -58 25
-102 14 -44 25 -88 25 -99 0 -15 5 -17 28 -12 26 6 58 36 95 90 25 36 60 33
127 -9 57 -37 113 -46 141 -22 23 18 43 55 68 122 29 79 64 131 100 150 l30
15 7 -58 c4 -31 7 -61 6 -66 -7 -24 23 -36 95 -36 l74 0 14 33 c8 19 17 58 21
87 5 38 14 60 31 76 44 41 133 63 191 48z m1826 -36 c8 -38 85 -908 86 -965 0
-20 -5 -21 -102 -25 -63 -2 -106 1 -110 7 -4 5 -8 102 -8 215 0 194 1 206 20
218 24 15 26 50 4 59 -8 3 -25 -4 -38 -16 -12 -11 -33 -21 -46 -21 -33 0 -97
-71 -106 -116 -5 -28 -2 -42 16 -66 17 -23 21 -38 16 -61 -9 -47 -48 -100 -89
-122 -46 -24 -62 -13 -46 32 6 18 9 44 7 60 -3 26 -7 28 -51 31 -62 4 -82 -9
-148 -97 -51 -69 -95 -101 -138 -101 -28 0 -27 10 9 55 37 46 37 52 4 67 -52
24 -121 -36 -160 -138 -9 -24 -14 -47 -10 -51 3 -4 29 -1 57 6 45 12 53 11 67
-3 9 -8 13 -18 10 -21 -3 -4 -79 -15 -169 -25 -90 -11 -192 -24 -226 -31 -85
-15 -95 -8 -40 30 26 17 47 37 47 42 0 6 -13 24 -29 40 -22 21 -39 29 -65 29
-20 0 -36 4 -36 8 0 15 54 60 85 72 24 9 205 50 222 50 2 0 3 19 1 43 l-3 42
-50 3 c-101 5 -119 21 -67 62 26 21 33 22 174 15 l147 -7 25 25 c31 31 26 51
-18 74 -30 15 -46 31 -46 45 0 12 100 38 143 38 33 0 48 -7 84 -41 49 -45 114
-78 155 -79 33 0 85 41 73 60 -5 8 -21 11 -52 6 -51 -7 -65 -1 -139 60 -51 41
-104 64 -150 64 -22 0 -21 -2 -36 114 -2 14 5 21 27 27 18 5 55 36 91 74 64
69 101 85 90 40 -3 -14 -9 -36 -12 -50 -4 -16 1 -33 15 -51 17 -22 21 -41 21
-103 0 -74 15 -125 35 -122 11 1 12 72 0 146 l-7 50 49 21 c52 22 52 21 133
196 17 38 39 72 49 78 16 8 19 3 25 -52 3 -33 6 -93 6 -132 0 -81 16 -246 25
-254 3 -3 11 0 18 7 9 9 12 68 12 218 l0 205 55 18 c75 24 89 24 94 -2z
m-1166 -10 c19 -19 15 -26 -33 -72 -51 -50 -57 -79 -24 -120 31 -39 71 -56
133 -56 52 0 57 2 113 53 105 97 123 99 123 13 0 -58 3 -67 26 -85 15 -12 34
-21 43 -21 14 0 16 -11 13 -78 l-3 -78 -47 -24 c-39 -21 -48 -30 -50 -56 -2
-25 3 -37 24 -53 35 -28 26 -35 -34 -26 l-49 7 -6 56 c-7 81 -57 283 -68 276
-15 -9 -10 -113 11 -209 13 -64 15 -94 8 -103 -6 -7 -41 -22 -79 -33 -87 -27
-119 -51 -119 -91 0 -23 10 -39 38 -64 33 -30 35 -33 15 -34 -80 -1 -223 -98
-223 -152 0 -31 26 -56 68 -64 18 -4 32 -12 32 -18 0 -20 -77 -89 -93 -83 -8
3 -18 26 -22 54 -4 26 -17 85 -30 130 -13 45 -36 155 -52 246 l-27 164 -71 45
c-38 25 -78 48 -87 51 -43 15 2 50 77 62 55 8 84 21 163 73 29 19 55 33 58 30
3 -4 10 -53 15 -110 17 -189 43 -288 75 -288 18 0 18 30 -1 110 -16 64 -75
531 -69 539 16 18 136 25 152 9z m-1474 -20 c9 -32 46 -195 46 -204 0 -6 -30
-10 -74 -10 -82 1 -125 -19 -136 -64 -8 -34 -25 -8 -45 70 -9 35 -21 73 -26
83 -8 14 -5 22 13 38 30 26 91 58 153 80 60 22 65 22 69 7z m3196 -32 c19 -52
37 -342 24 -392 -7 -25 -60 -44 -145 -51 l-56 -6 -6 39 c-4 22 -7 107 -7 191
l0 151 31 31 c26 27 98 58 137 60 7 1 17 -10 22 -23z m-377 -87 c22 -6 62 -9
91 -8 l51 3 8 -139 c4 -77 6 -158 5 -180 -3 -36 -6 -40 -33 -45 -44 -8 -41
-41 5 -55 19 -5 40 -13 46 -17 7 -5 14 -2 17 6 3 8 30 15 71 19 36 3 100 18
143 32 97 33 160 45 196 38 26 -5 27 -7 12 -23 -10 -11 -38 -21 -71 -25 -86
-10 -106 -44 -54 -89 55 -46 137 -47 289 -3 l81 24 -15 -23 c-8 -13 -15 -36
-15 -52 0 -37 30 -51 135 -62 96 -10 130 -22 145 -51 11 -20 10 -21 -14 -15
-75 19 -111 18 -136 -2 l-24 -20 34 -21 c56 -34 147 -29 259 14 62 24 107 35
143 35 72 0 80 7 82 74 1 54 2 56 29 56 37 0 75 -21 113 -62 28 -29 32 -40 32
-94 0 -34 7 -86 15 -115 23 -83 27 -121 18 -162 -5 -21 -11 -40 -13 -43 -3 -2
-56 9 -119 25 -63 16 -142 32 -175 36 l-62 7 -4 64 c-4 67 -16 91 -42 81 -12
-5 -16 -21 -16 -68 l0 -61 -37 6 c-21 3 -64 9 -97 12 l-59 7 7 59 c7 69 -1 76
-57 53 -60 -25 -80 -20 -133 35 -51 53 -100 76 -140 66 -21 -6 -24 -12 -24
-50 0 -23 -3 -46 -6 -49 -12 -12 -41 12 -54 43 -16 39 -81 78 -143 86 l-47 7
0 -52 c0 -50 -1 -51 -29 -51 -43 0 -61 31 -61 105 l0 61 -63 32 c-35 18 -80
35 -100 39 -33 5 -37 3 -37 -17 0 -14 8 -24 21 -27 15 -4 19 -11 15 -27 -3
-11 -6 -72 -6 -133 l0 -113 -104 0 -104 0 -6 28 c-3 15 -7 54 -11 87 -3 33
-18 186 -34 340 -17 154 -33 320 -36 369 l-7 89 43 -36 c24 -21 61 -42 82 -48z
m777 26 c16 -8 54 -47 85 -85 31 -39 60 -70 66 -70 6 0 9 -48 7 -127 l-3 -127
-96 -16 -96 -16 -7 89 c-9 133 -7 197 6 234 10 27 10 40 -1 66 -29 74 -22 84
39 52z m-197 -174 c16 -6 41 -11 57 -11 26 0 29 -4 39 -47 8 -40 7 -50 -5 -60
-17 -13 -201 -29 -211 -19 -10 9 -21 109 -22 191 l-1 69 58 -56 c31 -31 70
-62 85 -67z m-3876 47 c14 -18 87 -270 133 -460 21 -89 43 -164 50 -168 16
-10 -40 -67 -75 -76 -41 -10 -78 16 -88 63 -25 115 -54 221 -103 380 -30 98
-53 185 -52 193 2 8 28 29 58 46 64 38 65 38 77 22z m4497 -46 c3 -20 8 -137
12 -259 7 -221 7 -223 -14 -223 -11 0 -39 15 -61 34 -43 36 -58 41 -159 52
-35 3 -61 8 -58 11 3 3 37 11 78 19 88 17 117 40 102 81 -7 21 -22 33 -61 48
l-52 20 -3 93 c-2 52 -1 95 1 97 2 3 16 -2 32 -10 15 -8 50 -15 77 -15 54 0
62 8 62 59 0 55 35 49 44 -7z m-4686 -64 c18 -22 131 -370 141 -436 6 -35 15
-70 22 -78 9 -11 8 -15 -2 -18 -68 -20 -154 -53 -201 -78 -47 -25 -59 -37 -69
-67 -6 -20 -22 -56 -36 -79 -28 -48 -39 -46 -57 10 -15 45 -40 43 -44 -2 -2
-26 5 -47 23 -75 33 -48 27 -65 -43 -123 -56 -47 -65 -44 -77 25 -7 46 -30 50
-41 7 -9 -35 2 -67 32 -97 34 -34 50 -34 107 4 64 42 117 118 149 213 23 69
33 85 70 113 107 83 186 96 253 43 21 -16 47 -30 59 -30 11 0 57 27 101 61
114 86 143 99 217 99 90 0 93 -4 92 -102 -1 -52 3 -86 10 -90 23 -16 69 -7
171 32 121 46 180 51 231 20 54 -34 57 -82 5 -119 -15 -11 -58 -29 -96 -42
-108 -34 -125 -45 -125 -79 0 -26 7 -33 45 -52 103 -50 24 -72 -123 -34 -56
14 -121 26 -146 26 -41 0 -46 -2 -46 -23 0 -12 9 -28 20 -35 29 -18 25 -38
-11 -51 -49 -17 -98 -13 -174 15 -135 49 -173 58 -190 44 -22 -18 -18 -73 7
-105 17 -21 19 -33 12 -53 -31 -87 -199 -97 -314 -18 -43 29 -50 31 -140 31
-93 0 -190 -23 -190 -45 0 -23 41 -30 106 -19 97 17 178 8 210 -22 34 -32 44
-51 69 -138 l21 -73 -73 -39 c-41 -22 -75 -39 -77 -39 -2 0 -9 28 -16 63 -15
79 -45 149 -76 178 -21 20 -24 21 -30 5 -4 -10 3 -41 15 -70 35 -86 21 -91
-32 -11 -30 45 -36 50 -66 47 -18 -1 -53 -13 -79 -27 -25 -14 -49 -21 -53 -17
-3 4 -16 52 -28 107 -12 55 -36 148 -53 207 -34 121 -33 146 14 189 l30 29 25
-20 c81 -64 194 22 177 135 l-6 43 75 51 c41 27 86 65 100 82 22 28 28 31 41
20 9 -8 16 -20 16 -27 0 -19 29 -18 37 2 3 9 -2 29 -11 45 -16 27 -16 30 3 56
12 17 23 53 27 90 l7 63 -39 16 c-25 10 -51 14 -76 10 -35 -6 -38 -4 -38 16 0
13 -11 54 -24 93 -14 38 -24 70 -23 71 1 2 34 21 72 43 74 43 96 49 113 29z
m-210 -166 c37 -105 37 -110 11 -131 -18 -15 -21 -22 -12 -31 8 -9 25 -7 72 9
66 23 95 19 86 -10 -3 -11 -8 -29 -11 -41 -13 -49 -62 -103 -154 -168 -53 -37
-102 -75 -109 -84 -10 -12 -12 -34 -8 -81 9 -94 -24 -121 -84 -71 -26 22 -33
24 -61 14 -86 -30 -148 -146 -148 -277 0 -56 -4 -82 -15 -91 -23 -19 -49 -7
-59 28 -13 46 -31 34 -29 -20 2 -42 0 -46 -30 -59 -37 -16 -46 -56 -12 -52 11
1 31 4 44 5 21 3 26 -4 42 -62 26 -91 25 -112 -10 -133 -16 -9 -33 -17 -39
-17 -5 0 -12 29 -15 65 -3 36 -13 77 -21 92 l-14 28 -11 -28 c-6 -16 -11 -33
-11 -38 0 -5 -4 -9 -10 -9 -5 0 -10 26 -10 58 0 68 -21 162 -43 196 -21 32
-36 218 -16 199 15 -15 58 -17 77 -4 11 7 11 12 1 28 -18 30 -5 65 51 135 77
97 107 145 135 218 40 106 95 148 181 138 26 -3 30 -8 35 -46 6 -49 20 -62 66
-62 22 0 36 6 43 19 16 30 12 39 -17 43 -27 3 -29 7 -50 113 -12 61 -19 111
-15 113 4 1 36 20 72 42 36 21 67 39 70 39 3 0 16 -30 28 -67z m1274 -60 c70
-64 119 -96 159 -106 21 -5 27 -13 32 -43 3 -21 17 -123 32 -228 14 -104 33
-221 41 -258 9 -38 14 -70 12 -72 -2 -2 -62 -21 -133 -43 -72 -21 -141 -42
-155 -47 -20 -6 -23 -5 -12 6 6 7 12 23 12 36 0 20 4 22 31 16 35 -7 35 -6 13
79 -5 22 -1 32 17 47 99 82 99 82 99 118 0 76 -58 126 -168 145 -71 12 -72 13
-72 43 0 16 -11 70 -25 120 -14 49 -25 96 -25 103 0 7 16 20 36 28 36 15 37
16 31 65 -3 27 -2 49 2 49 5 0 38 -26 73 -58z m394 26 c56 -25 74 -38 74 -53
0 -11 13 -99 29 -195 16 -96 33 -213 36 -260 6 -66 13 -92 31 -116 27 -37 23
-44 -25 -44 -20 0 -72 -11 -115 -25 -58 -18 -82 -22 -87 -14 -9 16 -43 180
-74 359 -14 80 -28 157 -31 173 -5 23 -2 27 16 27 11 0 36 6 55 14 48 20 54
53 21 110 -14 25 -26 47 -26 50 0 12 24 5 96 -26z m-946 -40 c0 -36 23 -115
54 -189 6 -13 -1 -18 -31 -22 -21 -4 -54 -18 -73 -32 -18 -14 -37 -25 -41 -25
-10 0 -26 45 -49 140 -12 47 -23 93 -26 102 -7 25 75 65 139 67 25 1 27 -2 27
-41z m135 2 c98 -71 125 -83 185 -83 l58 0 5 -51 c3 -28 15 -80 26 -115 26
-78 26 -101 4 -101 -10 0 -47 -14 -81 -30 -35 -17 -74 -30 -87 -30 -22 0 -22
0 -7 45 21 66 3 112 -58 143 -24 12 -57 22 -72 22 -27 0 -28 2 -28 48 0 29
-11 72 -29 114 -16 37 -26 70 -23 73 12 11 68 -7 107 -35z m-1076 8 c25 -68
27 -64 -51 -83 -40 -9 -85 -24 -100 -31 -65 -33 -13 31 64 80 31 20 59 40 63
46 9 15 15 12 24 -12z m4601 13 c0 -8 -58 -21 -95 -20 -15 0 -13 3 10 14 34
15 85 19 85 6z m308 -13 c-3 -8 -27 -14 -64 -15 -58 -2 -58 -2 -29 12 39 18
98 20 93 3z m-2684 -30 c4 -18 23 -118 42 -223 19 -104 41 -214 50 -244 9 -33
12 -57 6 -63 -12 -12 -101 -35 -167 -43 l-52 -7 -7 59 c-4 32 -27 159 -52 282
-24 123 -44 227 -44 230 0 3 30 5 67 3 52 -2 76 2 103 16 47 26 47 26 54 -10z
m1329 -46 c-3 -26 -7 -49 -9 -51 -7 -8 -54 42 -54 58 0 8 10 25 22 38 31 34
49 15 41 -45z m612 -79 c33 -16 35 -20 28 -48 -17 -72 6 -117 75 -150 23 -11
41 -24 42 -28 0 -4 -38 -7 -85 -5 l-85 3 -1 50 c0 27 -6 83 -13 123 -7 39 -9
72 -5 72 5 0 24 -8 44 -17z m-4390 -30 c-9 -48 -30 -91 -63 -125 -34 -37 -50
-35 -60 5 -11 43 -36 42 -40 -2 -2 -23 3 -43 17 -62 17 -23 19 -32 10 -58 -17
-50 -69 -70 -69 -27 0 13 -7 43 -15 66 -27 76 -21 103 33 151 52 46 134 89
171 89 21 0 23 -3 16 -37z m3780 -23 c3 -11 3 -25 -1 -31 -4 -7 -6 -47 -5 -90
l1 -79 -31 0 c-16 0 -61 -5 -100 -11 -77 -13 -95 -7 -58 18 58 41 121 109 145
159 28 58 39 65 49 34z m-301 -92 c19 -31 39 -119 29 -129 -21 -21 -223 -38
-223 -19 0 6 6 10 13 9 29 -4 38 4 78 64 72 106 79 112 103 75z m1201 -6 c13
-8 55 -67 55 -76 0 -3 -31 -6 -69 -6 l-68 0 21 45 c20 42 39 53 61 37z m291
-73 l47 -41 -69 7 c-38 4 -70 8 -72 10 -7 6 22 65 33 65 8 0 35 -18 61 -41z
m-3273 -291 c8 -28 3 -32 -21 -19 -31 17 -36 41 -8 41 16 0 26 -7 29 -22z
m-198 -142 l70 -13 -45 -21 c-25 -11 -60 -23 -77 -27 -33 -7 -33 -7 -33 34 0
23 3 41 8 40 4 0 39 -6 77 -13z m3815 -6 c122 -13 210 -30 210 -41 0 -15 -85
-10 -157 8 -56 15 -115 18 -343 18 -151 0 -342 -3 -425 -7 -190 -8 -125 6 95
21 277 19 441 19 620 1z m-4247 -50 c37 -16 80 -30 96 -30 18 0 31 -6 35 -17
3 -10 8 -23 11 -29 6 -12 -56 -44 -85 -44 -14 0 -22 11 -30 41 -8 30 -16 39
-28 37 -14 -3 -17 -14 -15 -58 l3 -55 -50 -27 c-28 -16 -57 -28 -65 -28 -29 0
-16 45 25 85 32 31 40 46 40 75 0 19 -7 46 -16 58 -22 31 -3 29 79 -8z m330
-7 c7 -7 -108 -62 -130 -63 -7 0 -13 10 -13 23 0 19 8 25 43 34 52 12 92 15
100 6z m-1255 -142 c19 -72 31 -138 28 -146 -9 -24 -70 -18 -104 10 -32 27
-46 56 -61 124 -9 44 -9 45 35 87 24 24 44 48 44 54 0 7 5 10 12 8 7 -3 27
-64 46 -137z m3351 94 c-10 -9 -187 -35 -344 -50 -192 -19 -340 -44 -495 -85
-367 -97 -471 -120 -654 -144 -86 -11 -17 14 224 83 176 51 296 76 450 96 69
9 206 30 305 46 316 54 338 57 429 58 49 1 87 -1 85 -4z m-2609 -142 c0 -10 3
-28 6 -40 5 -17 2 -23 -9 -23 -8 0 -34 -9 -58 -20 -62 -28 -86 -26 -92 8 -3
15 -9 39 -12 54 l-7 27 68 4 c38 1 77 4 87 5 10 1 17 -5 17 -15z m-1021 -104
c19 -56 14 -115 -14 -146 l-24 -28 -1 103 c0 81 3 102 14 102 8 0 19 -14 25
-31z m516 -6 c31 -36 31 -39 -5 -58 -39 -20 -60 -54 -63 -99 -2 -20 -6 -36
-10 -36 -4 0 -11 0 -16 0 -6 0 -16 12 -23 28 -22 45 -62 42 -109 -9 -33 -36
-39 -49 -39 -88 0 -97 -37 -164 -111 -201 -64 -33 -76 -28 -84 37 -4 31 -20
91 -36 134 l-30 77 35 39 c19 21 54 60 79 88 45 49 46 49 79 37 59 -21 111
-15 182 22 53 27 101 49 124 55 2 1 14 -11 27 -26z m1535 -33 c0 -5 -7 -10
-16 -10 -8 0 -12 5 -9 10 3 6 10 10 16 10 5 0 9 -4 9 -10z m-255 -66 c-348
-100 -529 -141 -695 -159 -57 -7 -63 -6 -52 8 7 8 29 17 50 20 20 2 104 28
185 56 97 34 172 54 215 57 37 3 123 18 192 34 157 36 163 37 235 38 57 0 50
-3 -130 -54z m-1158 -1 c10 -43 9 -50 -10 -70 -27 -30 -51 -29 -65 2 -19 40
-14 64 13 77 14 6 25 17 25 25 0 7 6 13 13 13 7 0 18 -21 24 -47z m-111 -117
c6 -14 -82 -105 -102 -106 -10 0 -23 30 -24 53 0 4 14 7 32 7 33 0 68 24 68
47 0 17 19 17 26 -1z m-174 -103 c9 -10 19 -28 22 -39 5 -18 1 -24 -25 -33
-18 -6 -34 -11 -35 -11 -6 0 -4 53 2 78 8 27 16 28 36 5z m4448 -2883 c0 -5
-7 -10 -15 -10 -8 0 -15 5 -15 10 0 6 7 10 15 10 8 0 15 -4 15 -10z m-733
-692 c-3 -8 -6 -5 -6 6 -1 11 2 17 5 13 3 -3 4 -12 1 -19z m3173 -2 c0 -3 -4
-8 -10 -11 -5 -3 -10 -1 -10 4 0 6 5 11 10 11 6 0 10 -2 10 -4z m-2910 -162
c0 -8 -5 -12 -10 -9 -6 4 -8 11 -5 16 9 14 15 11 15 -7z m280 -19 c7 -9 10
-18 7 -21 -10 -11 -37 5 -37 21 0 19 14 19 30 0z m90 -100 c19 -22 7 -41 -13
-21 -18 19 -22 36 -8 36 5 0 14 -7 21 -15z m389 -159 c33 -30 57 -57 53 -60
-12 -13 -61 -5 -83 13 -13 10 -34 37 -47 60 -23 41 -23 41 -3 41 12 0 48 -24
80 -54z m-129 -7 c0 -5 -4 -9 -10 -9 -5 0 -10 7 -10 16 0 8 5 12 10 9 6 -3 10
-10 10 -16z m306 -156 c30 -31 53 -58 50 -60 -2 -2 -22 4 -45 13 -42 17 -91
65 -91 90 0 29 33 12 86 -43z m151 -129 c-3 -3 -12 -4 -19 -1 -8 3 -5 6 6 6
11 1 17 -2 13 -5z m303 -1061 c-1 -19 -117 -119 -127 -109 -9 9 19 55 51 84
33 29 76 43 76 25z m-181 -80 c-6 -10 -31 -33 -56 -52 -24 -19 -51 -47 -59
-63 -8 -15 -20 -28 -27 -28 -6 0 -39 -28 -72 -61 -33 -33 -76 -69 -96 -79 -33
-17 -138 -60 -148 -60 -11 0 27 34 53 47 17 9 55 38 85 65 29 27 70 57 90 68
21 10 42 29 48 42 19 43 65 88 112 113 57 30 86 33 70 8z m-239 -70 c-11 -16
-62 -62 -113 -103 -50 -41 -105 -94 -122 -117 -16 -23 -35 -42 -42 -42 -24 -2
-81 -42 -86 -61 -3 -11 -13 -20 -24 -20 -10 0 -27 -7 -37 -15 -24 -18 -59 -20
-54 -2 3 6 20 20 40 29 19 9 78 57 130 106 52 50 115 104 139 121 23 18 56 51
71 74 27 41 49 54 96 56 l23 1 -21 -27z m-190 -11 c0 -5 -45 -48 -100 -96 -55
-47 -100 -90 -100 -95 0 -5 -15 -19 -34 -31 -19 -11 -73 -54 -121 -94 -85 -73
-128 -100 -189 -117 l-31 -8 35 30 c186 163 255 228 337 316 l95 103 54 0 c30
0 54 -4 54 -8z m-202 -9 c-1 -5 -50 -52 -108 -106 -58 -54 -132 -124 -165
-156 -33 -32 -92 -76 -131 -99 -39 -22 -86 -57 -105 -76 -27 -27 -45 -35 -86
-41 -29 -4 -53 -3 -53 2 0 4 26 27 58 50 69 50 231 196 288 260 35 39 45 45
68 39 22 -5 26 -3 26 15 0 29 87 107 125 112 56 7 87 7 83 0z m-784 -115
c-266 -216 -454 -351 -469 -336 -11 11 23 59 50 70 16 7 73 54 125 104 53 50
112 99 131 109 19 10 62 45 97 79 67 65 83 73 150 75 l42 1 -126 -102z m337
88 c-6 -8 -26 -20 -44 -27 -18 -7 -48 -29 -67 -48 -86 -87 -194 -174 -256
-206 -38 -20 -94 -58 -125 -85 -35 -30 -67 -50 -81 -50 -13 0 -33 -6 -43 -14
-18 -13 -18 -14 5 -26 14 -7 44 -10 77 -8 43 4 60 11 86 35 18 17 50 40 72 51
22 12 114 82 205 157 91 75 177 139 193 142 29 6 77 55 77 79 0 10 14 14 55
14 30 0 55 -2 55 -4 0 -3 -46 -45 -103 -94 -56 -49 -116 -108 -132 -132 -17
-24 -48 -51 -75 -65 -25 -13 -87 -55 -137 -94 -164 -127 -172 -129 -490 -116
-164 6 -183 9 -170 22 14 15 32 17 92 13 71 -6 261 93 374 194 40 36 80 68 90
71 9 3 46 37 81 76 35 39 79 78 98 86 19 8 41 21 49 29 9 9 35 14 70 14 46 0
54 -2 44 -14z m-436 -31 c-1 -5 -46 -41 -101 -80 -56 -38 -130 -94 -165 -124
-61 -52 -160 -119 -224 -151 -16 -9 -31 -25 -33 -36 -4 -30 -132 -72 -175 -58
-18 6 -7 13 59 44 160 74 332 211 440 352 44 56 45 57 102 61 79 5 97 4 97 -8z
m-316 -91 c-109 -114 -486 -341 -551 -332 -20 3 -12 11 54 61 42 32 84 69 93
83 8 13 24 24 35 24 10 0 41 23 68 50 28 28 58 50 70 50 12 0 26 9 32 19 7 14
36 25 102 41 51 12 100 26 108 31 27 15 25 10 -11 -27z m-479 -153 c0 -17 -73
-70 -150 -110 -73 -38 -185 -69 -198 -56 -11 11 28 34 86 52 32 10 63 29 77
45 13 15 32 28 42 29 10 0 41 11 68 24 55 26 75 30 75 16z"/>
<path d="M6134 10095 c-5 -21 26 -330 44 -429 4 -22 13 -41 21 -44 12 -4 13
18 8 139 -5 129 -20 275 -33 337 -6 30 -32 28 -40 -3z"/>
<path d="M7901 9407 c-32 -16 -29 -31 11 -39 39 -8 73 -1 88 17 24 29 -53 46
-99 22z"/>
<path d="M7879 8547 c16 -17 42 -30 79 -38 84 -17 97 -26 110 -73 22 -82 113
-132 167 -92 18 13 16 15 -22 35 -46 23 -88 71 -98 113 -9 35 -85 65 -188 74
l-72 7 24 -26z"/>
<path d="M6570 1475 c-7 -8 -9 -22 -6 -31 5 -13 9 -14 21 -4 17 14 20 36 6 44
-5 3 -14 -1 -21 -9z"/>
<path d="M6321 7388 c0 -105 -9 -151 -56 -278 -13 -36 -31 -92 -41 -125 -9
-33 -27 -80 -40 -105 -49 -92 -19 -133 70 -96 91 38 153 224 139 415 -3 41 0
110 7 157 12 74 11 85 -4 108 -11 18 -25 26 -46 26 l-29 0 0 -102z"/>
<path d="M5210 7349 c-81 -31 -94 -32 -128 -15 -49 25 -69 20 -98 -24 -27 -40
-47 -50 -60 -29 -7 12 -127 69 -145 69 -6 0 -37 -16 -69 -36 -50 -31 -64 -35
-97 -29 -36 6 -41 4 -71 -34 -37 -46 -70 -53 -90 -21 -14 23 -54 26 -111 9
-27 -8 -42 -22 -61 -55 -14 -24 -50 -72 -80 -108 -52 -61 -58 -64 -110 -70
-90 -11 -149 -35 -191 -77 -24 -24 -48 -39 -64 -39 -19 0 -30 -10 -49 -48 -14
-27 -40 -62 -59 -79 -28 -24 -34 -36 -30 -57 5 -23 2 -26 -24 -26 -30 0 -31
-2 -58 -97 -15 -54 -30 -131 -33 -172 -4 -67 -8 -77 -33 -98 -30 -25 -49 -76
-49 -130 0 -26 5 -33 31 -42 53 -18 75 -5 118 70 51 87 78 150 87 195 5 28 10
34 23 28 36 -15 56 -9 66 21 14 41 25 56 35 50 5 -3 2 -24 -6 -47 -13 -39 -13
-43 5 -61 28 -28 75 -14 120 35 20 23 53 59 74 81 l38 40 24 -23 24 -23 40 26
c22 15 52 47 67 72 l26 45 89 -2 c76 -3 89 -6 89 -20 0 -21 67 -33 154 -26 59
5 156 43 171 68 4 6 12 5 21 -5 19 -18 91 -20 96 -3 4 10 11 10 29 2 13 -6 60
-10 103 -9 71 1 80 4 87 23 13 33 27 26 34 -15 10 -57 12 -61 36 -65 15 -2 25
-12 29 -28 5 -21 12 -25 39 -23 18 0 41 9 52 19 19 18 21 18 30 1 6 -10 22
-17 38 -17 36 0 42 -7 29 -36 -9 -19 -7 -32 7 -63 16 -36 16 -41 1 -62 -9 -13
-16 -32 -16 -42 0 -17 5 -19 33 -13 76 15 320 221 374 315 15 25 38 56 52 68
l26 21 -22 24 c-33 35 -43 72 -43 153 0 66 -2 74 -21 80 -21 7 -49 59 -49 92
0 10 -5 35 -11 55 -15 57 -95 91 -118 51 -8 -15 -16 -10 -57 36 -56 62 -94 81
-163 81 -40 0 -51 4 -56 18 -5 17 -44 43 -63 42 -4 -1 -32 -10 -62 -21z m-690
-609 c22 -19 22 -21 6 -45 -17 -26 -66 -36 -66 -13 0 18 23 78 30 78 4 0 17
-9 30 -20z"/>
<path d="M7400 6559 c-62 -5 -125 -17 -155 -29 -27 -10 -87 -28 -132 -40 -224
-56 -350 -117 -457 -221 -59 -58 -67 -70 -56 -83 7 -9 28 -16 47 -16 27 0 45
10 86 49 90 84 88 84 140 -11 26 -48 60 -95 82 -113 37 -30 38 -30 158 -29
207 1 400 54 480 132 57 55 74 90 82 162 7 69 22 120 36 120 5 0 62 -18 128
-40 127 -43 175 -49 207 -26 24 18 21 21 -68 57 -94 39 -244 77 -333 84 -38 3
-86 7 -105 9 -19 2 -82 -1 -140 -5z m-90 -98 c0 -5 -3 -23 -6 -40 -5 -26 -11
-31 -35 -31 -32 0 -79 16 -79 27 1 21 20 34 61 42 61 12 59 12 59 2z"/>
<path d="M6471 6511 c-42 -42 -59 -216 -37 -369 42 -282 202 -628 416 -896 78
-98 222 -253 264 -284 50 -37 138 -18 90 20 -71 56 -221 228 -269 308 -21 36
-79 128 -129 205 -206 322 -275 497 -295 743 -8 100 -7 128 5 157 17 40 18 88
4 116 -13 24 -25 24 -49 0z"/>
<path d="M4675 6290 c-330 -37 -551 -150 -885 -453 -41 -38 -92 -76 -112 -84
-43 -17 -56 -42 -32 -60 26 -19 46 -16 119 14 62 25 69 26 123 15 32 -7 69
-12 83 -12 13 0 33 -7 43 -15 27 -21 53 -19 66 4 14 28 14 27 -30 52 -21 12
-41 28 -44 34 -12 33 115 185 155 185 8 0 29 -30 46 -67 18 -38 42 -83 53
-102 l21 -34 162 6 c89 3 202 13 251 22 115 21 242 61 266 85 19 19 54 153 65
253 7 53 9 57 34 57 14 0 64 -18 111 -40 92 -43 127 -49 137 -23 15 39 -132
116 -285 147 -91 19 -250 26 -347 16z m25 -104 c0 -21 -21 -76 -30 -76 -4 0
-22 3 -39 6 -26 5 -31 11 -31 34 0 22 6 31 28 38 39 15 72 14 72 -2z"/>
<path d="M1891 5917 c-13 -33 4 -109 38 -177 25 -51 27 -60 15 -81 -49 -88
-102 -331 -90 -416 7 -53 40 -133 55 -133 21 0 39 58 45 150 8 100 37 180 90
243 l23 29 49 -52 c27 -29 48 -57 46 -63 -2 -6 3 -32 9 -58 l13 -48 -56 -59
c-118 -124 -138 -238 -60 -340 23 -31 37 -59 38 -82 1 -20 18 -63 40 -99 33
-55 39 -74 39 -121 0 -37 -6 -66 -18 -83 -9 -14 -17 -35 -17 -47 0 -44 60 -10
91 53 12 23 28 50 37 59 29 34 4 111 -98 298 -61 113 -32 233 81 332 32 28 63
64 69 79 17 40 -9 86 -89 157 -42 38 -79 82 -99 119 -17 32 -47 71 -67 86 -53
42 -104 125 -118 193 -7 32 -16 65 -20 72 -13 19 -37 14 -46 -11z"/>
<path d="M5685 5305 c-22 -8 -41 -15 -42 -15 -1 0 -26 -20 -56 -44 -29 -24
-72 -56 -95 -71 -22 -15 -49 -43 -60 -63 -10 -21 -33 -60 -51 -88 -33 -52 -39
-78 -70 -306 -6 -45 -23 -106 -41 -145 -63 -138 -206 -389 -247 -434 -24 -25
-43 -51 -43 -58 0 -17 42 -13 70 7 55 38 147 143 189 217 24 43 80 123 123
179 l79 101 -8 70 c-13 112 -7 189 23 278 51 155 85 201 209 285 33 22 73 54
89 71 l30 31 -30 0 c-16 -1 -47 -7 -69 -15z"/>
<path d="M5747 4656 c-53 -15 -107 -59 -107 -89 0 -11 11 -30 25 -42 24 -23
24 -23 127 -8 168 24 330 4 416 -53 l25 -17 -62 -28 c-34 -16 -93 -49 -130
-73 -37 -25 -87 -54 -112 -64 -24 -11 -57 -34 -74 -52 -16 -17 -55 -45 -85
-61 -31 -16 -76 -48 -100 -70 -44 -41 -45 -42 -22 -52 38 -17 92 8 218 101
123 92 202 142 223 142 13 0 132 86 169 121 22 22 23 22 58 6 81 -39 101 -4
33 58 -50 45 -140 87 -246 116 -43 11 -102 32 -130 46 -64 31 -158 39 -226 19z"/>
<path d="M5940 4465 c-129 -29 -178 -46 -351 -124 -89 -41 -159 -80 -202 -115
-37 -29 -117 -80 -178 -112 -61 -32 -128 -73 -148 -91 -76 -64 -401 -234 -539
-282 -89 -30 -400 -107 -512 -127 -107 -18 -180 -15 -360 16 -63 11 -167 27
-230 35 -159 22 -225 45 -291 103 -30 27 -84 71 -121 98 -37 27 -101 90 -142
140 -74 89 -148 153 -154 134 -5 -14 51 -114 113 -202 46 -65 70 -86 152 -141
137 -89 166 -129 53 -72 -106 54 -122 16 -26 -65 42 -35 62 -59 59 -70 -6 -21
89 -65 262 -122 114 -38 123 -39 180 -30 45 8 88 7 169 -3 144 -18 223 -6 279
43 27 23 21 30 -35 40 l-53 10 56 1 c88 2 275 37 507 95 116 29 212 51 212 50
0 -2 -33 -20 -72 -40 -40 -20 -140 -75 -222 -122 -143 -82 -152 -85 -245 -98
-279 -39 -714 -44 -851 -10 -88 23 -208 83 -228 115 -9 14 -46 58 -82 96 -49
51 -72 84 -84 122 -16 49 -62 103 -88 103 -7 0 -9 -19 -6 -50 4 -38 18 -70 61
-138 31 -48 60 -99 66 -113 16 -43 118 -127 205 -168 44 -22 122 -49 172 -61
81 -20 91 -25 103 -52 34 -75 177 -121 376 -121 161 0 545 40 566 59 9 8 61
21 115 29 203 31 340 79 443 157 47 36 52 42 35 48 -22 8 -54 0 -109 -27 -49
-24 -95 -36 -95 -25 0 5 19 14 43 21 72 22 300 136 340 170 75 66 27 72 -93
11 -30 -15 -75 -34 -100 -41 -25 -7 -60 -25 -77 -40 -30 -26 -116 -59 -152
-59 -8 0 -26 -11 -40 -23 -15 -13 -52 -34 -84 -47 -32 -12 -68 -30 -80 -40
-23 -18 -211 -52 -397 -71 -180 -19 -529 0 -564 32 -17 15 115 22 321 15 310
-9 371 3 535 110 40 26 152 89 248 139 96 51 225 123 285 160 117 73 270 149
320 160 27 6 28 5 13 -8 -24 -19 -23 -37 3 -37 51 0 148 78 369 296 l185 183
116 55 c64 30 135 60 159 65 42 9 63 26 57 46 -6 17 -58 14 -167 -10z m-455
-360 c-154 -150 -173 -165 -205 -165 -54 0 -134 -24 -247 -74 -57 -24 -103
-41 -103 -36 0 5 39 33 87 62 47 29 98 64 112 78 14 14 55 38 91 53 36 15 112
62 170 103 96 70 230 145 255 143 5 0 -66 -74 -160 -164z m-605 -315 c-24 -15
-37 -11 -16 5 11 8 22 12 25 9 3 -3 -1 -9 -9 -14z m-45 -20 c-3 -5 -11 -10
-16 -10 -6 0 -7 5 -4 10 3 6 11 10 16 10 6 0 7 -4 4 -10z m-1439 -171 c43 -11
129 -32 189 -45 l110 -24 -85 4 c-65 4 -114 14 -205 45 -131 43 -135 53 -9 20z
m439 -79 c16 -7 11 -9 -20 -9 -22 0 -47 4 -55 9 -19 13 46 13 75 0z"/>
<path d="M6021 4093 c-54 -54 -126 -134 -160 -178 -35 -44 -77 -88 -93 -97
-17 -9 -39 -34 -48 -56 -11 -25 -40 -56 -78 -86 -34 -25 -70 -60 -82 -76 -12
-17 -29 -30 -39 -30 -10 0 -26 -9 -37 -21 -31 -34 -72 -60 -148 -94 -39 -17
-86 -39 -105 -49 -31 -16 -32 -19 -17 -28 59 -33 202 30 310 137 42 41 80 75
85 75 5 0 14 -7 21 -15 7 -8 19 -15 27 -15 22 0 27 30 8 44 -17 12 -14 17 31
62 27 27 64 66 83 88 19 21 65 63 103 93 48 39 80 76 108 123 21 37 60 84 85
104 42 35 75 81 75 106 0 28 -40 1 -129 -87z"/>
<path d="M5572 3816 c-80 -81 -133 -158 -119 -173 12 -12 70 33 155 121 67 69
92 102 92 121 0 46 -33 28 -128 -69z"/>
<path d="M7964 3830 l0 -59 43 -23 c36 -19 47 -21 72 -11 28 10 36 7 125 -51
60 -39 100 -73 112 -94 37 -69 130 -115 214 -105 28 3 69 0 94 -7 39 -11 52
-10 95 6 l50 18 70 -33 c93 -43 166 -49 425 -40 378 15 575 56 694 147 28 21
32 30 27 51 -4 14 -10 75 -13 136 -6 88 -10 110 -23 113 -10 2 -23 -16 -39
-55 -35 -84 -148 -195 -260 -253 -84 -44 -86 -45 -185 -46 -55 0 -109 -5 -120
-11 -30 -16 -221 -36 -306 -32 -70 4 -80 7 -170 62 -87 52 -234 115 -245 104
-10 -9 8 -33 41 -55 19 -12 35 -30 35 -38 0 -14 -8 -16 -46 -10 -26 3 -69 6
-95 6 -37 0 -49 4 -49 15 0 9 -8 18 -17 21 -64 21 -152 75 -243 149 -104 85
-223 155 -264 155 -19 0 -21 -6 -22 -60z"/>
<path d="M7620 3811 c0 -21 74 -94 170 -166 36 -27 90 -71 120 -98 62 -55 277
-191 393 -249 68 -35 76 -42 71 -62 -6 -27 20 -53 62 -62 23 -4 34 0 53 20 14
14 30 26 37 26 6 0 41 -14 76 -30 117 -55 229 -74 438 -74 146 -1 204 3 275
18 83 18 96 24 180 87 85 64 122 106 137 157 10 36 -26 28 -76 -18 -24 -22
-46 -40 -49 -40 -3 0 -7 11 -9 25 l-3 26 -99 -50 c-71 -36 -104 -47 -112 -40
-9 8 -204 49 -231 49 -2 0 -3 -10 -3 -23 0 -40 43 -69 127 -87 l78 -17 -195
-7 c-217 -9 -297 0 -395 40 -33 14 -98 39 -145 56 -125 45 -315 132 -395 183
-38 24 -90 67 -114 96 -28 33 -63 60 -95 74 -28 13 -78 48 -111 79 -51 48
-147 106 -176 106 -5 0 -9 -8 -9 -19z"/>
<path d="M7370 3721 c0 -38 237 -267 357 -345 22 -15 44 -38 47 -51 3 -13 16
-27 29 -31 12 -4 51 -27 85 -52 49 -35 75 -46 113 -50 54 -5 61 6 37 51 -15
30 -32 42 -102 77 -33 17 -68 39 -78 50 -13 13 -32 20 -58 20 -38 0 -43 4
-144 123 -120 140 -187 197 -258 218 -23 6 -28 4 -28 -10z"/>
<path d="M5636 3448 c-37 -40 -73 -83 -79 -95 -6 -13 -26 -33 -44 -44 -24 -15
-33 -27 -31 -43 6 -41 35 -28 110 49 115 119 159 181 141 199 -14 14 -31 2
-97 -66z"/>
<path d="M5130 3464 c-30 -15 -77 -35 -105 -44 -40 -15 -50 -23 -50 -42 0 -35
-13 -48 -72 -74 -30 -13 -78 -40 -106 -59 -28 -19 -59 -35 -67 -35 -8 0 -20
-8 -27 -19 -14 -22 -91 -43 -131 -35 -24 5 -32 2 -41 -14 -8 -14 -24 -20 -69
-24 -32 -3 -109 -20 -171 -38 -62 -17 -116 -28 -119 -24 -4 4 -2 8 3 11 46 17
110 62 113 77 6 32 -120 16 -243 -30 -244 -90 -268 -97 -340 -98 -55 0 -84 6
-132 27 -34 15 -77 27 -95 27 -22 0 -58 16 -108 46 -101 64 -190 93 -190 63 0
-6 24 -34 54 -63 58 -57 169 -119 299 -168 76 -29 94 -31 239 -36 148 -4 159
-3 184 17 15 12 32 21 38 21 6 0 43 15 81 33 61 29 78 33 130 29 33 -2 96 3
140 12 210 41 281 59 297 72 9 9 48 24 87 34 88 22 143 54 246 140 44 37 107
84 140 105 68 43 84 61 85 93 0 28 -3 28 -70 -4z"/>
<path d="M8810 3378 c0 -20 14 -28 87 -56 92 -35 126 -38 131 -9 3 12 -6 21
-27 28 -17 6 -31 15 -31 19 0 26 -35 40 -96 40 -60 0 -64 -1 -64 -22z"/>
<path d="M5325 3197 c-27 -24 -77 -58 -110 -77 -80 -44 -95 -58 -95 -90 0 -24
-5 -28 -56 -39 -71 -16 -117 -55 -117 -100 0 -84 80 -77 158 14 31 36 54 55
69 55 12 0 33 12 47 26 13 15 58 52 99 84 109 84 147 126 134 148 -6 9 -26 18
-45 20 -28 2 -43 -5 -84 -41z"/>
<path d="M4751 3096 c-13 -15 -210 -126 -339 -190 -125 -63 -159 -68 -434 -72
-136 -1 -252 -5 -258 -9 -22 -14 -8 -37 37 -57 41 -18 72 -21 297 -26 154 -3
309 0 401 7 141 11 153 14 192 41 36 26 50 30 107 30 74 0 129 18 145 48 10
18 6 20 -59 26 -37 3 -75 9 -84 12 -25 10 -19 68 14 130 16 31 27 60 24 65 -8
14 -30 11 -43 -5z"/>
<path d="M5380 3018 c-65 -61 -126 -101 -189 -125 -25 -9 -64 -31 -86 -49 -54
-43 -134 -85 -234 -125 l-84 -33 23 -18 c15 -12 39 -18 70 -18 58 0 197 46
277 91 87 49 233 148 233 158 0 5 17 35 39 67 21 33 42 69 45 82 13 41 -34 26
-94 -30z"/>
<path d="M1881 2866 c-17 -21 -39 -100 -76 -284 -43 -211 -125 -507 -163 -592
-34 -76 -43 -111 -78 -297 -14 -78 -36 -161 -50 -191 -14 -29 -24 -58 -22 -65
1 -6 -10 -42 -24 -78 -30 -74 -111 -369 -133 -482 -8 -39 -21 -91 -29 -115
-20 -57 -79 -144 -124 -183 -76 -67 -212 -144 -285 -163 -16 -4 -63 -27 -105
-51 -43 -25 -97 -48 -122 -53 -26 -5 -71 -26 -107 -51 -68 -46 -149 -82 -232
-101 -30 -7 -69 -23 -87 -35 -19 -13 -68 -30 -109 -40 -72 -16 -135 -52 -135
-77 0 -16 144 -3 205 18 28 9 159 63 292 120 134 57 296 123 360 147 70 26
155 67 208 101 50 31 109 62 133 69 31 8 44 18 49 35 3 13 31 55 63 94 66 80
82 122 111 287 13 75 32 142 53 191 49 108 80 209 131 430 51 221 67 272 105
350 15 30 34 80 43 110 26 92 76 342 101 513 14 89 30 176 36 192 20 51 37
160 29 182 -10 28 -24 36 -38 19z"/>
<path d="M8104 1846 c-21 -54 46 -94 232 -141 78 -19 210 -46 295 -60 84 -14
200 -36 258 -51 60 -14 151 -27 211 -31 58 -3 148 -16 200 -28 52 -13 156 -28
230 -35 328 -27 379 -32 450 -50 41 -10 144 -24 227 -29 84 -6 174 -16 199
-21 38 -9 51 -8 71 6 l25 16 -20 21 c-26 26 -201 55 -582 97 -742 82 -1163
143 -1315 190 -33 10 -85 22 -115 26 -77 9 -187 39 -276 74 -87 35 -83 34 -90
16z"/>
</g>
</svg>
