<?xml version="1.0" standalone="no"?>
<!DOCTYPE svg PUBLIC "-//W3C//DTD SVG 20010904//EN"
 "http://www.w3.org/TR/2001/REC-SVG-20010904/DTD/svg10.dtd">
<svg version="1.0" xmlns="http://www.w3.org/2000/svg"
 width="699.000000pt" height="1280.000000pt" viewBox="0 0 699.000000 1280.000000"
 preserveAspectRatio="xMidYMid meet">
<metadata>
Created by potrace 1.15, written by Peter Selinger 2001-2017
</metadata>
<g transform="translate(0.000000,1280.000000) scale(0.100000,-0.100000)"
fill="#000000" stroke="none">
<path d="M2738 12785 c-42 -8 -129 -31 -193 -50 -64 -19 -122 -35 -129 -35
-25 0 -174 -80 -248 -133 -43 -31 -109 -74 -148 -97 -38 -22 -74 -49 -80 -60
-6 -11 -23 -26 -38 -34 -52 -27 -194 -163 -216 -207 -15 -30 -40 -56 -78 -81
-31 -21 -72 -57 -92 -82 -50 -60 -94 -76 -262 -91 -164 -15 -207 -30 -368
-126 -78 -46 -116 -76 -137 -105 -15 -22 -84 -94 -153 -159 -69 -64 -126 -125
-126 -134 0 -9 -7 -25 -15 -35 -8 -11 -15 -27 -15 -36 0 -8 -16 -29 -35 -45
-19 -17 -35 -37 -35 -45 0 -9 -16 -40 -35 -70 -19 -30 -35 -62 -35 -70 0 -8
-18 -33 -41 -56 -29 -29 -52 -70 -83 -146 -24 -58 -56 -129 -73 -159 -22 -39
-37 -88 -52 -173 -12 -66 -29 -132 -37 -148 -8 -16 -12 -38 -8 -54 4 -14 7
-103 8 -197 l1 -172 67 -140 c99 -206 106 -257 47 -349 -52 -82 -63 -148 -64
-356 0 -208 10 -262 72 -385 85 -171 176 -260 369 -363 190 -101 206 -125 132
-194 l-42 -38 -31 30 c-39 38 -67 38 -107 0 -17 -16 -32 -30 -34 -30 -2 0 -20
11 -40 25 l-38 26 -44 -43 c-50 -49 -114 -175 -131 -256 -6 -29 -11 -107 -11
-173 0 -129 -1 -127 98 -327 24 -48 68 -82 105 -82 30 0 46 8 112 54 16 12 29
15 33 10 4 -6 21 -20 38 -32 27 -18 32 -30 38 -77 7 -65 27 -106 92 -200 l46
-66 -21 -82 c-11 -45 -27 -122 -36 -172 -9 -49 -23 -107 -31 -128 -8 -21 -12
-42 -9 -47 3 -5 6 -69 6 -142 -1 -141 -15 -304 -55 -643 -14 -115 -32 -338
-41 -495 -8 -157 -21 -323 -27 -370 -7 -47 -12 -166 -13 -265 0 -144 4 -193
18 -245 28 -100 91 -219 165 -311 l67 -83 116 -46 c129 -50 204 -91 219 -120
5 -10 10 -32 10 -48 0 -53 39 -186 77 -261 55 -109 137 -188 255 -245 88 -42
205 -75 280 -77 18 -1 44 -4 57 -8 l24 -7 -31 -35 c-19 -22 -48 -41 -74 -48
-40 -12 -365 -214 -858 -533 -232 -151 -413 -280 -499 -357 -47 -43 -52 -51
-42 -69 21 -40 46 -45 148 -31 147 20 342 -8 515 -74 35 -13 92 -30 128 -36
37 -7 95 -29 135 -50 39 -21 122 -61 185 -90 63 -29 136 -68 163 -87 39 -29
47 -39 47 -67 0 -48 31 -98 76 -121 41 -22 157 -28 264 -14 l55 7 97 -202
c180 -373 299 -708 338 -947 12 -69 32 -149 45 -180 14 -30 32 -88 40 -128 16
-80 27 -105 58 -139 l20 -22 29 20 c16 12 76 76 134 143 58 66 133 142 166
167 36 28 72 67 89 96 16 27 52 69 81 94 88 73 497 480 545 541 24 32 81 89
127 128 46 38 96 88 111 110 15 22 33 40 39 40 6 0 41 30 76 66 36 36 105 100
154 142 49 41 104 99 122 128 23 36 60 71 118 113 46 34 105 84 130 112 25 28
67 67 92 86 25 20 52 51 60 69 8 19 33 47 57 63 80 56 98 73 132 127 19 30 40
54 46 54 6 0 77 63 157 141 81 77 177 169 214 204 105 100 174 125 90 32 -21
-23 -42 -50 -45 -60 -19 -51 74 -121 150 -115 31 2 43 10 70 48 50 69 83 101
195 191 57 45 157 137 223 205 86 87 129 124 151 128 18 4 62 34 101 69 168
149 321 259 485 348 153 84 208 123 208 149 0 34 -29 68 -99 118 -152 107
-573 467 -781 668 -243 235 -251 237 -393 107 -32 -29 -62 -53 -66 -53 -4 0
-15 48 -24 108 -32 197 -79 360 -151 517 -40 89 -41 91 -40 200 1 70 10 160
27 250 14 77 28 159 32 183 4 27 18 55 36 75 18 20 29 43 29 62 0 16 12 53 25
80 14 28 25 57 25 66 0 9 10 24 21 35 12 10 48 58 80 105 32 48 79 104 104
124 25 21 45 42 45 48 0 5 20 32 45 58 25 26 45 55 45 62 0 8 11 18 24 21 14
3 37 26 56 56 18 27 37 50 42 50 16 0 101 80 156 145 27 33 98 107 157 165
213 209 304 327 354 465 13 33 31 69 41 80 30 33 74 128 71 155 -1 14 9 43 23
63 15 22 26 52 26 71 0 18 11 65 25 106 17 49 28 113 35 199 12 145 19 189 31
197 12 7 12 111 0 118 -4 3 -14 26 -21 51 -10 35 -10 52 -2 71 10 20 6 49 -24
162 -60 225 -51 347 37 510 26 49 39 86 39 112 0 22 12 76 27 122 39 118 38
237 -5 403 -17 66 -36 151 -43 190 -6 38 -18 75 -26 80 -8 6 -19 30 -24 54 -5
24 -23 62 -39 85 -16 22 -48 86 -70 140 -23 54 -56 122 -75 151 -35 56 -270
277 -495 467 -104 87 -136 120 -138 141 -2 15 -7 27 -12 27 -5 0 -17 14 -25
31 -15 28 -15 33 -1 54 21 33 20 41 -13 108 -16 31 -35 83 -41 115 -19 95 -39
154 -64 192 -13 20 -27 59 -31 88 -5 36 -14 58 -32 74 -13 13 -33 42 -43 64
-15 34 -42 58 -142 130 -67 49 -139 103 -158 120 -19 17 -69 46 -110 64 -114
49 -250 119 -299 153 -67 46 -125 64 -311 97 -259 47 -323 52 -392 35 -51 -14
-85 -14 -304 0 -210 13 -257 19 -320 40 -85 29 -214 91 -363 177 -58 34 -154
77 -219 100 -104 36 -128 40 -232 44 -74 2 -142 -2 -192 -11z m-153 -3558 c28
-15 71 -31 96 -35 57 -11 175 -105 284 -228 87 -97 116 -151 139 -252 9 -40
28 -103 43 -140 47 -121 178 -230 333 -277 30 -9 118 -22 195 -30 176 -17 217
-33 301 -121 48 -50 67 -79 83 -126 27 -78 27 -142 1 -191 -12 -23 -20 -56
-20 -87 0 -28 -7 -65 -16 -82 -28 -54 -13 -153 35 -251 23 -44 41 -88 41 -98
0 -10 -13 -54 -30 -99 -16 -45 -30 -100 -30 -123 0 -57 28 -108 70 -129 68
-34 208 -15 326 45 63 32 160 134 169 179 4 18 17 70 30 115 13 45 27 108 31
140 3 32 13 67 20 78 8 11 14 32 14 48 0 22 28 63 121 173 237 284 368 350
577 294 126 -34 147 -54 236 -224 90 -172 105 -223 88 -306 -8 -39 -9 -66 -3
-84 10 -26 1 -55 -71 -216 -14 -30 -28 -71 -32 -91 -4 -26 -13 -38 -27 -42
-12 -3 -18 -10 -14 -17 3 -5 -19 -73 -50 -149 -53 -132 -84 -244 -85 -304 0
-16 -7 -30 -16 -34 -8 -3 -13 -12 -10 -20 3 -7 2 -21 -3 -31 -5 -9 -14 -66
-21 -125 -6 -59 -28 -202 -50 -317 l-38 -208 -68 -93 c-88 -124 -104 -142
-166 -195 -136 -117 -235 -126 -335 -32 -31 30 -31 33 -27 97 6 71 -3 95 -30
85 -43 -17 -62 -143 -30 -205 8 -17 45 -50 85 -75 l69 -45 -6 -42 c-25 -188
-44 -250 -146 -482 -97 -219 -118 -254 -184 -320 -29 -28 -56 -65 -60 -81 -9
-37 -259 -287 -335 -336 -32 -20 -65 -50 -75 -67 -10 -16 -32 -36 -48 -43 -48
-19 -237 -146 -278 -186 -20 -19 -35 -39 -32 -44 9 -14 83 -9 117 8 111 58
317 214 525 397 109 96 126 108 150 102 23 -5 43 4 103 43 151 99 347 287 673
645 49 53 96 97 105 97 14 0 21 -19 35 -92 39 -212 112 -497 152 -603 3 -6
-29 -55 -71 -110 -41 -55 -93 -134 -115 -175 -22 -41 -87 -138 -145 -214 -57
-77 -132 -192 -166 -255 -107 -200 -119 -220 -193 -314 -40 -51 -99 -139 -132
-196 -58 -102 -92 -140 -151 -172 -17 -10 -62 -61 -103 -120 -40 -57 -94 -126
-120 -154 -26 -27 -53 -65 -60 -83 -7 -19 -46 -79 -86 -134 -40 -55 -85 -125
-100 -156 -15 -31 -50 -81 -80 -110 -30 -31 -67 -84 -88 -125 -44 -89 -119
-177 -136 -160 -9 8 -8 28 5 84 10 47 14 90 10 120 -10 72 -8 138 5 154 9 10
6 22 -14 52 -14 21 -30 60 -35 87 -16 84 -70 136 -150 144 -66 6 -164 -24
-303 -94 -84 -42 -108 -51 -108 -38 0 9 14 76 31 148 42 181 59 280 59 356 0
73 21 175 74 362 20 71 36 139 36 153 0 14 7 28 16 32 12 5 15 14 10 43 -5 33
0 45 50 116 31 43 67 102 80 129 47 98 20 205 -50 205 -9 0 -15 -21 -19 -62
-3 -35 -13 -88 -23 -118 -22 -67 -90 -168 -130 -195 -50 -34 -242 -112 -356
-145 -58 -16 -130 -41 -160 -54 -112 -51 -217 -61 -628 -60 -498 1 -616 18
-745 105 -107 72 -184 191 -193 297 -3 31 -12 68 -22 82 -9 14 -33 55 -54 92
-42 77 -60 93 -135 114 -65 20 -187 100 -236 157 -20 23 -50 57 -66 75 -16 19
-29 43 -29 53 0 11 -16 50 -35 87 -26 52 -36 88 -44 157 -17 139 -14 366 5
439 9 34 14 80 11 104 -3 24 2 67 10 95 10 34 18 121 22 251 4 146 9 200 19
204 8 2 12 27 12 75 0 40 9 162 19 272 11 110 22 281 26 380 10 290 22 398 55
494 16 47 32 118 35 156 8 87 20 119 50 135 28 15 41 8 50 -27 9 -39 64 -122
92 -140 35 -23 97 -32 148 -21 59 13 140 85 156 139 15 48 29 49 103 11 52
-27 54 -28 42 -54 -6 -15 -56 -77 -111 -139 -146 -162 -209 -249 -275 -384
-182 -371 -212 -520 -191 -972 7 -173 14 -240 26 -262 8 -16 12 -37 9 -45 -3
-9 2 -28 11 -43 35 -53 6 -164 -76 -289 -21 -33 -39 -67 -39 -75 0 -8 -8 -31
-18 -51 -15 -29 -17 -47 -11 -107 8 -77 20 -101 49 -101 14 0 19 12 25 57 4
32 14 76 23 98 16 42 90 173 121 214 l19 25 68 -63 c77 -71 179 -124 239 -125
30 0 57 10 111 42 38 23 76 42 83 42 7 0 51 35 98 78 62 56 91 91 108 130 26
58 44 64 85 32 29 -23 110 -27 172 -8 59 17 133 89 167 161 16 34 48 134 72
222 55 211 96 298 158 341 19 13 21 11 40 -30 24 -54 89 -152 150 -226 141
-168 225 -261 254 -279 68 -42 235 -262 324 -426 41 -76 53 -90 76 -93 18 -2
27 1 27 11 0 23 -31 120 -52 162 -43 86 -214 334 -241 350 -52 31 -157 149
-267 300 -88 121 -109 157 -110 185 0 19 -7 80 -15 135 -8 55 -15 130 -15 166
0 103 -95 394 -154 472 -114 152 -380 124 -604 -62 -61 -51 -73 -68 -127 -177
-33 -67 -67 -129 -75 -139 -12 -14 -16 -54 -18 -172 -3 -132 -2 -153 12 -153
8 0 26 15 39 33 19 25 27 53 36 129 20 176 88 320 199 418 64 58 189 121 281
144 74 18 98 10 164 -53 72 -67 107 -165 107 -296 0 -140 -48 -272 -136 -373
-25 -28 -98 -94 -164 -146 -141 -113 -185 -157 -212 -211 -11 -22 -44 -65 -73
-95 -37 -38 -71 -90 -109 -166 -72 -143 -182 -266 -282 -315 -91 -45 -172 -47
-232 -6 -79 55 -123 140 -198 385 -32 103 -37 136 -45 277 -10 187 -10 183 -5
300 3 72 14 128 56 270 28 99 67 214 86 256 19 42 34 83 34 91 0 8 15 35 33
59 19 24 64 90 101 146 60 90 132 172 177 199 8 5 25 27 38 49 13 22 38 52 56
68 19 15 39 44 45 65 7 20 23 48 36 62 26 28 71 155 81 227 3 26 19 73 34 103
53 103 67 352 26 471 -42 122 -148 269 -195 269 -11 0 -34 -11 -50 -25 -38
-32 -43 -31 -67 5 -11 16 -23 30 -27 30 -3 0 -21 -17 -38 -37 l-31 -38 -37 43
c-55 63 -82 57 -126 -30 -21 -43 -29 -46 -51 -20 -46 53 -57 62 -79 62 -17 0
-34 -12 -52 -35 -36 -48 -35 -48 -92 24 -24 31 -61 23 -99 -19 -14 -17 -30
-30 -35 -30 -12 0 -10 64 3 97 7 15 13 57 14 93 2 36 8 94 14 130 7 36 19 112
27 170 25 160 41 193 165 336 50 58 81 85 102 90 16 3 46 21 66 38 21 19 68
43 111 58 73 25 79 25 234 17 87 -4 164 -13 169 -18 16 -16 107 -13 217 5 52
8 140 19 195 24 76 6 113 15 155 35 52 25 61 26 175 22 106 -3 126 -7 170 -30z
m-1275 -1748 c0 -34 29 -79 50 -79 11 0 44 16 72 36 l52 36 15 -31 c14 -29 18
-31 68 -31 29 0 53 -5 53 -10 0 -37 -83 -208 -126 -258 -1 -2 -40 29 -86 69
-87 76 -181 127 -248 136 -22 3 -68 0 -101 -6 -102 -20 -165 -54 -236 -127
-63 -64 -65 -65 -84 -48 -55 49 -88 152 -68 211 9 29 15 34 33 28 11 -4 44 -9
73 -12 48 -5 54 -3 83 26 34 33 48 32 84 -8 11 -12 29 -21 41 -21 22 0 64 39
84 78 17 32 39 27 58 -13 21 -45 46 -45 87 -1 31 34 74 58 89 49 4 -2 7 -13 7
-24z m4010 -1751 c0 -13 -9 -77 -20 -143 -11 -66 -23 -185 -26 -265 l-6 -145
-63 -65 c-34 -36 -126 -136 -204 -222 -149 -165 -249 -262 -341 -330 -30 -23
-72 -63 -92 -89 -21 -27 -51 -55 -68 -64 -29 -15 -30 -15 -30 5 0 13 7 20 20
20 13 0 20 7 20 18 0 10 17 43 39 73 94 132 251 439 251 491 0 16 9 38 20 50
11 12 20 32 20 45 0 16 6 23 19 23 36 0 113 40 194 101 69 52 84 69 103 114
12 30 33 67 46 83 21 25 26 44 30 114 7 98 47 208 78 208 6 0 10 -10 10 -22z
m-2024 -2242 c3 -8 -9 -47 -26 -87 -18 -40 -35 -91 -38 -113 -2 -23 -17 -66
-32 -96 -15 -30 -44 -100 -65 -155 -68 -184 -88 -230 -126 -290 -20 -33 -44
-86 -53 -119 -10 -32 -27 -68 -40 -80 -13 -12 -30 -50 -40 -88 -10 -38 -31
-87 -46 -110 -17 -26 -40 -90 -58 -160 -34 -128 -57 -181 -96 -217 -22 -21
-26 -22 -32 -8 -3 9 5 38 19 64 14 26 30 68 37 93 7 24 38 106 71 181 32 75
62 163 68 198 8 46 23 85 60 146 31 52 62 123 85 198 25 80 47 130 72 163 26
33 34 53 30 69 -4 15 3 42 18 72 14 26 45 107 70 178 34 97 53 136 73 152 33
27 42 28 49 9z m-1241 -271 c50 -8 106 -15 125 -15 30 -1 40 -8 70 -47 19 -26
100 -121 180 -213 146 -166 248 -293 309 -383 l32 -48 -22 -67 c-39 -119 -118
-297 -129 -294 -6 1 -62 38 -123 81 -351 245 -545 327 -822 346 -49 3 -123 2
-162 -3 -40 -4 -73 -6 -73 -4 0 10 318 484 382 570 80 106 72 103 233 77z
m-246 -731 c2 -2 -9 -54 -24 -117 -15 -63 -25 -122 -23 -133 3 -17 16 -20 102
-26 204 -15 413 -68 594 -153 64 -30 92 -49 93 -62 1 -10 2 -31 3 -47 1 -37
42 -63 110 -72 45 -7 49 -5 89 33 34 32 56 43 119 58 89 21 89 22 113 152 29
159 30 161 77 174 23 6 98 39 167 73 70 35 150 71 179 80 54 18 188 24 202 9
11 -11 37 -185 45 -298 8 -109 -9 -374 -30 -473 -18 -87 -93 -286 -118 -313
-25 -27 -92 -25 -139 4 -20 12 -72 54 -115 93 -43 38 -100 85 -128 104 -27 19
-78 55 -113 81 -97 73 -161 77 -231 14 -21 -19 -50 -39 -65 -45 -96 -36 -272
26 -340 120 -61 85 -110 89 -267 19 -102 -45 -207 -68 -310 -69 l-67 0 -10 43
c-26 107 -36 216 -36 417 0 118 4 245 8 283 l8 67 51 -6 c29 -4 54 -8 56 -10z
m1050 -1201 c137 -74 273 -190 253 -216 -96 -128 -136 -176 -162 -195 -18 -14
-30 -32 -30 -46 0 -12 -17 -47 -39 -77 -21 -30 -71 -108 -111 -174 -40 -66
-74 -122 -76 -124 -11 -11 -34 76 -34 128 0 136 -79 418 -167 594 -18 37 -31
72 -28 77 4 6 39 10 78 10 48 0 82 6 102 17 113 62 111 62 214 6z"/>
<path d="M2804 8256 l-33 -33 -20 23 c-28 32 -64 31 -81 -1 -7 -14 -21 -25
-30 -25 -9 0 -22 11 -28 25 -14 30 -45 32 -88 6 l-32 -19 -11 24 c-16 35 -66
33 -113 -6 l-36 -30 -6 26 c-6 22 -11 25 -34 19 -117 -29 -187 -133 -212 -318
-16 -120 -13 -159 20 -246 57 -156 95 -210 167 -237 l46 -18 23 29 c22 28 25
29 57 17 41 -15 69 -15 100 -1 21 9 28 7 50 -15 32 -32 43 -32 90 0 21 14 40
24 41 22 2 -1 9 -13 15 -25 16 -31 55 -30 93 2 35 30 58 32 58 6 0 -29 27 -33
78 -11 l45 20 22 -20 c14 -13 35 -20 61 -20 35 0 42 4 58 35 22 40 37 43 73
15 35 -27 54 -25 97 9 36 28 38 29 65 14 26 -16 30 -15 75 10 l48 27 26 -20
c30 -25 50 -20 111 26 29 23 55 34 77 34 28 0 40 8 73 49 73 93 99 170 87 255
-6 36 -13 48 -34 58 -15 7 -40 34 -57 60 -23 35 -37 47 -62 51 -18 3 -49 17
-70 31 -39 27 -68 33 -78 16 -10 -16 -21 -11 -33 15 -9 20 -19 25 -47 25 -28
0 -35 -4 -35 -20 0 -15 -7 -20 -29 -20 -23 0 -30 5 -36 28 -9 39 -33 72 -51
72 -9 0 -30 -11 -46 -25 -33 -28 -45 -25 -59 12 -9 24 -12 25 -67 19 -53 -6
-60 -5 -82 19 -30 32 -60 32 -90 0 -31 -33 -43 -32 -63 10 -21 45 -49 45 -93
1z"/>
<path d="M5252 7718 c-84 -62 -158 -134 -175 -172 -10 -22 -35 -63 -56 -91
-21 -27 -65 -99 -99 -160 -154 -277 -156 -294 -79 -523 33 -100 64 -173 78
-189 20 -21 24 -35 23 -86 -1 -63 -1 -66 -108 -320 -74 -175 -42 -259 99 -260
87 0 178 52 226 129 17 27 19 47 17 145 l-3 114 45 100 c44 97 45 103 45 198
0 55 -4 101 -9 104 -5 3 -24 39 -43 79 -26 58 -43 80 -73 99 -21 14 -44 34
-50 45 -6 11 -21 20 -34 20 -13 0 -34 11 -47 24 -21 22 -24 32 -20 93 4 85 32
195 67 265 26 52 93 148 104 148 9 0 101 -167 128 -233 19 -46 27 -87 31 -158
7 -106 17 -129 59 -125 33 4 46 38 62 158 23 191 26 247 13 260 -7 7 -19 63
-28 123 -25 170 -39 211 -76 224 -46 16 -62 14 -97 -11z"/>
<path d="M2763 7235 c-59 -16 -161 -66 -259 -125 -38 -24 -84 -43 -110 -47
-87 -12 -111 -62 -40 -82 45 -12 87 -1 170 45 35 19 68 34 74 34 6 0 18 -23
27 -51 29 -86 98 -149 165 -149 45 0 189 71 190 93 0 9 11 35 25 57 14 22 25
46 25 54 0 8 3 17 8 19 10 7 124 -46 178 -83 37 -25 55 -30 104 -30 59 0 90
15 90 45 0 21 -41 45 -78 45 -40 0 -82 18 -146 65 -26 19 -66 38 -87 41 -22 4
-55 19 -75 35 -59 47 -163 60 -261 34z m87 -139 c0 -17 -24 -28 -45 -20 -27
11 -17 34 15 34 19 0 30 -5 30 -14z"/>
<path d="M2081 4908 c-24 -4 -88 -33 -143 -64 l-100 -56 -81 5 c-45 2 -118 10
-163 17 -95 15 -160 8 -205 -23 -19 -13 -53 -60 -85 -117 -30 -52 -73 -112
-95 -134 -40 -38 -41 -38 -55 -17 -31 43 -60 18 -119 -105 l-36 -75 45 -94
c24 -51 47 -108 51 -124 8 -38 17 -39 45 -3 20 24 21 35 16 92 -3 36 -8 81
-12 102 -8 44 7 54 95 69 71 11 167 0 356 -42 104 -23 167 -32 245 -33 l105
-1 137 78 c233 134 307 149 680 141 l223 -5 43 -44 c34 -36 42 -50 36 -68 -11
-39 -10 -42 26 -42 30 0 37 5 56 39 l22 39 -29 36 c-16 20 -46 59 -68 87 -24
31 -57 60 -84 73 -32 15 -47 30 -52 49 -9 38 -24 52 -51 52 -21 0 -24 -4 -24
-41 l0 -42 -49 7 c-82 11 -169 44 -316 120 -215 113 -314 142 -414 124z"/>
<path d="M2195 4258 c-218 -81 -382 -98 -524 -56 -76 22 -102 19 -109 -15 -3
-15 63 -41 170 -66 71 -17 255 -14 319 5 56 16 239 109 251 128 13 19 9 36 -9
35 -10 -1 -54 -15 -98 -31z"/>
<path d="M2030 4019 c-261 -11 -407 -25 -462 -45 -44 -15 -118 -78 -118 -100
0 -31 98 -31 233 1 193 45 480 73 602 57 43 -6 80 -6 95 0 17 7 76 4 182 -8
148 -17 158 -17 183 0 30 20 29 32 -6 58 -48 35 -365 52 -709 37z"/>
</g>
</svg>
