<?xml version="1.0" standalone="no"?>
<!DOCTYPE svg PUBLIC "-//W3C//DTD SVG 20010904//EN"
 "http://www.w3.org/TR/2001/REC-SVG-20010904/DTD/svg10.dtd">
<svg version="1.0" xmlns="http://www.w3.org/2000/svg"
 width="1280.000000pt" height="1059.000000pt" viewBox="0 0 1280.000000 1059.000000"
 preserveAspectRatio="xMidYMid meet">
<metadata>
Created by potrace 1.15, written by Peter Selinger 2001-2017
</metadata>
<g transform="translate(0.000000,1059.000000) scale(0.100000,-0.100000)"
fill="#000000" stroke="none">
<path d="M3375 10578 c-2 -7 -9 -33 -15 -57 -6 -24 -23 -55 -36 -68 l-25 -25
-167 7 -167 7 20 -22 c11 -12 62 -47 113 -77 94 -55 109 -76 77 -103 -20 -17
-110 -9 -280 25 -265 52 -341 45 -436 -46 -30 -27 -60 -55 -67 -61 -9 -8 -38
2 -115 41 -155 78 -251 96 -380 70 -63 -13 -76 -29 -22 -29 49 0 134 -20 176
-41 70 -35 126 -119 130 -195 3 -60 -7 -80 -53 -99 -71 -28 -96 -53 -135 -133
-20 -42 -47 -94 -61 -114 -29 -45 -33 -96 -12 -185 11 -49 11 -69 2 -102 -17
-54 -71 -111 -107 -111 -58 0 -119 72 -113 133 2 25 11 36 40 52 23 12 38 27
38 38 0 11 -20 42 -44 70 -24 29 -52 70 -62 92 -18 38 -22 40 -80 50 -75 12
-91 25 -99 79 -14 92 43 232 131 324 46 48 49 53 25 47 -46 -11 -131 -54 -171
-85 -51 -41 -88 -118 -96 -200 -10 -116 -9 -115 -176 -189 -83 -37 -103 -68
-95 -149 3 -30 7 -56 10 -58 2 -2 25 17 52 41 46 43 89 65 102 51 3 -3 2 -27
-3 -53 -17 -86 -2 -102 71 -75 54 20 64 12 65 -53 0 -22 8 -67 16 -100 8 -33
17 -118 20 -190 7 -208 40 -352 114 -508 23 -49 39 -95 36 -103 -3 -8 -19 -14
-40 -14 -29 0 -41 8 -76 50 -45 54 -80 66 -80 27 0 -23 49 -109 69 -121 36
-23 -38 -75 -107 -76 -53 0 -92 45 -92 107 0 26 -3 64 -6 85 l-6 36 -30 -34
c-43 -49 -76 -46 -126 12 -58 65 -130 210 -157 316 l-23 92 -7 -43 c-23 -136
54 -384 164 -530 22 -30 43 -68 46 -85 3 -17 2 -92 -3 -166 -10 -133 -10 -134
-41 -162 -58 -52 -120 -29 -166 62 -14 27 -41 62 -61 77 -20 15 -52 41 -71 57
-31 26 -38 28 -90 23 -92 -10 -126 14 -223 157 -19 28 -35 45 -38 38 -5 -16
25 -118 50 -165 28 -56 94 -124 133 -137 55 -18 58 -29 29 -106 -21 -57 -38
-81 -94 -135 -62 -60 -112 -129 -93 -129 5 0 24 17 43 36 51 52 83 66 134 59
l43 -7 6 39 c4 21 7 54 7 73 0 54 23 80 72 80 32 0 47 -7 75 -35 39 -39 38
-61 -3 -106 -29 -31 -31 -65 -4 -79 17 -9 27 -6 61 23 89 76 213 43 213 -56 0
-23 -14 -54 -42 -96 -71 -107 -79 -174 -32 -281 48 -109 41 -144 -37 -184 -40
-20 -61 -50 -76 -112 -17 -65 -41 -80 -166 -98 -169 -24 -245 -76 -320 -215
-42 -79 -60 -140 -66 -226 -6 -79 -12 -86 65 80 51 111 88 150 186 200 55 28
57 28 88 11 43 -23 57 -49 64 -118 7 -78 -20 -178 -59 -219 -36 -39 -59 -35
-148 26 -35 25 -68 42 -73 39 -4 -3 -5 -23 -2 -44 6 -36 4 -40 -20 -50 -30
-11 -36 -46 -8 -54 9 -3 40 -8 67 -11 106 -14 110 -26 25 -86 -33 -23 -60 -48
-60 -55 0 -14 36 -20 165 -30 109 -8 125 -15 125 -55 0 -26 -6 -32 -47 -50
-66 -28 -149 -35 -195 -16 -51 21 -133 100 -180 171 l-38 59 0 -55 c0 -31 7
-93 16 -139 19 -100 16 -104 -79 -113 -136 -14 -158 -19 -182 -38 -51 -40 -84
-140 -71 -213 9 -47 20 -38 35 28 6 30 21 64 33 77 21 23 24 23 178 17 131 -6
175 -4 280 14 167 27 223 28 249 4 26 -23 26 -51 2 -91 -24 -39 -46 -44 -171
-32 -105 10 -130 5 -130 -30 0 -28 72 -277 92 -317 11 -22 43 -66 70 -97 27
-32 45 -58 39 -58 -6 0 -41 11 -77 25 -37 14 -70 23 -73 19 -12 -11 185 -181
263 -227 24 -13 43 -16 82 -11 46 5 53 3 67 -16 36 -52 -49 -114 -155 -115
l-57 0 18 -28 c118 -186 153 -215 230 -191 89 28 108 29 124 3 8 -13 18 -58
22 -99 10 -109 22 -146 62 -191 62 -69 152 -99 196 -66 9 6 32 45 52 85 47 98
71 96 95 -8 15 -67 20 -76 65 -130 27 -33 35 -51 33 -74 -3 -27 -11 -35 -73
-65 l-70 -35 87 -10 c108 -14 121 -25 136 -120 11 -67 28 -98 64 -117 10 -5
67 -21 128 -34 60 -13 123 -31 139 -40 44 -22 50 -68 17 -137 -29 -60 -32 -96
-15 -164 10 -39 9 -47 -6 -64 -36 -40 -149 -18 -232 46 -17 13 -35 24 -38 24
-17 0 47 -89 98 -136 67 -62 97 -71 195 -54 111 18 148 16 191 -14 48 -34 92
-46 161 -46 72 0 112 -25 145 -89 33 -66 57 -87 117 -101 59 -15 99 -46 134
-106 15 -25 35 -46 47 -48 100 -20 106 -25 148 -113 16 -34 39 -68 50 -74 38
-20 100 -82 118 -118 12 -22 17 -48 14 -68 -3 -18 3 -52 12 -77 20 -52 17
-154 -4 -180 -9 -10 -29 -16 -57 -16 -65 0 -84 -23 -84 -103 0 -65 -11 -87
-43 -87 -29 0 -48 61 -63 205 -19 167 -21 175 -43 175 -23 0 -103 -84 -130
-138 -35 -68 -54 -210 -47 -347 8 -183 33 -245 127 -318 34 -26 65 -67 104
-132 31 -52 67 -102 81 -111 39 -26 85 -12 155 46 57 47 63 50 83 37 49 -32
68 -120 41 -195 l-18 -49 30 -39 c24 -31 32 -52 37 -104 4 -44 16 -85 38 -128
l31 -62 -18 -61 c-17 -55 -17 -68 -6 -132 25 -135 24 -174 -8 -337 -44 -225
-47 -255 -27 -285 21 -33 60 -33 90 0 18 19 25 41 28 90 6 71 28 115 57 115
10 0 34 -11 54 -24 74 -51 169 -60 214 -22 23 20 25 26 14 40 -7 8 -45 26 -84
38 -87 28 -152 83 -190 161 -47 97 -37 122 95 216 l46 33 -79 91 c-77 87 -119
153 -132 208 -11 46 -10 206 2 228 16 28 45 27 69 -4 11 -14 39 -70 63 -126
48 -114 84 -159 123 -159 40 0 42 25 13 109 -36 102 -34 150 13 313 51 177 63
249 58 350 -3 76 -6 88 -43 148 -33 53 -40 73 -39 111 2 57 36 124 72 143 35
18 162 36 255 36 121 0 138 -9 262 -134 96 -97 128 -122 245 -191 198 -117
511 -327 543 -364 15 -18 27 -39 27 -47 0 -31 -31 -73 -96 -128 -37 -32 -76
-69 -87 -82 -37 -48 -51 -301 -19 -364 l17 -35 81 3 c73 4 83 2 108 -20 22
-19 29 -36 38 -96 16 -111 5 -137 -87 -207 -92 -69 -110 -93 -102 -141 12 -72
159 -229 262 -279 l57 -28 136 16 c190 24 252 22 286 -4 15 -12 38 -46 51 -75
l24 -54 1143 2 1143 3 3 46 c4 59 -22 94 -87 113 -58 17 -151 63 -151 75 0 4
20 16 45 25 50 19 85 57 85 91 0 18 -11 26 -62 45 -62 22 -114 62 -103 79 3 5
36 19 73 31 134 44 150 65 159 202 5 70 1 108 -17 191 -24 106 -22 143 6 171
31 32 59 18 175 -84 63 -55 124 -103 137 -107 64 -16 111 57 112 171 0 102
-18 189 -50 238 -15 24 -105 133 -201 243 -248 286 -317 381 -292 406 7 7 29
-4 74 -38 144 -109 187 -134 280 -164 129 -43 174 -67 276 -152 48 -40 144
-118 213 -172 69 -55 170 -143 225 -196 55 -53 121 -110 146 -127 54 -36 116
-102 131 -140 6 -15 14 -61 18 -102 6 -65 14 -87 58 -165 70 -120 70 -142 -3
-280 -67 -127 -71 -166 -24 -219 22 -26 55 -45 127 -72 53 -21 135 -55 181
-76 l84 -38 1538 0 1539 0 0 938 0 938 -33 12 c-62 22 -143 33 -318 42 -342
17 -413 49 -706 311 -148 133 -244 206 -308 235 -27 12 -104 34 -170 47 -275
57 -415 60 -540 12 -243 -94 -264 -99 -375 -99 -134 0 -225 19 -472 100 -110
36 -215 64 -238 64 -22 0 -88 -18 -148 -39 -170 -63 -180 -64 -410 -58 -240 7
-289 16 -337 62 -28 26 -35 40 -35 71 1 77 85 208 224 350 84 85 133 105 195
82 28 -11 43 -26 67 -71 38 -71 76 -112 98 -104 13 5 16 22 16 81 0 49 4 78
13 83 6 4 71 8 142 9 152 0 201 16 252 80 41 52 95 163 122 249 12 39 33 104
46 145 13 41 29 94 35 118 6 24 29 70 50 104 45 69 60 113 60 178 0 106 42
170 109 170 22 0 43 -6 48 -12 4 -7 8 -75 8 -152 0 -119 2 -140 17 -149 24
-15 53 13 74 72 63 175 78 187 168 136 48 -27 80 -37 130 -42 37 -3 66 -2 66
3 0 5 -20 20 -45 33 -66 35 -115 86 -115 121 0 23 16 45 73 102 55 54 78 86
90 122 23 67 22 96 -10 217 -18 71 -27 131 -27 189 -1 84 -1 85 40 140 64 85
96 161 62 146 -44 -18 -121 -37 -133 -32 -28 10 -28 52 0 115 25 55 27 67 19
119 -14 99 -10 153 19 219 31 70 45 157 36 223 -3 25 -7 43 -8 40 -1 -3 -12
-44 -25 -92 -26 -98 -49 -141 -74 -136 -9 2 -20 18 -26 35 -7 27 -4 42 19 87
32 64 37 148 15 287 -14 91 -9 139 14 139 8 0 28 -8 45 -17 28 -17 32 -17 46
-2 29 29 29 87 0 193 -16 60 -24 108 -20 124 4 15 28 58 54 97 29 43 59 107
77 161 26 78 29 103 29 209 l0 120 -58 124 c-39 81 -60 141 -64 175 -5 48 -1
59 61 179 58 112 80 177 60 177 -3 0 -26 -18 -51 -40 -25 -22 -49 -40 -54 -40
-14 0 -31 69 -24 100 4 17 26 58 49 92 59 86 86 142 86 175 -1 26 -8 20 -94
-70 -86 -91 -96 -98 -127 -95 l-33 3 -13 93 c-15 105 -42 194 -60 199 -7 3
-20 -24 -33 -69 -29 -101 -50 -147 -73 -160 -26 -14 -35 -2 -53 68 -19 76 -34
114 -45 114 -10 0 -29 -28 -66 -100 -34 -65 -62 -83 -105 -68 -42 15 -56 55
-68 196 -6 66 -15 134 -20 153 -6 19 -10 64 -10 100 0 86 20 115 130 191 132
91 151 108 173 157 28 64 28 162 -1 218 -31 59 -38 59 -45 3 -8 -67 -44 -145
-80 -176 -24 -20 -38 -24 -76 -22 -44 3 -47 5 -74 56 -16 28 -34 52 -40 52 -7
0 -32 -14 -57 -30 -53 -35 -75 -38 -91 -9 -17 33 -40 190 -33 231 10 63 25 69
160 66 99 -3 119 -1 121 12 2 9 -16 26 -46 42 -61 35 -111 90 -111 125 0 61
75 130 264 243 118 71 156 105 156 140 0 59 -45 130 -81 130 -19 0 -22 -7 -39
-93 -14 -71 -61 -127 -106 -127 -59 0 -190 46 -214 74 -14 18 -17 12 51 96 43
53 69 101 69 129 0 37 -17 31 -48 -19 -45 -73 -103 -82 -116 -19 -7 37 -23 59
-41 59 -9 0 -14 -27 -17 -90 -4 -77 -7 -93 -28 -115 -29 -31 -48 -31 -110 0
-27 14 -83 34 -124 45 -68 19 -78 20 -110 6 -20 -8 -36 -19 -36 -23 1 -4 19
-21 41 -36 51 -35 78 -94 79 -168 0 -62 -28 -154 -60 -199 -19 -27 -27 -30
-75 -30 -49 0 -55 2 -61 24 -3 14 2 60 12 103 30 139 30 155 -6 196 -17 20
-48 41 -68 48 -20 6 -43 16 -49 22 -21 16 -15 57 18 115 31 56 37 111 11 120
-7 2 -34 -19 -60 -48 -53 -59 -88 -80 -131 -80 -50 0 -55 27 -15 90 37 58 52
115 38 138 -5 8 -25 20 -43 26 -19 6 -39 19 -45 28 -20 32 7 43 114 44 102 1
130 10 130 43 0 19 -32 52 -67 70 -27 14 -93 14 -153 0 -24 -5 -55 -7 -68 -4
-22 5 -24 9 -17 43 16 81 14 85 -34 94 -52 9 -73 24 -69 52 3 18 14 22 80 32
43 5 81 13 85 17 4 4 -30 45 -75 90 -45 45 -82 90 -82 99 0 23 62 42 108 33
20 -3 58 -20 83 -36 76 -48 89 -37 36 33 l-33 43 -2722 3 -2722 2 -65 -100
c-36 -55 -71 -100 -79 -100 -17 0 -23 23 -32 123 -5 56 -11 77 -21 77 -7 0
-16 -6 -18 -12z m-560 -423 c46 -12 68 -24 100 -57 23 -24 52 -50 65 -59 22
-15 23 -19 12 -43 -19 -42 -50 -51 -131 -38 -113 19 -163 16 -206 -14 -51 -34
-67 -28 -83 29 -12 43 -18 50 -58 67 -24 11 -47 27 -51 36 -13 36 74 75 202
92 65 9 63 9 150 -13z m-357 -248 c24 -26 52 -87 52 -116 0 -24 -36 -51 -67
-51 -37 0 -61 33 -68 93 -8 64 5 97 39 97 12 0 32 -10 44 -23z m-286 -157 c27
-37 34 -93 13 -113 -25 -25 -50 -21 -89 17 -42 39 -46 69 -14 103 28 30 64 27
90 -7z m-102 -185 c18 -19 21 -31 16 -56 -8 -42 -33 -69 -62 -69 -40 0 -73 76
-54 124 13 36 67 36 100 1z m7144 -80 c45 -30 59 -120 25 -161 -19 -23 -65
-17 -88 12 -38 48 -20 164 25 164 8 0 25 -7 38 -15z m-7446 -350 l3 -50 -31
30 c-19 20 -33 45 -37 70 l-6 39 34 -20 c31 -18 34 -25 37 -69z m3482 -1306
c112 -52 121 -72 65 -139 -19 -23 -35 -46 -35 -50 0 -38 86 -55 243 -48 138 7
170 21 186 83 15 60 61 109 93 99 33 -10 33 -9 30 -79 -5 -100 17 -96 104 17
48 62 64 65 84 17 17 -39 32 -37 64 12 15 22 33 39 39 37 7 -2 27 -33 45 -68
48 -95 55 -100 126 -100 75 0 126 -26 126 -65 0 -50 73 -89 158 -84 47 3 58
-3 67 -38 11 -45 34 -62 99 -74 51 -10 67 -19 98 -52 40 -44 82 -123 93 -176
l7 -34 -46 6 c-26 4 -104 9 -174 12 -161 8 -162 8 -212 50 -23 19 -48 35 -55
35 -8 0 -35 -18 -60 -40 -49 -42 -58 -46 -144 -54 -71 -7 -95 -25 -130 -95
-51 -99 -119 -145 -266 -180 -49 -12 -94 -26 -102 -32 -28 -24 -14 -73 46
-165 203 -315 232 -406 232 -738 0 -213 6 -251 51 -280 30 -19 123 -31 181
-22 l45 7 -47 62 c-84 112 -125 221 -143 377 -14 131 -2 220 42 295 29 50 62
116 103 208 12 27 37 61 57 77 144 114 599 119 726 7 59 -51 81 -129 50 -172
-12 -16 -34 -19 -181 -26 -231 -10 -236 -21 -39 -76 120 -33 154 -53 154 -93
0 -32 -21 -49 -64 -52 -13 -1 -64 17 -113 40 -99 47 -104 47 -330 39 -182 -7
-200 -13 -256 -77 -38 -45 -48 -75 -36 -108 11 -30 39 -28 105 10 67 37 132
41 173 10 21 -15 26 -28 27 -62 1 -42 3 -45 58 -80 l57 -37 -35 -27 c-39 -29
-46 -52 -18 -60 9 -3 80 -15 156 -26 166 -26 277 -59 335 -100 54 -40 68 -69
51 -110 -16 -38 -8 -48 50 -61 101 -23 158 -109 147 -219 -14 -130 -92 -218
-221 -249 -58 -14 -120 -44 -161 -79 -52 -43 -114 -132 -131 -187 l-17 -54 28
-62 c26 -58 27 -68 23 -168 -5 -118 -22 -165 -65 -182 -54 -20 -109 20 -238
174 -55 66 -104 98 -186 121 -69 19 -122 72 -117 114 3 25 6 27 53 26 28 0 80
-4 118 -9 58 -7 70 -5 87 10 34 31 26 71 -22 113 -142 124 -152 161 -94 367
18 66 31 126 29 133 -7 17 -27 15 -118 -13 -123 -38 -128 -37 -210 50 -43 46
-82 79 -100 83 -43 12 -104 -2 -239 -54 -170 -66 -204 -74 -347 -74 -136 0
-213 -16 -312 -67 -66 -33 -133 -97 -148 -140 -27 -83 20 -176 109 -215 68
-30 140 -25 257 18 96 36 106 37 225 37 184 1 355 -39 453 -104 71 -47 78 -95
22 -161 -47 -56 -31 -80 85 -128 92 -38 148 -70 180 -105 21 -22 22 -28 10
-35 -20 -13 -53 -12 -181 1 -132 14 -178 5 -309 -57 -153 -74 -166 -74 -218
-13 -28 35 -43 36 -68 8 -41 -46 -90 -59 -232 -59 -90 0 -143 -4 -166 -14 -20
-8 -61 -47 -100 -94 -66 -79 -103 -104 -172 -117 -56 -11 -82 42 -50 103 8 15
36 47 61 72 101 96 166 210 120 210 -8 0 -102 -88 -210 -195 -211 -210 -235
-244 -265 -375 -6 -30 -25 -94 -42 -143 l-29 -87 30 -108 c36 -127 41 -218 13
-252 l-18 -22 -60 46 c-64 48 -110 70 -125 60 -5 -3 -9 -20 -9 -39 0 -18 -7
-41 -16 -49 -14 -15 -20 -14 -69 14 -73 42 -78 40 -70 -19 5 -38 3 -52 -10
-65 -9 -9 -19 -16 -23 -16 -4 1 -23 24 -42 52 -19 28 -47 60 -62 71 -26 20
-26 20 -57 -2 -67 -48 -89 -12 -97 160 l-7 124 -41 36 -41 37 -7 183 c-3 101
-10 196 -13 212 -6 23 -4 27 13 27 26 0 59 -41 72 -89 5 -20 16 -45 25 -56 13
-17 16 -18 25 -5 5 8 10 37 10 63 0 52 13 87 33 87 7 0 31 -21 54 -47 22 -27
45 -45 49 -41 4 5 -11 47 -34 96 -49 103 -53 143 -17 197 22 32 24 40 12 54
-75 91 -219 250 -277 306 -151 148 -177 217 -204 548 -6 64 -4 77 8 77 19 0
15 -14 86 345 33 171 65 322 69 336 5 14 46 76 91 138 l82 112 -27 139 -27
139 68 75 c38 42 69 76 70 76 1 0 21 -7 44 -15 23 -8 48 -15 55 -15 7 0 44 27
83 59 39 32 87 64 108 71 89 30 458 -31 586 -96 88 -44 116 -115 61 -151 -23
-15 -50 -18 -167 -18 -124 0 -141 -2 -144 -17 -4 -21 32 -41 112 -62 33 -8 66
-22 75 -31 14 -14 14 -18 1 -43 -20 -35 -51 -38 -162 -17 -106 21 -237 17
-285 -8 -18 -10 -56 -38 -84 -63 -41 -36 -57 -45 -82 -42 -42 4 -47 32 -12 68
15 16 69 59 121 96 52 37 92 69 90 72 -8 8 -121 -30 -187 -63 -139 -70 -288
-216 -320 -312 -16 -50 -16 -136 0 -167 25 -46 61 -49 140 -10 38 19 81 34 94
34 16 0 46 -18 79 -46 86 -75 100 -79 283 -77 249 2 371 35 490 133 58 49 96
70 125 70 18 0 20 6 20 63 0 120 17 151 136 263 124 114 144 143 144 202 0 40
5 48 56 97 31 29 54 59 52 66 -3 8 -25 16 -50 19 -54 7 -76 22 -80 58 -3 25
-7 27 -50 30 l-48 3 0 105 0 104 -82 0 c-46 0 -243 9 -438 20 -195 11 -409 20
-476 20 -118 0 -122 -1 -162 -30 -22 -16 -70 -65 -106 -109 -66 -79 -97 -98
-137 -86 -10 4 -19 13 -19 22 0 8 43 60 95 116 64 68 107 124 128 167 29 59
32 73 32 160 0 52 -7 146 -15 209 l-14 113 23 19 c19 15 40 19 112 19 100 0
121 12 140 82 10 41 32 52 85 46 20 -2 36 -15 57 -45 16 -24 34 -43 41 -43 7
0 30 14 52 30 57 46 74 38 130 -56 10 -18 13 -17 48 14 41 35 51 37 107 20 30
-9 52 -8 96 2 64 14 56 18 106 -60 24 -37 85 -76 127 -82 45 -6 35 31 -30 110
-63 77 -68 90 -47 111 21 22 151 5 227 -30z m-4106 -321 c4 -46 9 -110 12
-143 l6 -60 -36 40 c-41 46 -76 112 -76 143 0 21 64 102 80 102 4 0 10 -37 14
-82z m2631 -808 c-72 -72 -80 -78 -87 -59 -11 29 1 95 21 113 20 17 44 23 101
25 l45 1 -80 -80z m-155 -503 c0 -68 -43 -110 -78 -75 -23 23 -13 56 25 87 21
17 41 31 45 31 5 0 8 -19 8 -43z m1128 -144 c45 -3 82 -9 82 -13 0 -11 -132
-68 -213 -91 -81 -23 -245 -35 -330 -25 -68 9 -107 36 -91 63 31 52 309 85
552 66z m810 -2002 c20 -11 65 -40 100 -64 93 -66 127 -73 301 -59 80 7 169
12 198 12 57 0 84 -18 76 -48 -7 -27 -68 -100 -178 -213 l-94 -96 -73 -6 c-40
-3 -98 -14 -128 -26 -105 -39 -143 -43 -243 -25 -122 21 -177 13 -304 -42
-113 -49 -188 -63 -339 -64 -78 0 -96 3 -124 23 -117 79 -99 188 60 358 65 69
65 69 120 69 65 1 83 10 135 68 53 59 78 70 197 86 57 7 117 20 133 29 41 22
118 21 163 -2z m-875 -267 c9 -9 -17 -55 -47 -83 -20 -19 -29 -22 -38 -13 -15
15 -14 67 2 86 12 16 71 22 83 10z m1037 -799 c110 -26 187 -64 257 -129 77
-71 110 -134 93 -175 -15 -38 -46 -66 -93 -86 -42 -17 -65 -14 -146 21 -72 32
-103 30 -211 -11 -110 -42 -159 -44 -232 -10 -63 29 -109 39 -142 31 -13 -3
-56 -33 -96 -67 -86 -71 -103 -79 -179 -79 -114 0 -269 58 -334 125 -45 47
-65 104 -49 140 35 77 386 213 657 255 96 14 388 6 475 -15z m-2731 -976 c28
-22 51 -45 51 -50 0 -22 -33 -86 -57 -111 -45 -47 -87 -31 -127 49 -25 50 -19
89 22 136 24 27 55 20 111 -24z m677 -390 c25 -6 49 -19 53 -28 12 -21 -14
-191 -34 -231 -9 -16 -22 -30 -30 -30 -20 0 -99 73 -126 116 -58 95 -41 151
56 175 17 4 31 7 33 8 2 1 23 -4 48 -10z m4201 -406 c8 -20 -32 -140 -54 -165
-21 -24 -60 -23 -73 1 -5 11 -10 43 -10 71 0 45 4 56 31 81 36 34 95 41 106
12z m28 -507 c8 -12 18 -36 21 -54 l7 -32 -83 0 -82 0 6 26 c21 83 94 117 131
60z"/>
<path d="M6357 6415 c-7 -16 1 -45 12 -45 17 1 33 19 29 36 -4 24 -33 30 -41
9z"/>
<path d="M5132 4693 c-7 -2 -17 -13 -22 -24 -10 -18 -6 -19 65 -19 80 0 93 10
45 35 -29 15 -63 18 -88 8z"/>
<path d="M2255 1941 c-49 -22 -130 -88 -278 -228 -62 -59 -159 -143 -217 -187
-126 -98 -208 -179 -243 -243 -32 -60 -100 -258 -132 -383 -32 -129 -61 -286
-85 -462 -22 -167 -18 -200 30 -217 25 -8 46 -1 177 64 176 88 414 184 729
293 279 98 277 97 313 82 37 -15 56 -51 52 -101 0 -10 -158 -131 -366 -284
-201 -146 -365 -268 -365 -271 0 -2 56 -4 125 -4 l125 0 -6 28 c-8 38 23 74
92 108 53 26 58 26 147 18 51 -5 157 -9 237 -9 128 1 151 3 194 23 60 27 90
28 158 1 53 -20 55 -20 103 -2 40 15 51 24 58 50 15 49 -23 104 -141 206 -138
120 -151 138 -161 227 -6 54 -12 76 -27 86 -127 91 -367 346 -422 448 -9 17
-23 67 -32 111 -14 73 -19 82 -50 102 -54 35 -59 40 -70 84 -14 51 9 181 42
242 21 37 84 97 148 138 24 16 24 17 7 42 -32 49 -86 63 -142 38z"/>
<path d="M2622 1744 c-42 -29 -69 -113 -42 -129 25 -16 95 96 82 133 -5 16
-13 15 -40 -4z"/>
<path d="M2401 1623 l4 -90 47 -52 c25 -28 50 -66 53 -84 11 -46 40 -101 103
-191 47 -66 56 -76 65 -61 20 37 2 146 -41 237 -48 103 -84 158 -170 257 l-64
74 3 -90z"/>
<path d="M8668 923 c-25 -29 -29 -52 -29 -164 0 -109 8 -155 38 -226 l16 -38
24 75 c28 87 46 225 37 290 -7 49 -28 80 -54 80 -9 0 -24 -8 -32 -17z"/>
<path d="M3670 614 c0 -28 58 -94 83 -94 21 0 39 26 35 52 -4 27 -61 68 -94
68 -19 0 -24 -5 -24 -26z"/>
<path d="M3940 370 c0 -21 9 -39 26 -55 26 -24 50 -34 42 -17 -27 57 -54 102
-60 102 -4 0 -8 -14 -8 -30z"/>
<path d="M3810 135 c0 -3 12 -29 28 -58 l27 -52 3 40 c3 31 -1 43 -18 57 -22
18 -40 23 -40 13z"/>
<path d="M3954 115 c-9 -22 15 -74 39 -87 17 -9 24 -7 39 12 23 28 23 52 0 73
-23 21 -71 22 -78 2z"/>
<path d="M4140 115 c-10 -12 -9 -20 4 -40 20 -30 41 -32 56 -5 8 15 6 24 -10
40 -24 24 -33 25 -50 5z"/>
</g>
</svg>
