<?xml version="1.0" standalone="no"?>
<!DOCTYPE svg PUBLIC "-//W3C//DTD SVG 20010904//EN"
 "http://www.w3.org/TR/2001/REC-SVG-20010904/DTD/svg10.dtd">
<svg version="1.0" xmlns="http://www.w3.org/2000/svg"
 width="1280.000000pt" height="1164.000000pt" viewBox="0 0 1280.000000 1164.000000"
 preserveAspectRatio="xMidYMid meet">
<metadata>
Created by potrace 1.15, written by Peter Selinger 2001-2017
</metadata>
<g transform="translate(0.000000,1164.000000) scale(0.100000,-0.100000)"
fill="#000000" stroke="none">
<path d="M7235 11606 c-61 -40 -104 -89 -112 -127 -8 -40 -38 -38 -84 7 l-38
37 -66 -17 c-62 -16 -69 -16 -92 -1 -23 15 -26 15 -43 0 -10 -9 -20 -29 -24
-46 -12 -60 -70 -93 -189 -106 l-58 -6 -54 53 c-52 51 -55 53 -97 46 -81 -13
-182 -95 -233 -190 -19 -35 -19 -38 -2 -67 24 -43 21 -56 -16 -68 -58 -19
-107 -84 -107 -141 0 -42 -24 -49 -58 -17 -22 21 -31 24 -45 15 -23 -13 -47
-67 -47 -108 0 -35 -22 -40 -52 -13 -18 16 -21 15 -58 -22 l-40 -39 0 -88 0
-88 -41 0 c-53 0 -83 31 -135 139 -37 77 -38 78 -54 58 -17 -20 -18 -20 -71
-3 -55 18 -119 52 -119 64 0 4 -4 13 -9 20 -6 11 -20 6 -63 -22 l-55 -35 20
-90 c11 -50 18 -93 15 -96 -2 -3 -33 -11 -69 -18 l-64 -13 -3 -58 c-2 -42 1
-63 13 -76 8 -9 13 -23 11 -31 -3 -8 -10 -33 -16 -56 -9 -36 -15 -43 -36 -43
-34 0 -84 -27 -84 -45 0 -19 -16 -19 -24 0 -14 37 -158 4 -201 -47 -23 -27
-25 -37 -25 -128 l0 -98 -32 -7 c-73 -14 -166 -48 -210 -77 -55 -35 -84 -77
-94 -136 -6 -40 -9 -43 -33 -38 -14 3 -44 8 -66 12 -22 3 -48 8 -57 11 -15 3
-18 -2 -18 -33 0 -21 7 -45 15 -54 11 -13 13 -24 6 -46 -5 -16 -12 -41 -15
-56 -7 -33 -40 -38 -63 -10 -14 16 -14 16 -9 -1 3 -10 9 -35 12 -56 6 -36 5
-38 -80 -108 l-86 -71 -76 24 c-65 21 -83 23 -134 15 -32 -5 -68 -14 -78 -20
-36 -19 -69 -68 -76 -112 -14 -91 -75 -153 -179 -184 -46 -13 -51 -13 -103 10
-41 18 -61 22 -78 15 -31 -11 -63 -54 -78 -101 -10 -36 -14 -39 -48 -39 l-37
0 -12 70 c-14 79 -14 79 -101 52 -52 -17 -55 -20 -58 -52 -3 -33 6 -44 152
-190 86 -85 155 -158 156 -161 0 -3 -22 -9 -49 -12 -65 -8 -111 -32 -111 -58
0 -11 15 -44 34 -73 l34 -54 -24 -10 c-35 -17 -80 -85 -114 -176 -17 -44 -36
-93 -42 -108 -12 -32 -33 -36 -60 -11 -10 9 -19 14 -21 12 -7 -9 -67 -171 -67
-180 0 -5 16 -9 35 -9 24 0 35 -5 35 -15 0 -11 -11 -15 -39 -15 -22 0 -44 6
-51 15 -7 8 -23 15 -36 15 -20 0 -24 -5 -24 -32 1 -29 6 -36 43 -53 49 -23 94
-85 127 -173 l22 -57 -69 -60 c-37 -33 -88 -79 -113 -102 l-45 -42 18 -32 c13
-24 15 -35 6 -45 -10 -12 3 -14 75 -14 79 0 86 -2 86 -20 0 -13 -9 -22 -27
-26 -90 -19 -123 -53 -123 -124 0 -34 5 -52 20 -65 20 -18 20 -18 -22 -37 -86
-38 -206 -181 -328 -390 l-62 -108 10 -74 c14 -103 38 -148 90 -172 5 -3 -68
-538 -75 -544 -3 -3 -8 1 -10 8 -6 16 -46 15 -88 -2 -36 -16 -65 -59 -65 -101
0 -30 -14 -32 -33 -5 -14 20 -16 19 -66 -37 -43 -49 -51 -64 -51 -98 0 -23 5
-46 11 -52 7 -7 2 -12 -19 -16 -36 -7 -62 -32 -62 -58 0 -10 15 -43 34 -72
l35 -54 -73 -72 -74 -73 36 -109 36 -108 -19 -73 c-44 -173 -186 -478 -222
-478 -16 0 -16 -5 -2 -67 9 -41 8 -55 -10 -103 -43 -115 -110 -190 -168 -190
-21 0 -23 -5 -23 -47 0 -27 9 -77 20 -113 l20 -64 -51 -141 c-29 -77 -56 -148
-61 -157 -7 -14 -5 -18 12 -18 28 0 26 -12 -22 -102 -47 -88 -102 -158 -124
-158 -8 0 -14 -3 -14 -7 0 -5 25 -109 56 -232 l56 -224 -21 -71 c-31 -109 -52
-249 -81 -555 -15 -160 -14 -196 10 -212 21 -14 20 -17 -50 -246 -83 -275 -85
-291 -40 -546 59 -332 109 -523 156 -592 l26 -38 -31 -236 c-18 -130 -34 -248
-37 -263 -5 -23 -2 -28 14 -28 10 0 27 -9 37 -20 18 -20 31 -20 2522 -20 1376
0 2503 3 2503 8 0 4 5 14 10 22 7 12 13 11 34 -9 l26 -24 105 22 106 23 17
-22 17 -21 34 35 35 36 -37 0 c-33 0 -37 3 -37 25 0 38 25 32 150 -35 l111
-60 148 0 c137 0 149 2 167 21 l19 21 16 -21 17 -21 1918 2 1919 3 47 85 c49
89 57 124 35 154 -13 17 -17 16 -85 -18 l-72 -37 -20 47 c-11 25 -20 57 -20
70 0 29 -6 30 -61 4 -58 -26 -89 -26 -89 0 0 16 7 20 35 20 19 0 35 2 35 5 0
2 -18 28 -39 56 -50 66 -90 145 -98 193 -5 33 -2 41 30 74 l36 37 -13 52 c-13
47 -12 53 6 80 75 110 168 359 232 625 42 170 43 189 16 213 -18 16 -19 20 -6
27 30 17 47 108 53 271 3 86 9 157 12 157 21 -1 154 -40 192 -57 80 -36 89
-50 89 -149 0 -70 -4 -91 -20 -114 -12 -16 -33 -55 -47 -87 -35 -76 -42 -226
-19 -392 l16 -114 -50 -140 c-28 -77 -50 -143 -50 -147 0 -3 32 -21 70 -40 39
-19 70 -37 70 -42 0 -4 -9 -46 -20 -93 -29 -122 -28 -128 15 -123 30 3 36 1
40 -16 2 -12 13 -68 25 -126 53 -264 124 -420 212 -466 21 -11 73 -14 220 -14
l193 1 23 49 c22 47 140 169 240 248 l42 34 0 -39 c0 -21 -9 -75 -20 -121 -11
-46 -20 -87 -20 -92 0 -13 210 -80 250 -80 29 0 44 8 74 39 l38 39 -5 279 c-6
326 -14 371 -93 549 -3 7 15 16 45 24 l51 12 0 633 c0 445 -4 708 -15 887 -14
240 -16 254 -38 272 -28 24 -179 95 -279 131 -43 15 -78 30 -78 32 0 34 56 63
121 63 49 0 52 24 8 66 -17 16 -59 88 -95 160 -78 159 -175 309 -278 432 -81
96 -196 205 -237 225 -48 24 -89 145 -113 328 l-13 102 144 434 145 434 -21
23 c-22 23 -22 25 -6 92 32 139 76 259 155 415 l49 97 -36 71 -36 72 37 38
c20 20 36 44 36 52 0 8 -17 32 -38 52 l-38 37 8 97 c15 182 74 349 168 471 23
30 40 63 40 78 0 14 -38 89 -86 169 l-85 143 15 113 c23 161 22 167 -21 211
l-37 38 36 37 36 36 -49 139 c-52 149 -56 163 -37 152 18 -11 5 16 -67 137
l-65 110 36 152 c39 167 40 185 3 337 -39 158 -106 262 -180 277 l-29 6 0 76
c0 69 4 81 35 131 l34 55 -37 38 -36 37 -96 0 -96 0 -34 70 c-36 75 -50 83
-86 49 l-22 -20 -17 48 c-92 249 -162 390 -227 456 -40 40 -53 47 -87 47 -31
0 -41 -4 -46 -20 -4 -14 -15 -20 -34 -20 -26 0 -29 5 -40 55 -9 38 -20 60 -36
71 -17 11 -48 84 -131 313 l-108 298 -116 37 c-210 67 -386 166 -476 269 -51
59 -93 151 -100 222 -5 54 -2 69 30 143 20 46 36 92 36 103 0 25 6 25 151 -16
68 -19 136 -35 150 -35 14 0 87 34 161 75 115 64 142 75 182 75 182 0 379 69
486 169 43 40 50 53 50 84 0 32 -3 37 -22 37 -13 0 -63 -27 -113 -60 -49 -33
-98 -60 -107 -60 -9 0 -26 12 -37 26 -20 25 -22 26 -46 10 -23 -15 -29 -29
-37 -81 -7 -42 -41 -30 -99 35 l-56 62 -59 -17 c-67 -19 -161 -68 -250 -132
-63 -44 -94 -54 -94 -29 0 26 -48 72 -88 84 -59 18 -132 15 -155 -5 -18 -17
-19 -17 -32 0 -8 11 -26 17 -53 17 -48 0 -72 -26 -72 -77 l0 -33 -128 0 -128
0 -34 -35 c-38 -39 -72 -45 -93 -15 -14 20 -18 18 -125 -55 -61 -41 -118 -75
-128 -75 -10 0 -25 7 -35 16 -17 15 -20 12 -54 -55 -19 -39 -38 -71 -42 -71
-4 0 -37 10 -75 22 -85 27 -90 48 -12 48 51 0 55 2 52 22 -2 16 -20 28 -72 49
-91 37 -140 77 -144 117 -3 26 7 44 52 100 54 67 56 71 56 131 l0 61 -258 0
-258 0 -72 -73 c-39 -40 -72 -79 -72 -88 0 -27 -11 -29 -51 -9 -47 25 -58 25
-139 0 l-65 -20 -33 36 c-39 41 -34 42 -173 -27 l-77 -38 -7 47 c-9 59 -26 93
-65 125 -49 41 -89 47 -335 46 l-230 0 -50 -33z m465 -148 l0 -32 -30 29 c-16
16 -30 30 -30 32 0 2 14 3 30 3 27 0 30 -3 30 -32z m1139 -964 c472 -68 946
-306 1445 -723 126 -106 272 -296 370 -483 61 -115 92 -209 104 -310 8 -66 8
-68 -14 -68 -22 0 -21 -5 37 -171 50 -145 59 -181 59 -240 l0 -70 -77 55
c-161 116 -451 306 -518 340 -72 37 -140 47 -162 25 -9 -9 -51 -9 -167 1
l-156 13 -24 -22 c-13 -12 -36 -45 -51 -72 -24 -45 -26 -56 -20 -112 19 -168
87 -386 189 -608 26 -56 27 -56 78 -62 71 -9 179 -63 268 -134 107 -87 162
-146 158 -171 -3 -19 -22 -11 -208 88 -113 61 -209 108 -215 106 -16 -5 -5
-77 20 -134 47 -103 175 -211 348 -292 108 -51 127 -52 127 -5 0 33 2 35 35
35 33 0 35 -2 35 -35 0 -33 -2 -35 -32 -35 l-32 0 34 -35 c37 -38 55 -43 86
-20 20 14 23 10 79 -111 l58 -124 -41 -160 c-23 -87 -42 -170 -42 -183 0 -13
9 -32 21 -43 18 -16 20 -27 16 -66 -12 -97 -72 -185 -155 -227 -63 -31 -110 2
-126 92 -5 28 -12 37 -26 37 -16 0 -20 -7 -20 -35 0 -34 -1 -35 -40 -35 -38 0
-40 2 -50 43 -60 231 -143 484 -190 576 -16 32 -42 69 -58 83 l-30 25 19 84
c25 114 24 130 -12 201 -17 33 -42 95 -55 137 -54 165 -152 252 -303 267 -55
6 -61 5 -85 -19 -17 -17 -26 -37 -26 -57 0 -16 -2 -30 -5 -30 -3 0 -68 47
-145 105 l-139 105 -84 0 c-121 0 -253 -38 -462 -135 l-80 -37 60 -55 c80 -73
197 -151 240 -159 55 -10 49 -51 -25 -169 l-60 -95 53 -23 c28 -13 186 -79
350 -147 l298 -124 -3 -36 -3 -35 -72 -3 c-40 -2 -73 -7 -73 -13 0 -5 7 -21
16 -34 l16 -25 -51 0 -51 0 0 38 c0 21 6 47 14 58 14 19 12 21 -42 32 -66 14
-202 77 -336 156 -52 31 -98 56 -102 56 -4 0 -19 -10 -32 -22 l-24 -23 -18 23
c-17 21 -25 22 -137 21 -65 0 -217 -11 -338 -23 -121 -12 -222 -21 -224 -19
-3 2 10 18 28 37 32 33 32 34 17 64 -22 43 -95 103 -168 139 -105 51 -101 51
-143 -11 -71 -107 -169 -186 -231 -186 -26 0 -26 0 -9 -27 10 -14 26 -41 37
-60 l20 -33 -35 0 c-33 0 -36 3 -39 31 -3 31 -3 31 -50 -34 -26 -37 -44 -68
-40 -71 4 -2 26 -9 50 -15 l42 -12 0 -73 0 -74 -50 -21 -50 -21 37 -74 36 -74
109 37 c80 28 108 34 108 24 0 -58 123 -137 476 -303 617 -291 974 -488 974
-538 0 -16 -10 -17 -113 -10 -254 16 -464 95 -648 244 -75 61 -82 64 -132 64
-30 0 -62 -6 -72 -14 -19 -14 -18 -17 17 -105 32 -80 34 -91 19 -91 -10 0 -26
9 -36 20 -14 15 -31 20 -72 20 l-53 0 0 -75 c0 -63 -3 -75 -17 -75 -9 0 -25 7
-35 17 -17 15 -18 14 -18 -20 0 -36 1 -37 35 -37 24 0 35 -5 35 -15 0 -10 -11
-15 -35 -15 -33 0 -35 -2 -35 -35 0 -25 4 -35 15 -35 29 0 159 -72 178 -99 11
-14 58 -63 104 -108 122 -120 242 -177 416 -198 49 -7 56 -17 32 -49 -23 -30
-18 -57 17 -93 l32 -33 113 0 c112 0 113 0 113 24 0 39 36 76 76 76 29 0 34
-3 34 -24 0 -55 -120 -222 -216 -302 -44 -35 -47 -36 -117 -32 -58 3 -88 11
-151 41 -104 49 -217 118 -365 222 l-121 85 -29 -32 -28 -32 -50 37 c-56 41
-106 48 -146 22 -22 -14 -25 -13 -57 20 -48 49 -99 49 -150 1 l-35 -34 -179
71 -178 72 -27 60 c-55 120 -127 175 -242 183 -47 3 -74 1 -84 -8 -10 -9 -15
-9 -15 -1 0 15 -43 14 -58 -1 -7 -7 -12 -8 -12 -2 0 14 20 125 26 147 5 15 -2
17 -48 17 -30 0 -59 -5 -66 -12 -20 -20 -23 -3 -6 38 22 51 18 119 -9 169 -18
32 -31 43 -69 55 -54 17 -57 25 -29 86 42 93 132 158 229 166 l43 3 36 -87
c36 -88 37 -88 73 -88 34 0 37 3 58 52 l22 52 -96 97 -95 96 11 64 c21 121 20
119 46 119 16 0 24 -6 24 -17 0 -10 5 -35 11 -55 11 -44 39 -50 76 -19 18 15
21 24 14 48 -25 88 -80 143 -142 143 -34 0 -39 3 -35 18 3 9 26 99 51 199 47
192 55 262 30 283 -13 11 -13 15 0 33 14 20 12 24 -21 58 l-35 36 61 152 c33
84 58 156 55 162 -4 5 -30 9 -59 9 -52 0 -54 -1 -60 -32 -9 -43 -33 -68 -68
-68 -15 0 -28 3 -28 6 0 3 16 100 35 216 l36 211 -28 39 c-34 49 -90 98 -148
129 -49 26 -53 35 -30 65 18 24 19 54 1 80 -13 18 -3 38 128 247 137 219 143
228 194 253 97 48 186 173 332 469 85 172 103 216 125 314 44 200 90 331 115
331 6 0 10 17 10 38 0 54 27 150 57 201 117 201 396 314 842 340 193 12 196
12 310 -5z m-4391 -771 c2 -9 -9 -13 -37 -13 -39 0 -50 8 -34 24 11 11 66 2
71 -11z m5803 -1394 c90 -29 237 -102 283 -140 21 -18 47 -51 57 -73 22 -48
25 -116 6 -116 -7 0 -116 38 -242 85 -127 47 -236 88 -242 90 -7 2 -13 11 -13
20 0 20 68 20 94 0 32 -24 46 -18 46 20 0 33 -2 35 -35 35 l-35 0 0 50 c0 28
4 50 8 50 5 0 38 -9 73 -21z m-5352 -757 l22 -17 -20 -46 c-21 -46 -35 -104
-46 -191 -5 -39 -10 -48 -26 -48 -18 0 -19 8 -19 144 0 138 1 144 23 159 29
21 40 21 66 -1z m-2099 -97 c0 -24 -5 -35 -15 -35 -10 0 -15 11 -15 35 0 24 5
35 15 35 10 0 15 -11 15 -35z m4072 -15 c-15 -46 -18 -50 -48 -50 -18 0 -36 5
-40 11 -8 14 65 89 87 89 16 0 16 -3 1 -50z m-2114 -200 c100 -194 107 -201
157 -157 20 17 28 35 32 70 l6 47 75 0 75 0 -6 -69 c-6 -77 -35 -144 -69 -162
-34 -18 -116 -13 -181 11 -148 55 -231 179 -252 373 l-7 67 38 0 39 0 93 -180z
m5087 -180 l29 -30 -32 0 c-29 0 -32 3 -32 30 0 17 1 30 3 30 2 0 16 -13 32
-30z m-1349 -81 c568 -155 893 -369 912 -603 4 -57 -17 -124 -84 -261 -37 -76
-90 -145 -112 -145 -6 0 -14 17 -17 38 -23 161 -55 238 -135 325 -120 132
-322 225 -586 273 -82 14 -98 14 -163 1 -65 -13 -71 -13 -71 2 0 9 -7 25 -15
35 -15 20 -16 19 -120 -4 -58 -12 -108 -20 -112 -16 -10 10 15 123 40 175 44
95 235 239 297 224 14 -3 88 -23 166 -44z m1467 -192 c22 -116 37 -221 37
-265 0 -73 0 -73 -26 -70 -23 3 -34 21 -96 158 l-70 155 17 95 c23 123 21 120
64 120 l36 0 38 -193z m-2051 -54 c36 -35 35 -45 -4 -41 -29 3 -33 7 -36 36
-4 39 3 40 40 5z m2298 -308 c0 -24 -3 -25 -55 -25 -52 0 -55 1 -55 25 0 24 3
25 55 25 52 0 55 -1 55 -25z m-722 -803 c2 -7 -34 -50 -80 -95 -57 -56 -94
-103 -115 -144 l-30 -61 -73 73 c-40 40 -70 78 -66 83 3 6 19 13 35 17 39 8
111 73 150 134 l31 49 72 -22 c40 -12 74 -28 76 -34z m-518 -750 c0 -5 -13
-21 -30 -37 l-30 -29 0 37 c0 34 2 37 30 37 17 0 30 -4 30 -8z m-2752 -963 c7
-28 12 -54 12 -59 0 -4 -22 -13 -50 -20 -49 -12 -50 -12 -50 -51 0 -38 1 -39
35 -39 28 0 35 -4 35 -20 0 -18 -7 -20 -70 -20 -43 0 -70 4 -70 11 0 19 21
203 26 227 4 20 10 22 62 22 l59 0 11 -51z m4762 -329 c0 -43 -3 -50 -20 -50
-17 0 -20 7 -20 50 0 43 3 50 20 50 17 0 20 -7 20 -50z m-1750 -200 c0 -56 -3
-70 -15 -70 -12 0 -15 14 -15 70 0 56 3 70 15 70 12 0 15 -14 15 -70z m0 -129
c0 -13 -78 -228 -116 -320 -55 -133 -142 -296 -215 -406 -69 -102 -192 -234
-264 -281 -57 -38 -60 -41 -46 -58 10 -12 10 -28 1 -73 -6 -32 -13 -64 -15
-70 -2 -7 -25 10 -52 40 -27 28 -101 109 -166 178 -65 70 -117 135 -117 145 1
14 21 28 73 52 75 34 115 40 135 20 14 -14 108 69 307 274 283 288 412 471
350 494 -33 13 -12 19 55 16 38 -2 70 -7 70 -11z m-7300 -272 c0 -28 -4 -39
-12 -37 -24 8 -22 78 2 78 5 0 10 -18 10 -41z m2515 1 c0 -18 -6 -35 -12 -37
-9 -3 -13 8 -13 37 0 29 4 40 13 38 6 -3 12 -20 12 -38z m-52 -170 l57 -11 0
-42 c0 -34 -6 -48 -37 -79 l-37 -38 -38 37 c-35 35 -38 41 -38 96 0 51 2 58
18 53 9 -2 43 -10 75 -16z m-2493 -55 c0 -38 -3 -45 -20 -45 -17 0 -20 7 -20
45 0 38 3 45 20 45 17 0 20 -7 20 -45z m8600 0 c0 -44 0 -44 -42 -55 -24 -6
-49 -13 -55 -15 -10 -3 -13 12 -13 55 l0 60 55 0 55 0 0 -45z m-6145 -165 c59
-25 83 -25 111 1 l22 21 11 -74 c20 -123 17 -118 56 -118 l35 0 0 61 c0 57 1
60 23 57 19 -3 24 -13 36 -71 9 -40 11 -71 5 -76 -20 -20 -392 -221 -407 -221
-23 0 -22 3 18 58 46 64 96 172 102 222 l6 40 -37 0 -36 0 0 60 c0 33 2 60 4
60 2 0 25 -9 51 -20z m8155 -15 c0 -19 -1 -35 -3 -35 -2 0 -18 16 -37 35 l-34
35 37 0 c36 0 37 -1 37 -35z m-8240 -190 c0 -28 -4 -35 -20 -35 -16 0 -20 7
-20 35 0 28 4 35 20 35 16 0 20 -7 20 -35z m3898 -122 c2 -9 -9 -13 -37 -13
-39 0 -50 8 -34 24 11 11 66 2 71 -11z m-218 -113 c0 -14 -19 -29 -71 -55 -99
-50 -113 -40 -33 23 71 55 104 66 104 32z m4120 -56 c0 -57 -50 -82 -94 -49
-19 15 -19 16 14 50 19 20 44 35 57 35 20 0 23 -5 23 -36z m-2000 -84 c0 -16
-7 -20 -35 -20 -28 0 -35 4 -35 20 0 16 7 20 35 20 28 0 35 -4 35 -20z m-8330
-91 c0 -28 -4 -39 -12 -37 -24 8 -22 78 2 78 5 0 10 -18 10 -41z m10700 -144
c0 -31 -3 -35 -25 -35 -22 0 -25 4 -25 35 0 31 3 35 25 35 22 0 25 -4 25 -35z
m-77 -877 l146 -263 -29 -8 c-16 -4 -32 -12 -35 -17 -3 -5 4 -37 16 -71 l23
-62 -25 -46 c-31 -58 -265 -301 -290 -301 -22 0 -27 38 -8 57 29 29 -83 153
-138 153 -22 0 -22 1 14 74 l37 75 -37 240 -37 240 38 96 37 95 71 0 72 0 145
-262z m-7265 35 c-2 -21 -7 -38 -13 -38 -5 0 -11 17 -13 38 -3 29 0 37 13 37
13 0 16 -8 13 -37z m3991 -437 l34 -35 -35 -14 c-69 -29 -78 -30 -78 -9 0 11
-7 25 -15 32 -8 7 -15 23 -15 36 0 21 5 24 38 24 30 0 45 -7 71 -34z m-2031
-282 c36 -10 62 -22 62 -30 0 -12 -116 -54 -149 -54 -7 0 -11 21 -11 56 0 48
2 55 18 50 9 -2 45 -12 80 -22z m5042 -64 c0 -38 -4 -50 -15 -50 -11 0 -15 12
-15 50 0 38 4 50 15 50 11 0 15 -12 15 -50z"/>
<path d="M8280 9696 c-149 -32 -313 -104 -478 -212 l-98 -64 -33 -80 c-18 -45
-43 -88 -58 -99 l-25 -20 33 -46 c18 -25 35 -45 37 -45 3 0 95 55 205 122
l200 121 188 -7 c267 -9 344 -27 375 -88 30 -58 -2 -166 -61 -204 -37 -24 -92
-15 -230 42 -112 46 -126 49 -205 48 -89 0 -203 -27 -356 -84 -63 -24 -76 -26
-91 -14 -24 18 -136 19 -131 2 3 -7 21 -14 41 -16 29 -3 37 -7 37 -23 0 -28
-66 -26 -97 3 l-23 21 0 -22 c0 -39 19 -60 80 -91 66 -34 159 -70 178 -70 7 0
50 25 95 55 l83 56 160 -71 c87 -39 203 -96 256 -126 93 -52 177 -118 166
-130 -3 -3 -152 54 -332 126 -179 71 -331 130 -336 130 -17 0 -11 -58 11 -105
68 -145 309 -267 702 -355 87 -19 105 -20 170 -10 178 29 307 72 328 111 11
21 49 25 67 7 9 -9 21 -3 52 27 53 51 54 88 5 135 -19 19 -35 38 -35 43 0 5
47 62 105 127 l105 117 0 75 c0 83 -10 101 -66 112 -29 7 -32 11 -38 61 -22
187 -157 322 -391 390 -173 50 -474 76 -595 51z"/>
<path d="M8000 7974 c-503 -145 -453 -134 -448 -90 4 35 2 37 -21 34 -15 -2
-31 -14 -41 -30 -13 -25 -13 -30 3 -57 26 -44 22 -61 -13 -61 -31 0 -70 -30
-70 -54 0 -9 26 -22 69 -35 86 -26 99 -26 128 1 l23 21 0 -26 c0 -14 5 -29 10
-32 6 -3 10 -10 10 -14 0 -5 -54 -56 -120 -114 l-120 -106 71 -21 c61 -18 73
-19 87 -8 111 93 149 123 222 175 117 84 310 204 528 330 121 70 182 111 182
122 0 24 -62 81 -85 80 -11 -1 -198 -52 -415 -115z"/>
<path d="M7220 7645 c0 -10 11 -15 35 -15 24 0 35 5 35 15 0 10 -11 15 -35 15
-24 0 -35 -5 -35 -15z"/>
<path d="M7181 7476 c-18 -19 -32 -39 -29 -46 2 -6 18 5 37 24 18 19 32 39 29
46 -2 6 -18 -5 -37 -24z"/>
<path d="M7251 6456 l-103 -103 22 -60 22 -60 -36 -50 c-20 -28 -36 -60 -36
-72 0 -19 6 -21 50 -21 45 0 50 -2 50 -22 0 -44 21 -98 44 -113 57 -38 105 29
131 184 l17 94 -37 79 -38 79 37 38 36 37 -20 47 c-12 26 -24 47 -28 47 -4 0
-54 -47 -111 -104z"/>
<path d="M6930 6025 c0 -33 2 -35 35 -35 33 0 35 2 35 35 0 33 -2 35 -35 35
-33 0 -35 -2 -35 -35z"/>
<path d="M7120 5750 c0 -38 4 -50 15 -50 11 0 15 12 15 50 0 38 -4 50 -15 50
-11 0 -15 -12 -15 -50z"/>
<path d="M2630 7750 l0 -50 50 0 c42 0 50 3 50 18 0 23 -60 82 -83 82 -14 0
-17 -10 -17 -50z"/>
<path d="M105 810 c16 -16 32 -30 37 -30 4 0 8 14 8 30 0 28 -3 30 -37 30
l-37 0 29 -30z"/>
<path d="M940 820 c0 -17 7 -20 40 -20 33 0 40 3 40 20 0 17 -7 20 -40 20 -33
0 -40 -3 -40 -20z"/>
<path d="M976 731 c-54 -55 -47 -75 27 -79 l57 -3 0 39 c0 27 -7 45 -23 60
l-23 22 -38 -39z"/>
<path d="M0 690 c0 -39 1 -40 35 -40 33 0 35 -2 35 -35 0 -33 -2 -35 -35 -35
-31 0 -35 -3 -31 -22 58 -270 120 -464 167 -521 27 -33 36 -37 75 -37 42 0 44
1 44 30 0 44 -27 101 -50 107 -23 6 -24 8 -45 168 -20 142 -51 294 -73 350
-23 60 -40 75 -84 75 -38 0 -38 0 -38 -40z"/>
<path d="M1036 565 c-18 -14 -18 -17 3 -157 26 -175 26 -186 1 -206 -20 -16
-20 -19 -6 -58 23 -67 55 -123 75 -134 79 -42 115 19 171 287 l29 137 -47 68
c-26 37 -50 68 -53 68 -3 0 -4 -13 -1 -30 4 -27 1 -30 -22 -30 -23 0 -26 4
-26 35 l0 35 -52 0 c-30 0 -61 -7 -72 -15z m124 -120 c0 -33 -2 -35 -35 -35
-33 0 -35 2 -35 35 0 33 2 35 35 35 33 0 35 -2 35 -35z"/>
<path d="M760 515 c19 -19 35 -35 37 -35 2 0 3 16 3 35 0 34 -1 35 -37 35
l-37 0 34 -35z"/>
<path d="M700 404 c0 -3 11 -20 23 -37 32 -43 64 -122 72 -177 l6 -45 -51 -15
-52 -15 49 -57 c43 -51 52 -57 89 -57 33 -1 46 5 74 34 l35 36 -24 67 c-38
105 -86 204 -116 240 -22 26 -34 32 -66 32 -21 0 -39 -3 -39 -6z"/>
<path d="M11402 168 c-23 -23 -23 -23 -37 -4 -8 11 -16 18 -18 15 -2 -2 -13
-43 -24 -91 l-20 -88 36 0 c25 0 55 11 91 35 72 45 90 45 90 0 0 -33 2 -35 35
-35 33 0 34 1 23 25 -8 19 -8 35 0 64 7 21 12 52 12 70 l0 31 -83 0 c-72 0
-85 -3 -105 -22z"/>
<path d="M512 147 l-32 -33 38 -37 c44 -43 67 -48 59 -14 -3 12 -9 43 -12 70
-4 26 -10 47 -14 47 -4 0 -21 -15 -39 -33z"/>
</g>
</svg>
