<?xml version="1.0" standalone="no"?>
<!DOCTYPE svg PUBLIC "-//W3C//DTD SVG 20010904//EN"
 "http://www.w3.org/TR/2001/REC-SVG-20010904/DTD/svg10.dtd">
<svg version="1.0" xmlns="http://www.w3.org/2000/svg"
 width="1280.000000pt" height="1135.000000pt" viewBox="0 0 1280.000000 1135.000000"
 preserveAspectRatio="xMidYMid meet">
<g transform="translate(0.000000,1135.000000) scale(0.100000,-0.100000)"
fill="#000000" stroke="none">
<path d="M2172 11190 c-279 -361 -361 -483 -453 -675 -95 -198 -159 -380 -210
-590 -41 -175 -38 -260 15 -394 l38 -93 -73 -119 c-40 -66 -76 -122 -80 -125
-11 -6 -99 39 -181 92 -80 53 -151 129 -220 235 -28 44 -53 77 -55 75 -8 -8
51 -138 87 -194 69 -108 181 -201 298 -247 28 -11 42 -23 42 -35 0 -10 -19
-51 -43 -92 -38 -64 -48 -73 -75 -76 -28 -3 -40 5 -88 55 -66 68 -67 50 -2
-62 72 -124 71 -120 66 -208 -6 -107 -29 -157 -72 -157 -44 0 -131 54 -166
101 -35 49 -63 121 -97 252 -15 53 -30 97 -35 97 -14 0 -9 -142 7 -203 22 -84
52 -137 159 -282 53 -71 115 -168 138 -214 l43 -83 -24 -19 c-32 -26 -71 -24
-119 9 -39 26 -106 97 -152 163 -37 51 -34 25 8 -65 53 -112 122 -186 217
-231 38 -18 85 -36 103 -40 92 -19 -34 -52 -206 -54 -118 -1 -217 17 -335 60
-136 50 -192 86 -274 173 -82 88 -78 91 -47 -36 32 -134 122 -243 292 -355 91
-59 114 -83 222 -235 l33 -48 -50 -53 c-73 -77 -96 -144 -96 -277 0 -58 6
-125 12 -150 l11 -45 -43 -37 c-84 -75 -298 -165 -530 -224 -56 -14 -104 -28
-107 -31 -8 -9 127 7 238 28 193 37 426 129 556 219 62 42 80 40 73 -7 -20
-123 -141 -274 -311 -388 -81 -54 -94 -59 -140 -58 -28 0 -76 10 -106 22 l-55
21 69 -65 69 -64 -26 -38 c-29 -41 -93 -93 -170 -138 -26 -15 -46 -29 -44 -31
6 -6 145 53 196 83 25 14 64 44 88 66 l42 39 63 -7 c114 -13 105 8 105 -237 0
-117 8 -287 16 -378 9 -91 18 -226 22 -300 16 -342 73 -567 193 -764 23 -37
42 -73 42 -78 0 -18 -86 -1 -142 28 -29 15 -72 40 -96 56 -24 17 -45 28 -48
26 -10 -11 62 -90 107 -118 27 -17 48 -34 45 -39 -9 -14 -77 -19 -140 -9 -33
5 -100 25 -149 44 -50 19 -95 33 -100 31 -12 -4 73 -67 129 -95 72 -37 184
-62 303 -69 113 -6 113 -6 132 -37 38 -61 36 -75 -13 -117 -25 -21 -51 -52
-58 -69 -25 -61 8 -164 88 -273 22 -31 31 -52 25 -58 -13 -13 -190 33 -270 70
-34 16 -83 44 -109 62 -45 31 -46 31 -39 8 11 -37 51 -91 90 -122 19 -15 35
-32 35 -37 0 -13 -61 -13 -95 0 -39 15 -119 94 -172 172 -54 79 -66 77 -30 -5
70 -157 218 -332 396 -467 l33 -26 -11 -89 c-7 -50 -16 -94 -21 -99 -11 -11
-131 28 -181 60 -53 33 -112 95 -166 174 -43 63 -49 53 -12 -21 51 -102 145
-187 296 -268 81 -43 89 -50 127 -115 57 -96 173 -216 270 -280 199 -131 431
-189 811 -202 99 -4 186 -11 193 -17 7 -6 12 -34 12 -71 0 -248 61 -533 160
-744 22 -46 37 -89 34 -94 -23 -36 -145 -49 -228 -24 -65 20 -45 -3 35 -38 51
-24 70 -27 127 -23 37 2 76 6 87 8 16 3 34 -18 90 -101 78 -117 111 -144 193
-160 31 -6 73 -14 92 -18 30 -6 40 -16 65 -64 59 -111 89 -128 143 -83 17 14
33 25 37 25 4 0 39 -34 77 -75 95 -102 137 -126 241 -134 70 -7 90 -13 141
-44 33 -20 72 -37 87 -37 15 0 54 18 87 40 69 47 117 52 171 19 29 -17 32 -22
20 -34 -8 -8 -99 -64 -204 -126 -207 -121 -282 -172 -391 -261 -39 -32 -77
-58 -84 -58 -24 0 -335 102 -417 136 -63 27 -92 34 -129 32 -95 -6 -62 -44 98
-112 455 -195 731 -396 894 -651 l38 -60 18 85 c41 189 79 271 146 314 20 14
91 44 157 66 182 63 250 108 309 209 51 88 73 156 116 364 21 106 49 235 61
287 17 72 22 128 22 230 1 166 -16 256 -88 480 -78 242 -104 424 -125 855 -6
121 -13 230 -15 242 -3 12 -61 83 -130 159 -152 167 -236 283 -314 434 -68
133 -112 251 -148 400 -24 101 -26 123 -33 550 -5 245 -16 564 -25 710 -26
409 -20 493 69 886 73 325 105 559 106 764 0 197 74 506 173 731 30 66 75 122
93 115 7 -3 61 8 121 24 105 29 153 36 153 24 0 -3 -71 -97 -158 -207 -182
-232 -187 -239 -152 -216 14 8 165 100 337 202 l312 187 6 58 c20 193 46 296
101 402 44 85 150 216 249 308 85 80 251 194 274 190 33 -7 45 -77 46 -263 0
-178 -1 -181 -32 -262 -72 -187 -187 -285 -301 -254 -42 11 -142 74 -142 89
-1 4 -12 21 -26 37 l-26 30 5 -75 c16 -234 159 -330 354 -235 85 42 287 246
389 395 83 120 99 126 70 26 -40 -136 -132 -293 -248 -421 -69 -76 -42 -63 58
27 92 85 166 209 261 441 43 106 50 116 122 184 42 40 82 72 89 73 11 0 12
-13 6 -57 -13 -94 -8 -253 10 -323 30 -121 164 -368 255 -470 22 -25 16 -11
-24 53 -52 85 -117 236 -157 362 -20 66 -41 278 -36 365 3 52 4 55 37 64 28 8
36 7 47 -9 8 -10 14 -37 14 -60 0 -59 34 -183 68 -251 45 -89 105 -157 200
-229 159 -120 300 -180 502 -216 208 -37 367 -100 530 -208 47 -32 92 -61 100
-66 39 -23 -108 130 -215 224 -66 58 -120 110 -120 116 0 26 147 -30 273 -104
114 -66 269 -188 302 -236 35 -51 70 -128 70 -155 0 -27 -18 -30 -183 -30
-243 0 -307 -21 -497 -159 -216 -157 -358 -316 -450 -504 -70 -143 -113 -267
-135 -392 -23 -122 -32 -614 -16 -825 13 -176 36 -332 53 -363 11 -21 12 -20
40 13 41 49 128 226 128 261 0 16 -17 64 -39 107 -64 126 -83 201 -83 322 0
61 7 136 16 180 10 41 25 118 36 171 22 114 41 164 68 178 12 6 48 11 82 11
73 0 124 23 166 75 16 20 39 47 52 62 l23 25 150 -4 c137 -3 149 -2 128 12
-111 72 -114 75 -117 107 -3 28 3 37 48 72 29 23 56 41 61 41 4 0 26 -26 48
-58 45 -67 100 -118 147 -138 51 -21 156 -18 208 7 88 41 156 117 156 173 0
38 9 54 46 77 30 18 39 20 64 9 17 -7 39 -28 51 -46 17 -28 20 -43 14 -85 -7
-49 -6 -50 17 -45 93 22 113 24 124 15 15 -12 24 -88 13 -109 -10 -21 -152
-122 -246 -176 -69 -39 -74 -44 -47 -44 45 0 214 44 261 69 22 11 80 54 129
96 94 81 224 153 293 162 48 7 192 -22 243 -48 45 -23 118 -93 118 -113 0 -15
-21 -26 -51 -26 -11 0 -31 -12 -46 -26 -30 -30 -28 -52 18 -164 28 -66 31 -82
26 -140 -11 -119 -57 -225 -222 -505 -202 -342 -260 -482 -335 -810 -54 -239
-90 -349 -162 -497 -170 -351 -401 -578 -648 -639 -76 -18 -438 -19 -500 0
-25 7 -99 36 -165 64 -117 51 -123 52 -215 52 -93 -1 -98 -2 -215 -54 -185
-82 -220 -80 -450 23 -131 59 -226 50 -450 -39 -142 -57 -231 -74 -385 -75
l-115 -1 55 -20 c76 -27 204 -57 281 -65 53 -5 87 -1 199 27 186 46 249 44
440 -11 186 -54 297 -60 607 -35 302 25 757 11 770 -22 13 -34 -27 -81 -148
-172 -204 -154 -323 -200 -665 -260 -272 -48 -308 -48 -624 -4 -144 20 -205
24 -274 19 -94 -7 -226 -32 -238 -44 -11 -11 345 -176 477 -222 354 -122 614
-165 756 -125 30 9 131 54 224 101 198 100 261 115 470 118 110 1 136 -2 168
-18 46 -23 70 -57 69 -96 -2 -70 -102 -209 -268 -374 -164 -163 -312 -251
-561 -335 -173 -58 -250 -67 -470 -51 -209 14 -241 12 -453 -37 -243 -56 -367
-48 -535 32 -175 84 -276 184 -873 873 -30 34 -56 61 -58 59 -2 -1 18 -70 43
-152 72 -240 108 -300 328 -560 487 -576 698 -791 1045 -1067 413 -328 852
-535 1175 -555 301 -18 654 97 903 295 156 124 344 369 592 772 46 74 90 143
98 153 23 26 91 21 192 -13 159 -53 317 -141 645 -360 171 -114 351 -225 388
-239 12 -5 119 -54 237 -108 273 -127 333 -148 430 -148 71 0 83 4 216 63 312
139 578 285 677 372 26 23 96 97 154 163 382 433 616 628 988 824 66 34 112
63 103 63 -32 0 -259 -70 -361 -112 -208 -85 -365 -180 -667 -408 -96 -72
-209 -148 -250 -168 -72 -35 -79 -37 -185 -37 -138 0 -183 18 -203 80 -8 22
-11 55 -8 72 6 42 -2 41 -37 -2 -35 -44 -60 -44 -103 -1 -53 53 -47 70 60 195
111 129 141 172 195 274 51 97 66 151 86 306 9 71 25 144 37 173 27 64 91 119
214 188 130 73 188 131 247 249 40 79 47 102 47 151 l0 59 58 45 c110 84 225
221 236 281 4 21 14 38 24 41 56 17 88 41 147 111 107 125 135 181 161 328 37
204 27 400 -30 579 -13 42 -20 79 -15 82 12 7 137 -122 212 -218 33 -43 61
-78 64 -78 15 0 -83 150 -180 274 -93 118 -166 230 -267 406 -116 201 -183
302 -250 374 -85 91 -99 130 -62 176 24 30 102 39 136 17 37 -25 110 -150 200
-344 150 -323 215 -445 313 -581 25 -35 47 -61 50 -59 2 3 -7 27 -20 54 -62
121 -297 713 -297 746 0 15 14 17 98 18 154 2 175 12 53 27 -136 16 -181 36
-217 97 -77 132 -107 307 -92 535 11 154 5 372 -10 411 -6 15 -31 50 -56 78
-33 37 -46 61 -50 93 -4 24 -15 115 -26 204 -32 264 -50 322 -173 574 -46 95
-93 176 -121 208 -26 30 -44 58 -40 63 3 5 22 9 43 9 81 0 190 50 390 180 75
48 180 112 233 141 53 29 96 55 94 57 -8 7 -177 -65 -295 -126 -322 -165 -375
-188 -391 -162 -4 7 -13 56 -20 109 -16 130 -63 306 -105 398 -19 42 -64 119
-100 172 -106 157 -125 240 -150 636 -21 338 -33 393 -132 588 -74 146 -163
270 -548 762 -180 231 -330 426 -332 433 -4 9 -758 12 -3723 12 l-3718 0 -16
-25 c-59 -90 -341 -345 -382 -345 -24 0 -11 16 159 199 l158 171 -37 0 c-32 0
-47 -9 -113 -72 -100 -96 -168 -151 -181 -146 -5 1 14 39 43 83 30 44 62 92
71 108 l18 27 -138 -1 -139 0 -123 -159z m1518 141 c0 -18 -166 -174 -262
-246 -107 -81 -221 -146 -371 -212 -108 -48 -145 -52 -82 -10 22 15 144 96
270 180 127 84 275 185 330 225 101 72 115 80 115 63z m600 -91 c-29 -41 -168
-165 -243 -218 -88 -62 -174 -103 -386 -187 -102 -40 -212 -85 -245 -100 -32
-14 -63 -24 -69 -22 -18 6 112 77 283 157 340 159 420 204 574 328 49 40 94
72 99 72 4 0 -1 -13 -13 -30z m120 -7 c-68 -87 -228 -257 -310 -331 -96 -86
-213 -168 -306 -215 -100 -51 -302 -112 -503 -152 -66 -14 -21 13 77 46 225
74 418 162 552 252 111 74 199 149 359 302 78 75 145 135 148 132 3 -3 -5 -19
-17 -34z m375 -235 c-4 -46 -8 -88 -9 -93 -4 -13 13 -217 18 -223 3 -2 38 22
78 53 107 84 267 159 298 140 6 -4 -15 -34 -46 -68 -101 -111 -165 -219 -202
-337 -21 -71 -47 -209 -40 -216 3 -2 21 22 41 55 41 66 141 171 164 171 16 0
16 -1 -38 -80 -96 -143 -164 -334 -188 -523 -5 -43 -15 -84 -21 -92 -31 -38
-87 8 -76 62 3 15 10 123 16 238 5 116 12 255 15 310 l5 100 -40 -45 c-52 -59
-62 -47 -44 59 7 47 12 86 10 88 -1 2 -25 -13 -52 -32 -27 -19 -53 -35 -58
-35 -9 0 -4 64 10 144 4 24 3 37 -2 33 -6 -3 -52 -65 -104 -137 -92 -129 -226
-270 -255 -270 -8 0 -15 2 -15 5 0 3 29 47 65 99 35 51 114 180 175 287 61
106 131 220 155 254 45 63 117 135 136 135 7 0 8 -27 4 -82z m-2505 18 c0 -1
-20 -45 -44 -97 -51 -109 -98 -258 -121 -379 -9 -47 -18 -95 -20 -106 -3 -15
-15 -24 -36 -28 -50 -10 -79 -7 -85 7 -3 8 14 56 37 108 22 52 45 105 50 119
9 24 9 24 -7 5 -8 -11 -45 -68 -80 -127 -36 -60 -74 -112 -84 -118 -23 -12
-60 -13 -60 -1 0 19 117 224 195 341 85 128 216 280 241 280 8 0 14 -2 14 -4z
m2874 -626 c-44 -176 -58 -301 -58 -522 -1 -115 -4 -208 -8 -208 -13 0 -49 54
-86 129 -35 70 -37 81 -36 166 0 104 24 206 79 338 43 101 113 214 125 201 4
-5 -3 -52 -16 -104z m-1256 -362 c-37 -103 -58 -209 -58 -296 0 -37 -3 -98 -7
-135 -14 -151 -55 -10 -50 173 3 128 24 197 89 291 51 75 61 61 26 -33z
m-1467 -94 c88 -52 212 -108 331 -149 167 -58 153 -74 -27 -31 -142 35 -203
59 -281 115 -132 93 -148 138 -23 65z m-187 -92 c120 -72 192 -148 254 -269
29 -56 52 -106 52 -112 0 -24 -21 -8 -76 62 -32 39 -122 138 -201 218 -79 80
-143 149 -143 153 0 12 27 0 114 -52z m-638 33 c3 -8 0 -31 -6 -51 -7 -21 -15
-71 -19 -112 -3 -45 -11 -77 -18 -79 -32 -11 -45 204 -14 241 17 20 50 21 57
1z m420 -62 c89 -40 159 -92 270 -200 113 -111 169 -182 155 -196 -14 -14
-149 62 -245 138 -88 68 -137 117 -209 208 -69 86 -64 93 29 50z m4204 -144
c-11 -124 -56 -333 -80 -380 -19 -34 -30 -10 -30 64 0 90 -12 133 -53 194 -18
26 -36 53 -40 60 -5 7 11 24 40 44 57 39 97 80 130 133 40 62 47 37 33 -115z
m-424 -67 c16 -137 24 -559 11 -605 -12 -43 -31 -27 -39 34 -4 30 -21 99 -39
154 -25 81 -32 123 -36 216 -5 103 -2 128 22 225 44 178 58 174 81 -24z
m-1438 -7 c12 -25 40 -65 62 -89 l41 -44 -158 -159 c-147 -148 -314 -283 -350
-283 -7 0 -24 22 -37 48 -25 50 -86 112 -109 112 -7 0 -21 6 -31 13 -17 13
-16 15 20 36 78 46 137 97 190 166 47 60 75 83 192 157 75 48 142 88 148 88 5
0 20 -20 32 -45z m152 -322 c0 -15 -85 -114 -162 -189 -91 -89 -153 -126 -322
-188 -138 -52 -163 -45 -61 18 44 27 159 108 255 180 96 71 195 142 219 158
43 27 71 35 71 21z m200 -147 c0 -49 -32 -190 -54 -241 -39 -87 -139 -226
-214 -297 -45 -43 -98 -80 -148 -105 -76 -37 -81 -38 -183 -38 -104 0 -108 1
-185 40 -44 22 -82 46 -84 54 -5 15 0 14 113 -9 89 -19 203 -14 270 11 72 27
91 38 174 103 122 98 209 235 265 419 26 84 46 112 46 63z m-290 -105 c0 -34
-152 -173 -239 -219 -101 -53 -268 -105 -235 -73 5 6 59 34 119 64 115 57 218
125 295 195 45 42 60 50 60 33z m1570 -265 c0 -7 -26 -42 -58 -76 -42 -46 -63
-62 -75 -57 -35 13 -18 46 51 97 72 53 82 58 82 36z m1255 -527 c70 -56 123
-105 119 -109 -13 -12 -144 15 -192 39 -50 25 -92 75 -92 107 0 28 16 64 29
64 4 0 66 -45 136 -101z m1688 -34 c73 -8 179 -15 237 -15 95 0 144 -10 129
-24 -15 -15 -136 -29 -244 -29 -94 1 -141 6 -217 26 -177 46 -257 100 -107 71
39 -7 130 -20 202 -29z m-8339 -153 c22 -13 62 -32 90 -42 50 -16 51 -18 54
-60 5 -61 -9 -69 -59 -34 -58 39 -169 152 -169 170 0 16 12 12 84 -34z m10750
-134 c47 -68 122 -166 166 -218 43 -52 80 -98 80 -102 2 -49 -222 158 -332
305 l-58 79 17 29 c10 16 23 29 29 29 7 0 51 -55 98 -122z m-10324 47 c41 0
114 4 163 8 59 6 87 5 87 -2 0 -15 -117 -92 -180 -118 -71 -29 -125 -29 -174
0 -39 25 -100 103 -90 118 3 5 31 6 62 2 31 -5 91 -8 132 -8z m10230 -151 c99
-116 267 -261 398 -343 l52 -33 0 -57 c0 -79 -10 -131 -25 -131 -30 0 -177
111 -265 200 -102 102 -161 190 -209 313 -60 153 -48 165 49 51z m-10160 -338
c0 -8 -9 -36 -20 -62 -11 -26 -25 -81 -31 -123 -18 -129 -60 -184 -141 -184
-33 0 -47 6 -66 29 -22 25 -24 34 -20 104 8 129 55 196 165 236 52 18 113 18
113 0z m8186 -609 c115 -226 238 -349 467 -467 68 -35 86 -53 45 -43 -43 10
-205 90 -264 131 -72 49 -150 130 -202 211 -45 69 -112 222 -112 254 1 22 1
22 16 2 9 -11 31 -51 50 -88z m89 -741 c159 -141 283 -211 465 -261 135 -38
128 -35 108 -46 -23 -13 -203 15 -290 45 -37 13 -89 36 -115 52 -92 53 -311
294 -268 294 3 0 48 -38 100 -84z m-8345 -558 c59 -57 163 -143 231 -192 134
-96 222 -175 245 -218 38 -73 1 -138 -80 -138 -110 1 -288 71 -361 144 -82 83
-136 207 -155 360 -10 81 -7 146 7 146 3 0 54 -46 113 -102z m10821 55 c280
-292 433 -601 456 -922 l6 -89 -71 -36 c-39 -20 -78 -36 -85 -36 -8 0 -19 21
-26 50 -17 65 -28 70 -36 18 -11 -70 -40 -126 -68 -133 -31 -8 -197 11 -210
24 -6 6 1 44 21 103 96 289 80 584 -54 1046 -11 37 18 26 67 -25z m-10747
-578 c92 -57 193 -102 263 -119 31 -7 58 -17 60 -23 5 -15 -81 -80 -117 -88
-60 -13 -163 64 -243 183 -44 65 -56 92 -41 92 4 0 38 -20 78 -45z m472 -167
c4 -7 -2 -18 -17 -27 -13 -8 -43 -34 -66 -58 -24 -24 -49 -43 -56 -43 -7 0
-24 11 -37 25 -23 24 -23 25 -4 46 46 51 161 87 180 57z m56 -279 c44 -11 68
-49 68 -102 0 -51 -17 -60 -109 -56 -76 4 -82 6 -116 39 -51 49 -79 90 -69
100 9 9 110 26 164 29 14 0 42 -4 62 -10z m-373 -83 c17 -20 10 -80 -9 -83
-16 -3 -60 57 -60 82 0 20 53 20 69 1z m11047 -61 c1 -98 -12 -199 -32 -241
-21 -46 -145 -174 -168 -174 -10 0 -17 13 -21 38 -3 20 -10 59 -15 85 -14 66
-15 63 28 89 46 28 112 87 112 100 0 5 -17 8 -37 6 -35 -3 -38 -1 -41 24 -5
41 12 63 80 102 84 48 93 45 94 -29z m-381 -46 c77 -5 144 -14 149 -19 14 -14
-38 -86 -138 -188 -100 -103 -115 -110 -281 -137 -106 -18 -201 -19 -210 -4
-4 6 19 36 52 67 72 69 151 165 198 238 40 62 23 59 230 43z m-1038 -11 c6 -7
13 -26 17 -42 4 -16 26 -47 49 -67 l41 -38 -37 -16 c-48 -20 -63 -19 -96 4
-33 24 -95 136 -87 157 7 18 99 20 113 2z m-9197 -32 c0 -22 -58 -66 -87 -66
-29 0 -83 35 -83 55 0 14 31 20 123 23 35 2 47 -2 47 -12z m-449 -192 c117
-21 160 -44 204 -108 49 -72 45 -89 -25 -99 -82 -12 -152 -1 -198 33 -40 29
-142 156 -142 178 0 17 59 16 161 -4z m10729 -285 c0 -22 -88 -115 -145 -154
-48 -34 -57 -37 -70 -24 -8 8 -16 25 -17 38 -3 20 8 29 77 65 45 22 94 51 110
63 34 25 45 28 45 12z m-350 -199 c11 -6 24 -19 30 -30 23 -44 -67 -81 -114
-47 -25 18 -17 58 14 74 31 15 46 16 70 3z m-10372 -233 c6 -52 -29 -69 -96
-46 -33 11 -64 65 -44 77 5 4 39 5 74 2 60 -5 63 -6 66 -33z m206 4 c37 -5 70
-12 73 -15 18 -17 -64 -46 -132 -46 -29 0 -37 5 -46 27 -13 34 -4 56 18 49 10
-3 49 -10 87 -15z m10156 -101 c0 -16 -127 -116 -190 -149 -53 -28 -60 -30
-74 -16 -21 21 -31 82 -17 99 6 7 33 16 59 20 26 4 76 17 112 30 72 26 110 31
110 16z m-10043 -95 c61 -41 146 -71 229 -80 59 -7 94 -19 84 -29 -11 -10
-169 -26 -268 -26 -88 0 -113 4 -150 21 -49 24 -84 71 -80 109 3 22 9 26 58
31 30 3 60 6 65 7 6 1 33 -14 62 -33z m9709 -20 c20 -49 18 -72 -11 -101 -19
-19 -34 -24 -58 -22 -86 8 -58 158 31 158 17 0 27 -9 38 -35z m-368 -1 c12 -8
31 -32 42 -53 16 -33 17 -41 5 -57 -11 -16 -26 -19 -87 -18 -136 1 -173 47
-90 111 49 37 94 43 130 17z m-8048 -81 c-1 -5 -9 -33 -20 -63 -13 -36 -19
-82 -20 -133 0 -91 -12 -97 -47 -26 -28 56 -29 112 -2 155 29 48 90 93 89 67z
m7360 -182 c35 -17 85 -35 111 -42 44 -12 50 -17 58 -48 27 -102 13 -111 -79
-49 -66 43 -170 141 -170 158 0 16 14 12 80 -19z m568 -63 c5 -7 19 -44 31
-82 15 -50 18 -72 10 -82 -32 -39 -197 -58 -262 -30 -62 26 -163 154 -140 177
5 5 34 4 69 -2 68 -13 172 -6 230 15 49 18 50 18 62 4z m-8058 -70 c0 -9 25
-95 56 -190 61 -192 96 -360 77 -379 -15 -15 -22 -1 -76 161 -54 160 -77 265
-84 380 -4 78 -3 83 11 66 9 -11 16 -28 16 -38z m1280 -1273 c35 -18 37 -33 9
-69 -40 -51 -112 -71 -162 -45 -31 16 -77 61 -77 75 0 6 21 21 48 32 56 25
141 28 182 7z m-734 -147 c15 -24 38 -56 50 -71 13 -16 24 -33 24 -38 0 -22
-28 -5 -77 47 -49 52 -63 81 -46 97 13 14 23 6 49 -35z"/>
<path d="M4716 7231 l-69 -6 51 -33 c86 -56 82 -66 -34 -76 -194 -16 -363 -87
-476 -198 l-73 -71 55 -7 c107 -13 189 -71 239 -167 24 -47 64 -90 69 -75 2 6
-1 20 -7 31 -14 25 -14 58 0 66 5 4 36 -20 67 -54 38 -40 75 -68 112 -84 90
-40 111 -41 33 -2 -75 37 -169 114 -192 159 -11 20 -12 28 -1 41 19 22 39 18
99 -20 30 -19 56 -33 58 -31 2 2 -6 23 -17 47 -11 24 -20 51 -20 60 0 18 145
113 159 105 5 -3 12 -30 15 -60 16 -127 150 -226 304 -226 30 0 69 7 88 16 47
22 110 95 142 162 40 84 38 82 71 71 35 -12 111 -76 111 -92 0 -7 -26 -43 -56
-81 -31 -38 -50 -67 -43 -64 204 78 321 95 406 59 28 -13 63 -35 78 -51 16
-16 32 -27 37 -24 4 3 8 31 8 62 0 170 -233 381 -525 477 -177 57 -476 86
-689 66z m334 -264 c0 -13 5 -28 11 -34 30 -30 -31 -45 -63 -16 -22 20 -23 31
-1 55 23 26 53 23 53 -5z"/>
<path d="M7011 5406 c-18 -22 -24 -76 -13 -121 6 -22 31 -121 56 -219 25 -99
42 -184 38 -188 -5 -5 -48 10 -97 34 -79 38 -98 42 -178 46 l-89 5 6 51 c4 28
9 62 12 76 5 23 3 22 -22 -10 -90 -115 -296 -288 -399 -336 -59 -28 -132 -31
-196 -9 -24 9 -91 46 -149 84 -58 38 -123 74 -145 82 -45 15 -212 16 -260 1
-25 -7 -30 -13 -27 -38 8 -76 111 -214 161 -214 11 0 36 16 56 35 41 42 72 55
126 55 54 0 96 -24 214 -120 107 -88 202 -142 292 -165 74 -19 229 -19 333 1
163 31 392 118 432 165 38 45 32 165 -27 536 -32 198 -51 257 -86 261 -14 2
-31 -4 -38 -12z"/>
<path d="M4140 4430 c1 -367 138 -714 410 -1035 134 -158 305 -266 564 -354
134 -46 146 -48 169 -23 38 41 19 71 -73 117 -30 15 -98 57 -150 94 -52 36
-156 106 -230 155 -160 106 -234 174 -305 281 -98 148 -221 422 -330 735 -20
58 -40 109 -46 115 -5 5 -9 -26 -9 -85z"/>
</g>
</svg>
