<?xml version="1.0" standalone="no"?>
<!DOCTYPE svg PUBLIC "-//W3C//DTD SVG 20010904//EN"
 "http://www.w3.org/TR/2001/REC-SVG-20010904/DTD/svg10.dtd">
<svg version="1.0" xmlns="http://www.w3.org/2000/svg"
 width="1126.000000pt" height="1280.000000pt" viewBox="0 0 1126.000000 1280.000000"
 preserveAspectRatio="xMidYMid meet">
<metadata>
Created by potrace 1.15, written by Peter Selinger 2001-2017
</metadata>
<g transform="translate(0.000000,1280.000000) scale(0.100000,-0.100000)"
fill="#000000" stroke="none">
<path d="M2859 12786 c-319 -46 -680 -184 -1035 -393 -368 -218 -549 -351
-826 -606 -142 -131 -159 -152 -212 -252 -30 -57 -52 -82 -117 -135 -132 -108
-245 -264 -363 -500 -232 -467 -340 -1037 -296 -1555 18 -207 127 -865 166
-1001 53 -186 189 -485 417 -916 85 -161 160 -311 166 -333 6 -22 16 -60 22
-85 8 -34 25 -58 75 -105 53 -52 64 -68 70 -105 5 -34 16 -54 45 -80 27 -26
61 -83 118 -202 72 -148 89 -176 155 -247 52 -55 78 -92 86 -119 6 -25 9 -116
8 -229 -5 -298 23 -393 245 -848 116 -237 162 -323 199 -364 26 -30 96 -122
155 -204 60 -83 147 -204 195 -270 48 -66 135 -177 195 -246 138 -159 158
-187 223 -296 31 -53 79 -115 115 -151 35 -33 66 -72 70 -85 4 -13 38 -55 75
-94 49 -50 81 -96 113 -161 55 -110 85 -137 204 -183 83 -33 94 -40 183 -133
104 -107 135 -129 296 -211 60 -31 132 -71 159 -90 28 -18 100 -67 161 -108
62 -42 135 -83 166 -93 46 -14 58 -23 67 -46 5 -17 23 -36 43 -46 18 -9 45
-29 60 -45 15 -16 37 -29 50 -29 38 0 140 -54 259 -136 74 -51 169 -104 280
-155 206 -96 228 -109 309 -193 67 -70 101 -91 231 -145 81 -34 151 -86 174
-130 9 -18 30 -34 62 -46 61 -23 187 -86 278 -138 142 -81 472 -306 555 -376
124 -106 207 -154 588 -342 215 -106 382 -195 445 -238 138 -93 154 -100 273
-121 77 -14 146 -36 262 -84 86 -35 193 -74 237 -86 90 -24 250 -36 309 -23
35 8 43 16 72 68 105 191 79 394 -87 683 -85 148 -148 237 -259 366 -52 61
-115 135 -139 164 l-44 53 54 122 c29 67 136 295 237 507 101 212 193 404 203
428 l18 42 38 -16 c131 -58 173 -61 207 -12 39 55 5 110 -77 123 -77 13 -97
30 -97 85 0 70 39 92 182 105 81 7 95 11 101 34 9 37 -11 59 -69 78 -75 23
-86 46 -55 111 13 26 91 159 174 297 86 142 181 314 220 400 38 82 89 181 113
218 56 87 128 157 160 157 13 0 149 -32 302 -70 152 -39 329 -82 392 -95 149
-30 198 -50 350 -135 303 -172 389 -191 533 -120 118 58 153 111 151 230 -1
68 -8 94 -74 270 -93 251 -157 394 -292 663 l-110 217 -221 212 c-257 244
-373 343 -512 437 -136 91 -176 113 -310 171 -170 73 -248 135 -276 218 -15
46 -6 72 46 130 37 41 74 65 188 123 239 121 268 149 292 274 8 42 21 86 29
97 13 19 12 23 -14 44 -18 16 -37 51 -56 104 l-28 81 -150 142 c-522 495 -614
706 -781 1782 -86 558 -148 798 -270 1050 -216 444 -574 866 -1009 1184 -77
57 -521 346 -661 431 -441 266 -953 500 -1765 805 -558 210 -854 297 -1150
336 -52 6 -119 22 -148 35 -207 91 -530 150 -862 159 -110 3 -197 0 -261 -9z
m1254 -352 c42 -8 153 -39 246 -69 225 -72 292 -89 495 -125 237 -42 340 -80
433 -160 20 -19 56 -34 102 -44 164 -37 289 -88 659 -265 125 -60 279 -133
343 -163 139 -66 209 -110 283 -177 66 -60 86 -69 234 -106 120 -29 185 -63
287 -150 28 -23 94 -67 147 -99 92 -54 138 -87 338 -241 47 -36 107 -76 133
-89 38 -19 65 -47 129 -133 45 -59 135 -161 200 -226 71 -72 125 -134 136
-160 11 -23 45 -78 78 -122 161 -222 191 -293 274 -648 33 -138 73 -297 90
-352 57 -182 80 -298 100 -498 23 -224 27 -244 70 -417 35 -139 49 -300 32
-364 -11 -38 -10 -39 38 -86 53 -51 83 -105 124 -220 66 -181 132 -271 370
-500 348 -334 355 -342 334 -416 -16 -61 -70 -102 -250 -192 -180 -90 -224
-125 -272 -220 -14 -28 -37 -59 -51 -70 -14 -11 -25 -23 -25 -26 0 -4 12 -24
27 -47 23 -36 25 -42 13 -65 -12 -22 -11 -26 6 -39 12 -7 47 -55 79 -105 57
-87 61 -91 112 -106 39 -11 70 -31 112 -69 32 -30 117 -88 189 -129 295 -169
405 -248 612 -438 197 -182 301 -304 379 -448 22 -41 41 -84 41 -94 0 -11 11
-34 25 -52 30 -39 180 -339 219 -437 36 -90 50 -173 39 -228 -8 -43 -10 -44
-55 -53 -35 -7 -70 -5 -130 7 -97 19 -167 46 -330 128 -221 111 -398 172 -743
258 -257 64 -564 137 -685 162 -433 90 -878 108 -1164 47 l-48 -10 5 -36 c8
-44 40 -79 96 -105 36 -15 80 -22 215 -29 200 -10 223 -15 330 -73 61 -33 104
-48 175 -61 85 -15 98 -21 141 -59 39 -35 64 -47 133 -65 90 -24 153 -54 170
-81 8 -13 -12 -53 -93 -185 -57 -93 -134 -220 -172 -282 -74 -121 -170 -309
-208 -407 -13 -33 -24 -61 -25 -63 -1 -1 -73 9 -161 23 -87 13 -305 43 -484
65 -444 55 -430 53 -825 135 -240 50 -407 75 -500 75 -63 0 -65 -1 -65 -26 0
-37 21 -117 34 -130 15 -16 235 -85 991 -309 364 -108 773 -240 788 -255 12
-11 -64 -190 -203 -482 -67 -139 -160 -332 -206 -428 -46 -96 -87 -189 -90
-207 -12 -60 13 -102 136 -228 76 -79 128 -142 152 -185 19 -36 74 -135 121
-221 47 -85 97 -184 111 -219 30 -72 56 -190 56 -249 0 -35 -3 -41 -26 -47
-44 -11 -220 6 -317 30 -133 34 -250 80 -587 231 -490 220 -521 237 -990 545
-321 211 -410 266 -583 360 -61 33 -114 71 -140 99 -30 33 -74 62 -153 102
-133 67 -238 129 -434 257 -309 203 -456 295 -548 345 -52 29 -126 79 -163
112 -44 40 -111 83 -200 130 -182 96 -472 270 -670 402 -198 133 -448 318
-455 338 -13 33 21 158 83 310 79 192 88 251 53 333 -12 28 -28 57 -36 63 -21
18 -80 -28 -143 -111 -29 -38 -69 -79 -87 -91 -51 -31 -125 -29 -198 4 -95 44
-180 140 -347 392 -112 168 -171 246 -251 331 -67 71 -122 142 -153 195 -57
97 -111 174 -243 349 -118 154 -215 301 -246 372 -107 242 -156 513 -136 746
38 435 256 712 628 799 104 24 333 24 452 -1 254 -52 516 -176 761 -361 l97
-72 211 13 c122 7 234 19 264 28 224 65 237 265 44 661 -131 268 -276 464
-570 771 -104 108 -123 124 -174 140 -57 19 -65 27 -82 75 -6 16 -69 77 -148
145 -76 65 -172 149 -213 188 -45 42 -111 91 -164 120 -168 93 -259 178 -460
426 -60 74 -156 183 -212 241 -92 95 -108 117 -157 220 -34 70 -81 195 -121
324 l-66 210 27 23 c25 23 26 24 10 57 -26 54 -40 159 -34 253 6 103 19 151
52 191 19 21 25 41 25 74 0 56 24 187 51 275 48 157 112 274 314 581 108 163
131 192 179 224 30 20 124 94 208 164 199 166 242 197 305 217 58 19 66 26 82
78 11 32 20 40 64 56 29 11 67 23 86 27 57 12 95 32 152 78 30 24 68 51 84 59
68 34 250 70 420 82 95 7 380 -6 458 -20z m3842 -9539 c163 -23 605 -122 605
-135 0 -21 -51 -78 -83 -94 -52 -25 -94 -14 -287 79 -132 63 -172 78 -265 95
-60 12 -146 28 -190 36 -44 9 -84 20 -89 25 -15 14 196 11 309 -6z"/>
<path d="M7735 7030 c-114 -12 -248 -45 -335 -83 -41 -18 -154 -84 -250 -147
-246 -161 -706 -387 -937 -462 -40 -12 -73 -28 -73 -35 0 -60 69 -103 168
-105 56 -1 85 6 177 41 172 65 401 183 539 276 293 197 631 318 846 301 105
-8 163 -27 335 -111 151 -73 220 -98 308 -110 45 -6 48 -5 58 22 30 77 -20
231 -93 283 -56 41 -176 85 -296 109 -115 24 -327 34 -447 21z"/>
<path d="M2305 6610 c-122 -18 -233 -67 -328 -145 -95 -77 -75 -111 58 -100
82 7 85 6 85 -14 0 -11 -27 -80 -61 -152 -69 -148 -82 -214 -55 -267 9 -17 29
-38 45 -46 35 -19 26 -28 159 169 117 175 158 224 217 265 100 69 208 41 293
-76 26 -35 75 -117 110 -183 l63 -120 -28 -6 c-182 -35 -281 -82 -376 -176
-73 -73 -123 -164 -152 -274 -24 -92 -37 -250 -30 -348 l7 -87 77 -121 c154
-245 289 -339 486 -339 l72 0 57 79 c80 111 99 172 94 287 -4 79 -11 104 -53
205 -26 63 -57 148 -68 189 -17 66 -18 84 -8 147 6 40 33 131 61 203 44 114
50 138 50 205 0 164 -70 352 -186 497 -121 153 -370 241 -589 208z m528 -917
c-4 -76 -10 -99 -43 -168 -36 -74 -38 -84 -30 -132 5 -29 39 -123 76 -210 59
-138 68 -168 72 -235 2 -42 1 -93 -2 -112 -6 -33 -10 -36 -42 -36 -134 0 -309
187 -370 396 -21 72 -21 196 1 277 41 157 145 272 266 296 82 16 77 21 72 -76z"/>
<path d="M8177 6552 c-6 -9 -23 -11 -55 -7 l-47 6 -38 -68 c-50 -91 -126 -175
-218 -243 -168 -124 -431 -223 -639 -239 -118 -9 -162 -26 -185 -71 -23 -45
-19 -66 20 -90 49 -30 91 -41 165 -41 91 0 155 20 353 108 140 62 182 77 224
77 91 2 132 -45 188 -213 59 -178 107 -232 220 -248 44 -6 45 -5 61 32 21 50
13 78 -52 175 -115 174 -122 294 -35 547 46 134 52 159 49 220 -2 40 -6 63
-11 55z"/>
<path d="M8990 5199 c-31 -5 -61 -17 -67 -26 -19 -25 -17 -123 2 -123 8 0 86
-23 172 -51 99 -32 184 -53 228 -56 68 -6 74 -8 175 -80 116 -83 170 -112 245
-136 90 -28 93 -28 108 3 20 39 2 75 -62 129 -32 27 -54 54 -58 72 -4 23 -13
29 -53 39 -26 6 -97 36 -156 67 -233 119 -261 132 -314 146 -75 22 -155 27
-220 16z"/>
<path d="M8363 4986 c-113 -78 -227 -132 -367 -172 -46 -13 -81 -34 -150 -90
-50 -40 -160 -115 -244 -166 -236 -143 -343 -216 -440 -300 -49 -42 -158 -129
-243 -194 -272 -207 -297 -234 -431 -447 -39 -62 -110 -169 -159 -238 -84
-119 -130 -203 -142 -259 -5 -21 1 -29 31 -48 20 -13 48 -39 62 -58 42 -57 94
-87 151 -88 62 -1 72 11 64 84 -3 30 -8 80 -12 110 -4 44 -2 58 11 69 9 7 16
26 16 42 0 18 20 62 51 112 233 371 528 681 862 906 108 72 354 211 375 211 6
0 20 17 31 38 22 42 60 80 141 140 44 32 83 49 178 76 228 66 335 141 342 241
5 69 2 75 -32 75 -23 0 -53 -14 -95 -44z"/>
<path d="M2103 3900 c-19 -23 -23 -41 -23 -103 0 -57 -4 -80 -19 -98 -23 -30
-87 -156 -135 -269 -27 -63 -45 -90 -69 -106 -46 -30 -79 -83 -146 -230 -63
-141 -93 -197 -309 -573 -115 -201 -152 -258 -179 -273 -26 -16 -54 -58 -130
-196 -229 -420 -289 -512 -415 -633 -75 -72 -88 -90 -88 -117 l0 -32 111 0
111 0 78 73 c136 126 254 182 522 248 87 22 221 57 299 79 207 58 278 65 479
41 l165 -19 26 24 c29 27 54 31 63 9 13 -35 49 -38 114 -11 34 14 67 26 74 26
7 0 49 -11 93 -24 55 -17 155 -33 325 -51 304 -33 444 -56 583 -97 90 -26 125
-42 201 -94 119 -81 218 -138 451 -264 298 -161 323 -176 440 -265 119 -89
143 -103 279 -159 130 -54 174 -78 257 -141 41 -31 87 -63 102 -71 39 -21 99
-20 136 2 44 26 44 79 0 128 -54 62 -267 193 -519 320 -341 172 -488 258 -750
442 -367 256 -660 506 -1315 1119 -176 165 -387 360 -469 434 -122 112 -152
144 -171 188 -16 35 -47 75 -89 116 -66 64 -106 119 -106 148 0 9 34 83 75
163 80 157 89 193 61 261 -13 31 -19 35 -53 34 -29 0 -43 -6 -60 -29z"/>
</g>
</svg>
